<?xml version="1.0" encoding="UTF-8"?><svg id="a" xmlns="http://www.w3.org/2000/svg" viewBox="0 0 500 500"><defs><style>.b{fill:#fff;}.c{fill:#b07b5e;}</style></defs><path class="b" d="M118.71,354.7l-.39-69.38s6.57-44.26,50.25-77.5c0,0-18.55,27.83-19.71,35.95,0,0,77.69,5.22,78.27-81.36,0,0-80.5,1.55-108.62,86.49l.58-99.15s-.29-17.97,24.64-25.8l72.76,.29s52.76,1.45,68.42,60.3c0,0,14.78,92.48-90.45,90.45,0,0-17.97,2.03-16.81,28.99,0,0-8.02,52.76-58.95,50.73Z"/><path class="b" d="M43.78,235.74s56.82-6.96,78.85,44.93l1.16,30.15s-17.39-36.82-31.31-40.59c0,0,12.47,15.65,13.05,31.31,0,0-48.7-2.32-61.75-65.81Z"/><g><path class="c" d="M216.2,314.03c1.4,.95,2.1,2.48,2.1,4.58s-.53,3.82-1.6,5.16c-1.06,1.34-2.46,2.46-4.2,3.36-3.58,1.85-7.3,2.77-11.17,2.77s-6.93-.42-9.19-1.26c-2.27-.84-4.16-2.04-5.67-3.61-2.97-2.97-4.45-7.16-4.45-12.59,0-8.45,2.29-15.25,6.88-20.4,4.92-5.54,11.67-8.31,20.23-8.31,5.32,0,9.29,1.12,11.92,3.36,1.96,1.68,2.94,3.89,2.94,6.63,0,9.85-8.51,14.78-25.52,14.78-.22,1.46-.34,2.8-.34,4.03,0,2.57,.57,4.35,1.72,5.33,1.15,.98,2.78,1.47,4.91,1.47s4.32-.49,6.59-1.47c2.27-.98,3.88-2.25,4.83-3.82Zm-17.13-9.15c3.97,0,7.11-1.23,9.4-3.69,2.29-2.35,3.44-5.4,3.44-9.15,0-1.29-.24-2.28-.71-2.98-.48-.7-1.19-1.05-2.14-1.05s-1.83,.18-2.64,.55c-.81,.36-1.64,1.16-2.48,2.39-2.07,2.8-3.69,7.44-4.87,13.94Z"/><path class="c" d="M245.17,329.89c-12.31,0-18.47-5.79-18.47-17.38,0-8.23,2.27-15,6.8-20.32,4.81-5.65,11.39-8.48,19.73-8.48,6.04,0,10.61,1.4,13.68,4.2,3.08,2.8,4.62,7.14,4.62,13.01,0,8.96-2.41,16.04-7.22,21.24-4.7,5.15-11.08,7.72-19.14,7.72Zm2.18-36.52c-.67,1.51-1.27,3.4-1.8,5.67-.53,2.27-1.13,5.19-1.8,8.77-.67,3.58-1.01,7.58-1.01,12.01,0,1.46,.24,2.66,.71,3.61,.47,.95,1.36,1.43,2.64,1.43s2.34-.31,3.15-.92c.81-.62,1.52-1.65,2.14-3.11,1.12-2.57,2.13-6.25,3.02-11.04,.89-4.79,1.38-8.21,1.47-10.28,.08-2.07,.13-3.88,.13-5.42s-.22-2.81-.67-3.82c-.45-1.01-1.3-1.51-2.56-1.51s-2.31,.39-3.15,1.17c-.84,.79-1.6,1.93-2.27,3.44Z"/><path class="c" d="M294.79,329.89c-12.31,0-18.47-5.79-18.47-17.38,0-8.23,2.27-15,6.8-20.32,4.81-5.65,11.39-8.48,19.73-8.48,6.04,0,10.61,1.4,13.68,4.2,3.08,2.8,4.62,7.14,4.62,13.01,0,8.96-2.41,16.04-7.22,21.24-4.7,5.15-11.08,7.72-19.14,7.72Zm2.18-36.52c-.67,1.51-1.27,3.4-1.8,5.67-.53,2.27-1.13,5.19-1.8,8.77-.67,3.58-1.01,7.58-1.01,12.01,0,1.46,.24,2.66,.71,3.61,.47,.95,1.36,1.43,2.64,1.43s2.34-.31,3.15-.92c.81-.62,1.52-1.65,2.14-3.11,1.12-2.57,2.13-6.25,3.02-11.04,.89-4.79,1.38-8.21,1.47-10.28,.08-2.07,.13-3.88,.13-5.42s-.22-2.81-.67-3.82c-.45-1.01-1.3-1.51-2.56-1.51s-2.31,.39-3.15,1.17c-.84,.79-1.6,1.93-2.27,3.44Z"/><path class="c" d="M332.06,293.12c1.9-2.69,4.3-4.92,7.18-6.72,2.88-1.79,6.09-2.69,9.61-2.69s6.13,.56,7.81,1.68l16.46-1.68-5.71,32.24c-1.96,10.97-5.01,18.61-9.15,22.92-3.97,4.08-9.82,6.13-17.55,6.13-5.88,0-10.49-.92-13.85-2.77-3.36-1.85-5.04-4.31-5.04-7.39,0-2.3,.87-4.1,2.6-5.42,1.73-1.31,3.95-1.97,6.63-1.97,2.35,0,4.42,.53,6.21,1.6,1.06,.56,1.85,1.23,2.35,2.01-1.29,1.12-1.93,2.6-1.93,4.45,0,2.41,1.12,3.61,3.36,3.61,3.75,0,6.69-4.42,8.82-13.26,.62-2.41,1.18-4.81,1.68-7.22-2.52,3.08-6.63,4.62-12.34,4.62-3.97,0-7.11-.95-9.4-2.85-2.3-1.9-3.44-5.09-3.44-9.57,0-2.8,.48-5.78,1.43-8.94,.95-3.16,2.38-6.09,4.28-8.77Zm10.92,17.97c0,3.81,.98,5.71,2.94,5.71,1.34,0,2.66-.73,3.95-2.18,1.01-1.18,1.71-2.63,2.1-4.37l4.28-21.58c-.28-.06-.56-.14-.84-.25-.56-.22-1.2-.34-1.93-.34-3.41,0-6.13,2.8-8.14,8.4-1.57,4.37-2.35,9.24-2.35,14.61Z"/><path class="c" d="M394.69,329.89c-12.31,0-18.47-5.79-18.47-17.38,0-8.23,2.27-15,6.8-20.32,4.81-5.65,11.39-8.48,19.73-8.48,6.04,0,10.61,1.4,13.68,4.2,3.08,2.8,4.62,7.14,4.62,13.01,0,8.96-2.41,16.04-7.22,21.24-4.7,5.15-11.08,7.72-19.14,7.72Zm2.18-36.52c-.67,1.51-1.27,3.4-1.8,5.67-.53,2.27-1.13,5.19-1.8,8.77-.67,3.58-1.01,7.58-1.01,12.01,0,1.46,.24,2.66,.71,3.61,.47,.95,1.36,1.43,2.64,1.43s2.34-.31,3.15-.92c.81-.62,1.52-1.65,2.14-3.11,1.12-2.57,2.13-6.25,3.02-11.04,.89-4.79,1.38-8.21,1.47-10.28,.08-2.07,.13-3.88,.13-5.42s-.22-2.81-.67-3.82c-.45-1.01-1.3-1.51-2.56-1.51s-2.31,.39-3.15,1.17c-.84,.79-1.6,1.93-2.27,3.44Z"/></g><g><path class="b" d="M190.64,358.86c.31,.23,.47,.59,.47,1.08s-.11,.91-.32,1.25c-.21,.34-.52,.65-.94,.92-.88,.57-2.1,.85-3.64,.85s-2.74-.4-3.58-1.21c-.84-.8-1.26-1.92-1.26-3.35,0-2.02,.53-3.8,1.58-5.34,.8-1.14,1.91-1.95,3.34-2.43,.74-.24,1.47-.36,2.2-.36s1.31,.05,1.76,.15c.45,.1,.84,.24,1.18,.44,.74,.42,1.11,.98,1.11,1.65,0,.62-.29,1.16-.87,1.62-.53,.41-1.02,.62-1.45,.62s-.75-.03-.93-.09c.05-.44,.07-.8,.07-1.08s0-.53-.02-.74c-.01-.21-.05-.41-.11-.6-.12-.45-.37-.67-.74-.67s-.74,.17-1.11,.52c-.37,.34-.71,.81-1.03,1.39-.71,1.32-1.07,2.76-1.07,4.32,0,.75,.21,1.34,.64,1.77,.42,.43,1.09,.65,2,.65,.68,0,1.34-.22,1.98-.67,.28-.19,.52-.42,.73-.67Z"/><path class="b" d="M198.45,361.86c-.58,.75-1.59,1.13-3.03,1.13-.75,0-1.4-.23-1.94-.68-.54-.45-.82-1.01-.82-1.66,0-.36,.02-.64,.05-.82l1.22-6.47,3.69-.36-1.33,7.01c-.05,.27-.07,.48-.07,.64,0,.7,.21,1.05,.64,1.05,.47,0,.88-.32,1.22-.96,.11-.21,.19-.44,.24-.71l1.29-6.67,3.58-.36-1.34,7.09c-.04,.18-.05,.37-.05,.56s.05,.4,.16,.61c.11,.21,.34,.34,.69,.39-.07,.29-.24,.53-.49,.73-.53,.41-1.09,.62-1.66,.62s-1.03-.1-1.37-.31c-.34-.21-.56-.48-.65-.82Z"/><path class="b" d="M208.5,361.63c-.38,.91-1.16,1.36-2.36,1.36-.61,0-1.1-.21-1.49-.64-.32-.35-.47-.73-.47-1.13,0-.91,.21-2.36,.64-4.34l1.33-6.98,3.69-.36-1.76,9.19c-.21,.9-.31,1.5-.31,1.82,0,.69,.25,1.05,.74,1.07Z"/><path class="b" d="M210.33,360.81c0-.33,.09-.9,.25-1.73l.96-4.9h-1.07l.07-.54c1.45-.44,2.88-1.19,4.29-2.25h.87l-.44,1.98h1.42l-.16,.82h-1.4l-.93,4.9c-.16,.75-.24,1.25-.24,1.51,0,.58,.25,.93,.76,1.05-.12,.41-.4,.74-.84,.98-.44,.24-.96,.36-1.58,.36s-1.1-.19-1.45-.58c-.35-.39-.53-.92-.53-1.6Z"/><path class="b" d="M220.96,361.63c-.38,.91-1.16,1.36-2.36,1.36-.62,0-1.12-.21-1.51-.64-.33-.38-.49-.75-.49-1.13,0-.98,.22-2.43,.67-4.34l.67-3.52,3.69-.36-1.11,5.74c-.21,.9-.31,1.5-.31,1.82,0,.69,.25,1.05,.75,1.07Zm-2.69-10.79c0-.47,.2-.84,.59-1.09,.39-.25,.88-.38,1.44-.38s1.03,.13,1.37,.38c.34,.25,.52,.62,.52,1.09s-.19,.83-.57,1.07c-.38,.24-.86,.36-1.43,.36s-1.03-.12-1.39-.36c-.36-.24-.54-.6-.54-1.07Z"/><path class="b" d="M229.1,353.67c.4-.45,.94-.67,1.63-.67,.42,0,.8,.12,1.13,.35,.33,.23,.49,.56,.49,.99s-.07,.88-.2,1.33c-.13,.46-.3,.93-.51,1.4-.41,.92-.9,1.76-1.47,2.53-.8,1.1-1.58,1.94-2.35,2.53-.77,.58-1.57,.87-2.41,.87-.68,0-1.22-.08-1.64-.24-.07-2.54-.15-4.27-.25-5.18-.09-.91-.17-1.61-.25-2.11-.12-.97-.36-1.57-.73-1.8,.28-.24,.55-.42,.83-.52,.27-.1,.69-.16,1.25-.16s1.05,.22,1.44,.66c.4,.44,.64,1.05,.72,1.83,.08,.78,.12,1.64,.12,2.59s-.04,1.99-.11,3.12c.38-.27,.76-.81,1.16-1.62,.54-1.13,.91-2.37,1.11-3.72,.06-.41,.09-.84,.09-1.27s-.02-.74-.07-.93Z"/><path class="b" d="M236.8,362.99c-2.67,0-4-1.25-4-3.76,0-1.78,.49-3.25,1.47-4.4,1.04-1.22,2.46-1.83,4.27-1.83,1.31,0,2.29,.3,2.96,.91,.67,.61,1,1.54,1,2.82,0,1.94-.52,3.47-1.56,4.6-1.02,1.11-2.4,1.67-4.14,1.67Zm.47-7.9c-.14,.33-.28,.74-.39,1.23-.12,.49-.25,1.12-.39,1.9-.14,.78-.22,1.64-.22,2.6,0,.31,.05,.58,.15,.78,.1,.21,.29,.31,.57,.31s.51-.07,.68-.2c.18-.13,.33-.36,.46-.67,.24-.56,.46-1.35,.65-2.39,.19-1.04,.3-1.78,.32-2.23,.02-.45,.03-.84,.03-1.17s-.05-.61-.14-.83c-.1-.22-.28-.33-.55-.33s-.5,.08-.68,.25c-.18,.17-.35,.42-.49,.75Z"/><path class="b" d="M251.26,362.99c-1.46,0-2.2-.57-2.2-1.71,.01-.31,.07-.74,.16-1.27l.33-1.67c.33-1.57,.49-2.54,.49-2.89,0-.7-.21-1.05-.62-1.05-.69,0-1.22,.9-1.58,2.71l-1.07,5.52-3.65,.36,1.89-9.65,2.98-.35-.29,1.78c.57-1.19,1.73-1.78,3.47-1.78,.85,0,1.45,.18,1.81,.54,.36,.36,.54,.94,.54,1.74,0,.75-.19,2-.58,3.76-.18,.79-.27,1.33-.27,1.63s.08,.53,.25,.7c.16,.17,.37,.27,.61,.29-.12,.41-.39,.74-.81,.98-.42,.24-.9,.36-1.44,.36Z"/><path class="b" d="M260.4,356.25c.17-.45,.25-.87,.25-1.25,0-.71-.29-1.07-.87-1.07-.3,0-.58,.14-.83,.41-.25,.27-.37,.58-.37,.92,0,.24,.1,.46,.29,.65,.28,.27,.77,.62,1.49,1.05,.71,.44,1.21,.83,1.48,1.19,.27,.36,.41,.78,.41,1.27s-.12,.96-.35,1.41c-.24,.45-.57,.83-.99,1.14-.91,.68-2.09,1.02-3.54,1.02-.79,0-1.48-.21-2.09-.62-.61-.4-.91-.84-.91-1.31s.17-.85,.52-1.13c.34-.28,.77-.42,1.28-.42s.92,.1,1.24,.29c-.16,.4-.24,.73-.24,1,0,.8,.34,1.2,1.02,1.2,.29,0,.53-.09,.73-.27,.19-.18,.29-.43,.29-.74,0-.62-.52-1.25-1.56-1.91-.85-.56-1.37-.94-1.56-1.16-.33-.39-.49-.82-.49-1.31s.11-.96,.34-1.42c.23-.46,.56-.85,.98-1.18,.88-.68,2.09-1.02,3.63-1.02,.79,0,1.41,.16,1.88,.47,.47,.32,.7,.74,.7,1.27s-.16,.95-.48,1.25c-.32,.3-.77,.45-1.35,.45-.4,0-.7-.07-.89-.2Z"/><path class="b" d="M271.88,361.63c-.38,.91-1.16,1.36-2.36,1.36-.61,0-1.1-.21-1.49-.64-.32-.35-.47-.73-.47-1.13,0-.91,.21-2.36,.64-4.34l1.33-6.98,3.69-.36-1.76,9.19c-.21,.9-.31,1.5-.31,1.82,0,.69,.25,1.05,.74,1.07Z"/><path class="b" d="M274.01,354.21c.93-1,1.4-2.14,1.4-3.4,0-.39-.07-.76-.2-1.13,.15-.1,.36-.18,.65-.25,.29-.07,.54-.1,.76-.1,.55,0,.97,.15,1.28,.45,.31,.3,.46,.71,.46,1.23s-.09,.96-.27,1.34c-.18,.38-.44,.72-.76,1.01-.69,.63-1.54,.94-2.54,.94-.19,0-.45-.04-.78-.11Z"/><path class="b" d="M278.69,362.08c-.28-.31-.49-.72-.62-1.22-.13-.5-.19-1.15-.19-1.96s.14-1.59,.42-2.33c.28-.74,.67-1.37,1.18-1.91,1.04-1.11,2.42-1.67,4.14-1.67,.62,0,1.15,.1,1.6,.31l3.11-.31-1.34,7.09c-.04,.14-.05,.35-.05,.62s.08,.48,.25,.65,.37,.27,.61,.29c-.12,.41-.4,.74-.84,.98s-.91,.36-1.41,.36-.91-.09-1.24-.28-.55-.44-.64-.75c-.19,.3-.5,.55-.91,.74-.41,.19-.89,.29-1.44,.29s-1.05-.07-1.5-.22c-.45-.15-.81-.38-1.1-.69Zm3.83-7.38c-.14,.22-.27,.51-.39,.88-.12,.37-.28,1.05-.48,2.04-.2,.99-.3,1.83-.3,2.53s.05,1.16,.16,1.36c.11,.21,.26,.31,.45,.31,.39,0,.72-.18,1.01-.55,.28-.37,.48-.88,.59-1.54l.96-5.32c-.25-.22-.53-.33-.83-.33s-.53,.05-.71,.14c-.18,.1-.33,.25-.47,.47Z"/><path class="b" d="M295.9,353.67c.4-.45,.94-.67,1.63-.67,.42,0,.8,.12,1.13,.35,.33,.23,.49,.56,.49,.99s-.07,.88-.2,1.33c-.13,.46-.3,.93-.51,1.4-.41,.92-.9,1.76-1.47,2.53-.8,1.1-1.58,1.94-2.35,2.53-.77,.58-1.57,.87-2.41,.87-.68,0-1.22-.08-1.64-.24-.07-2.54-.15-4.27-.25-5.18-.09-.91-.17-1.61-.25-2.11-.12-.97-.36-1.57-.73-1.8,.28-.24,.55-.42,.83-.52,.27-.1,.69-.16,1.25-.16s1.04,.22,1.44,.66c.4,.44,.64,1.05,.72,1.83,.08,.78,.12,1.64,.12,2.59s-.04,1.99-.11,3.12c.38-.27,.76-.81,1.16-1.62,.54-1.13,.91-2.37,1.11-3.72,.06-.41,.09-.84,.09-1.27s-.02-.74-.07-.93Z"/><path class="b" d="M307,359.55c.3,.21,.45,.54,.45,.99s-.12,.83-.35,1.12c-.23,.29-.53,.53-.91,.73-.78,.4-1.58,.6-2.42,.6s-1.5-.09-1.99-.27c-.49-.18-.9-.44-1.23-.78-.64-.64-.96-1.55-.96-2.72,0-1.83,.5-3.3,1.49-4.42,1.07-1.2,2.53-1.8,4.38-1.8,1.15,0,2.01,.24,2.58,.73,.42,.36,.64,.84,.64,1.43,0,2.13-1.84,3.2-5.52,3.2-.05,.32-.07,.61-.07,.87,0,.56,.12,.94,.37,1.15,.25,.21,.6,.32,1.06,.32s.94-.11,1.43-.32c.49-.21,.84-.49,1.04-.83Zm-3.71-1.98c.86,0,1.54-.27,2.04-.8,.5-.51,.75-1.17,.75-1.98,0-.28-.05-.49-.15-.64-.1-.15-.26-.23-.46-.23s-.4,.04-.57,.12c-.18,.08-.35,.25-.54,.52-.45,.61-.8,1.61-1.05,3.02Z"/><path class="b" d="M316.99,362.99c-1.46,0-2.2-.57-2.2-1.71,.01-.31,.07-.74,.16-1.27l.33-1.67c.33-1.57,.49-2.54,.49-2.89,0-.7-.21-1.05-.62-1.05-.69,0-1.22,.9-1.58,2.71l-1.07,5.52-3.65,.36,1.89-9.65,2.98-.35-.29,1.78c.57-1.19,1.73-1.78,3.47-1.78,.85,0,1.45,.18,1.81,.54,.36,.36,.54,.94,.54,1.74,0,.75-.19,2-.58,3.76-.18,.79-.27,1.33-.27,1.63s.08,.53,.25,.7c.16,.17,.37,.27,.61,.29-.12,.41-.39,.74-.81,.98s-.9,.36-1.44,.36Z"/><path class="b" d="M325.06,361.63c-.38,.91-1.16,1.36-2.36,1.36-.62,0-1.12-.21-1.51-.64-.33-.38-.49-.75-.49-1.13,0-.98,.22-2.43,.67-4.34l.67-3.52,3.69-.36-1.11,5.74c-.21,.9-.31,1.5-.31,1.82,0,.69,.25,1.05,.75,1.07Zm-2.69-10.79c0-.47,.2-.84,.59-1.09,.39-.25,.88-.38,1.44-.38s1.03,.13,1.37,.38c.34,.25,.52,.62,.52,1.09s-.19,.83-.57,1.07c-.38,.24-.86,.36-1.43,.36s-1.03-.12-1.39-.36c-.36-.24-.54-.6-.54-1.07Z"/><path class="b" d="M332.29,357.52c.44-.78,.65-1.56,.65-2.34,0-.52-.19-.78-.56-.78-.29,0-.59,.25-.89,.75-.31,.5-.52,1.07-.62,1.71l-.94,5.78-3.76,.36,1.85-9.63,3-.36-.33,1.83c.59-1.22,1.56-1.83,2.89-1.83,.7,0,1.24,.18,1.63,.55,.38,.36,.57,.92,.57,1.66s-.25,1.35-.74,1.83c-.49,.47-1.15,.71-1.99,.71-.36,0-.62-.07-.76-.22Z"/><path class="b" d="M347.16,359.55c.3,.21,.45,.54,.45,.99s-.12,.83-.35,1.12c-.23,.29-.53,.53-.91,.73-.78,.4-1.58,.6-2.42,.6s-1.5-.09-1.99-.27c-.49-.18-.9-.44-1.23-.78-.64-.64-.96-1.55-.96-2.72,0-1.83,.5-3.3,1.49-4.42,1.07-1.2,2.53-1.8,4.38-1.8,1.15,0,2.01,.24,2.58,.73,.42,.36,.64,.84,.64,1.43,0,2.13-1.84,3.2-5.52,3.2-.05,.32-.07,.61-.07,.87,0,.56,.12,.94,.37,1.15,.25,.21,.6,.32,1.06,.32s.94-.11,1.43-.32c.49-.21,.84-.49,1.04-.83Zm-3.71-1.98c.86,0,1.54-.27,2.04-.8,.5-.51,.75-1.17,.75-1.98,0-.28-.05-.49-.15-.64-.1-.15-.26-.23-.46-.23s-.4,.04-.57,.12c-.18,.08-.35,.25-.54,.52-.45,.61-.8,1.61-1.05,3.02Z"/><path class="b" d="M357.16,362.99c-1.46,0-2.2-.57-2.2-1.71,.01-.31,.07-.74,.16-1.27l.33-1.67c.33-1.57,.49-2.54,.49-2.89,0-.7-.21-1.05-.62-1.05-.69,0-1.22,.9-1.58,2.71l-1.07,5.52-3.65,.36,1.89-9.65,2.98-.35-.29,1.78c.57-1.19,1.73-1.78,3.47-1.78,.85,0,1.45,.18,1.81,.54,.36,.36,.54,.94,.54,1.74,0,.75-.19,2-.58,3.76-.18,.79-.27,1.33-.27,1.63s.08,.53,.25,.7c.16,.17,.37,.27,.61,.29-.12,.41-.39,.74-.81,.98-.42,.24-.9,.36-1.44,.36Z"/><path class="b" d="M370.44,361.86c-.58,.75-1.59,1.13-3.03,1.13-.75,0-1.4-.23-1.94-.68-.54-.45-.82-1.01-.82-1.66,0-.36,.02-.64,.05-.82l1.22-6.47,3.69-.36-1.33,7.01c-.05,.27-.07,.48-.07,.64,0,.7,.21,1.05,.64,1.05,.47,0,.88-.32,1.22-.96,.11-.21,.19-.44,.24-.71l1.29-6.67,3.58-.36-1.34,7.09c-.04,.18-.05,.37-.05,.56s.05,.4,.16,.61c.11,.21,.34,.34,.69,.39-.07,.29-.24,.53-.49,.73-.53,.41-1.09,.62-1.66,.62s-1.03-.1-1.37-.31c-.34-.21-.56-.48-.65-.82Z"/><path class="b" d="M383.83,362.99c-1.46,0-2.2-.57-2.2-1.71,.01-.31,.07-.74,.16-1.27l.33-1.67c.33-1.57,.49-2.54,.49-2.89,0-.7-.21-1.05-.62-1.05-.69,0-1.22,.9-1.58,2.71l-1.07,5.52-3.65,.36,1.89-9.65,2.98-.35-.29,1.78c.57-1.19,1.73-1.78,3.47-1.78,.85,0,1.45,.18,1.81,.54,.36,.36,.54,.94,.54,1.74,0,.75-.19,2-.58,3.76-.18,.79-.27,1.33-.27,1.63s.08,.53,.25,.7c.16,.17,.37,.27,.61,.29-.12,.41-.39,.74-.81,.98-.42,.24-.9,.36-1.44,.36Z"/><path class="b" d="M400.19,355.07c0,.51-.21,.92-.64,1.24-.42,.32-.98,.47-1.67,.47-.29,0-.52-.04-.69-.13,.13-.32,.22-.67,.26-1.06,.04-.39,.06-.64,.06-.75,0-.51-.18-.76-.53-.76-.24,0-.5,.15-.77,.45-.27,.3-.52,.69-.75,1.16-.51,1.09-.76,2.19-.76,3.29,0,.61,.12,1.04,.35,1.32,.23,.27,.6,.41,1.11,.41,.7,0,1.33-.29,1.89-.87,.16-.18,.28-.38,.36-.58,.46,.24,.69,.7,.69,1.36s-.38,1.24-1.13,1.69c-.78,.46-1.78,.69-3.02,.69-2.46,0-3.69-1.3-3.69-3.91,0-1.9,.54-3.4,1.62-4.49,1.04-1.07,2.52-1.6,4.43-1.6s2.87,.69,2.87,2.07Z"/><path class="b" d="M405.03,361.63c-.38,.91-1.16,1.36-2.36,1.36-.61,0-1.1-.21-1.49-.64-.32-.35-.47-.73-.47-1.13,0-.91,.21-2.36,.64-4.34l1.33-6.98,3.69-.36-1.76,9.19c-.21,.9-.31,1.5-.31,1.82,0,.69,.25,1.05,.74,1.07Z"/><path class="b" d="M410.93,361.63c-.38,.91-1.16,1.36-2.36,1.36-.62,0-1.12-.21-1.51-.64-.33-.38-.49-.75-.49-1.13,0-.98,.22-2.43,.67-4.34l.67-3.52,3.69-.36-1.11,5.74c-.21,.9-.31,1.5-.31,1.82,0,.69,.25,1.05,.75,1.07Zm-2.69-10.79c0-.47,.2-.84,.59-1.09,.39-.25,.88-.38,1.44-.38s1.03,.13,1.37,.38c.34,.25,.52,.62,.52,1.09s-.19,.83-.57,1.07c-.38,.24-.86,.36-1.43,.36s-1.03-.12-1.39-.36c-.36-.24-.54-.6-.54-1.07Z"/><path class="b" d="M421.39,355.07c0,.51-.21,.92-.64,1.24-.42,.32-.98,.47-1.67,.47-.29,0-.52-.04-.69-.13,.13-.32,.22-.67,.26-1.06,.04-.39,.06-.64,.06-.75,0-.51-.18-.76-.53-.76-.24,0-.5,.15-.77,.45-.27,.3-.52,.69-.75,1.16-.51,1.09-.76,2.19-.76,3.29,0,.61,.12,1.04,.35,1.32,.23,.27,.6,.41,1.11,.41,.7,0,1.33-.29,1.89-.87,.16-.18,.28-.38,.36-.58,.46,.24,.69,.7,.69,1.36s-.38,1.24-1.13,1.69c-.78,.46-1.78,.69-3.02,.69-2.46,0-3.69-1.3-3.69-3.91,0-1.9,.54-3.4,1.62-4.49,1.04-1.07,2.52-1.6,4.43-1.6s2.87,.69,2.87,2.07Z"/></g></svg>