<?xml version="1.0" encoding="UTF-8"?><svg id="a" xmlns="http://www.w3.org/2000/svg" viewBox="0 0 500 500"><defs><style>.b{fill:#b07b5e;}.c{fill:#045d28;}</style></defs><path class="c" d="M111.32,353.5l-.39-69.77s6.61-44.5,50.53-77.93c0,0-18.66,27.98-19.82,36.15,0,0,78.12,5.25,78.71-81.81,0,0-80.94,1.55-109.22,86.96l.58-99.69s-.29-18.07,24.78-25.94l73.17,.29s53.05,1.46,68.79,60.63c0,0,14.87,92.99-90.95,90.95,0,0-18.07,2.04-16.91,29.15,0,0-8.06,53.05-59.27,51.01Z"/><path class="c" d="M35.97,233.89s57.13-7,79.29,45.18l1.17,30.32s-17.49-37.02-31.48-40.81c0,0,12.53,15.74,13.12,31.48,0,0-48.97-2.33-62.09-66.17Z"/><g><path class="c" d="M209.35,312.61c1.41,.96,2.11,2.49,2.11,4.6s-.54,3.84-1.6,5.19c-1.07,1.35-2.48,2.48-4.22,3.38-3.6,1.86-7.34,2.79-11.23,2.79s-6.96-.42-9.24-1.27c-2.28-.84-4.18-2.05-5.7-3.63-2.98-2.98-4.47-7.2-4.47-12.66,0-8.5,2.31-15.33,6.92-20.51,4.95-5.57,11.73-8.36,20.35-8.36,5.35,0,9.34,1.13,11.99,3.38,1.97,1.69,2.95,3.91,2.95,6.67,0,9.91-8.56,14.86-25.66,14.86-.23,1.46-.34,2.82-.34,4.05,0,2.59,.58,4.38,1.73,5.36,1.15,.99,2.8,1.48,4.94,1.48s4.35-.49,6.63-1.48c2.28-.98,3.9-2.26,4.85-3.84Zm-17.22-9.2c4,0,7.15-1.24,9.46-3.71,2.31-2.36,3.46-5.43,3.46-9.2,0-1.29-.24-2.29-.72-3-.48-.7-1.2-1.06-2.15-1.06s-1.84,.18-2.66,.55c-.82,.37-1.65,1.17-2.49,2.41-2.08,2.81-3.71,7.49-4.9,14.01Z"/><path class="c" d="M238.47,328.56c-12.38,0-18.57-5.83-18.57-17.47,0-8.27,2.28-15.08,6.84-20.43,4.84-5.68,11.45-8.53,19.84-8.53,6.08,0,10.66,1.41,13.76,4.22,3.09,2.81,4.64,7.18,4.64,13.08,0,9-2.42,16.12-7.26,21.36-4.73,5.18-11.14,7.77-19.25,7.77Zm2.19-36.72c-.68,1.52-1.28,3.42-1.81,5.7-.54,2.28-1.14,5.22-1.82,8.82-.68,3.6-1.01,7.63-1.01,12.07,0,1.46,.24,2.67,.72,3.63,.48,.96,1.36,1.43,2.66,1.43s2.35-.31,3.17-.93c.81-.62,1.53-1.66,2.15-3.12,1.12-2.59,2.14-6.29,3.04-11.1,.9-4.81,1.39-8.26,1.48-10.34,.08-2.08,.13-3.9,.13-5.44s-.23-2.83-.68-3.84c-.45-1.01-1.31-1.52-2.58-1.52s-2.32,.39-3.17,1.18-1.6,1.94-2.28,3.46Z"/><path class="c" d="M288.36,328.56c-12.38,0-18.57-5.83-18.57-17.47,0-8.27,2.28-15.08,6.84-20.43,4.84-5.68,11.45-8.53,19.84-8.53,6.08,0,10.66,1.41,13.76,4.22,3.09,2.81,4.64,7.18,4.64,13.08,0,9-2.42,16.12-7.26,21.36-4.73,5.18-11.14,7.77-19.25,7.77Zm2.19-36.72c-.68,1.52-1.28,3.42-1.81,5.7-.54,2.28-1.14,5.22-1.82,8.82-.68,3.6-1.01,7.63-1.01,12.07,0,1.46,.24,2.67,.72,3.63,.48,.96,1.36,1.43,2.66,1.43s2.35-.31,3.17-.93c.81-.62,1.53-1.66,2.15-3.12,1.12-2.59,2.14-6.29,3.04-11.1,.9-4.81,1.39-8.26,1.48-10.34,.08-2.08,.13-3.9,.13-5.44s-.23-2.83-.68-3.84c-.45-1.01-1.31-1.52-2.58-1.52s-2.32,.39-3.17,1.18-1.6,1.94-2.28,3.46Z"/><path class="c" d="M325.84,291.59c1.91-2.7,4.32-4.95,7.22-6.75,2.9-1.8,6.12-2.7,9.67-2.7s6.16,.56,7.85,1.69l16.55-1.69-5.74,32.42c-1.97,11.03-5.04,18.71-9.2,23.05-4,4.11-9.88,6.16-17.64,6.16-5.91,0-10.55-.93-13.93-2.79-3.38-1.86-5.06-4.33-5.06-7.43,0-2.31,.87-4.12,2.62-5.45,1.74-1.32,3.97-1.98,6.67-1.98,2.36,0,4.45,.54,6.25,1.6,1.07,.56,1.86,1.24,2.36,2.03-1.3,1.12-1.94,2.62-1.94,4.47,0,2.42,1.13,3.63,3.38,3.63,3.77,0,6.72-4.45,8.86-13.34,.62-2.42,1.18-4.84,1.69-7.26-2.53,3.1-6.67,4.64-12.41,4.64-4,0-7.15-.96-9.46-2.87-2.31-1.91-3.46-5.12-3.46-9.62,0-2.81,.48-5.81,1.44-8.99,.96-3.18,2.39-6.12,4.31-8.82Zm10.97,18.07c0,3.83,.98,5.74,2.96,5.74,1.35,0,2.67-.73,3.97-2.19,1.01-1.18,1.72-2.64,2.11-4.39l4.31-21.7c-.28-.06-.56-.14-.84-.25-.56-.22-1.21-.34-1.94-.34-3.43,0-6.16,2.81-8.19,8.44-1.58,4.39-2.36,9.29-2.36,14.69Z"/><path class="c" d="M388.82,328.56c-12.38,0-18.57-5.83-18.57-17.47,0-8.27,2.28-15.08,6.84-20.43,4.84-5.68,11.45-8.53,19.84-8.53,6.08,0,10.66,1.41,13.76,4.22,3.09,2.81,4.64,7.18,4.64,13.08,0,9-2.42,16.12-7.26,21.36-4.73,5.18-11.14,7.77-19.25,7.77Zm2.19-36.72c-.68,1.52-1.28,3.42-1.81,5.7-.54,2.28-1.14,5.22-1.82,8.82-.68,3.6-1.01,7.63-1.01,12.07,0,1.46,.24,2.67,.72,3.63,.48,.96,1.36,1.43,2.66,1.43s2.35-.31,3.17-.93c.81-.62,1.53-1.66,2.15-3.12,1.12-2.59,2.14-6.29,3.04-11.1,.9-4.81,1.39-8.26,1.48-10.34,.08-2.08,.13-3.9,.13-5.44s-.23-2.83-.68-3.84c-.45-1.01-1.31-1.52-2.58-1.52s-2.32,.39-3.17,1.18-1.6,1.94-2.28,3.46Z"/></g><g><path class="b" d="M183.64,357.7c.32,.23,.48,.59,.48,1.09s-.11,.91-.32,1.26c-.21,.35-.53,.65-.94,.92-.89,.57-2.11,.86-3.66,.86s-2.75-.4-3.6-1.21c-.85-.81-1.27-1.93-1.27-3.37,0-2.03,.53-3.82,1.59-5.37,.8-1.14,1.92-1.96,3.36-2.45,.74-.24,1.48-.37,2.21-.37s1.32,.05,1.77,.15,.85,.24,1.19,.44c.74,.43,1.11,.98,1.11,1.66,0,.62-.29,1.16-.88,1.63-.54,.41-1.02,.62-1.46,.62s-.75-.03-.93-.09c.05-.44,.07-.8,.07-1.09s0-.53-.02-.74c-.01-.21-.05-.41-.11-.6-.12-.45-.37-.68-.74-.68s-.74,.17-1.11,.52c-.37,.35-.72,.81-1.03,1.4-.72,1.33-1.08,2.78-1.08,4.35,0,.76,.21,1.35,.64,1.78,.43,.43,1.1,.65,2.01,.65,.68,0,1.35-.22,1.99-.68,.28-.19,.52-.42,.73-.68Z"/><path class="b" d="M191.5,360.71c-.58,.76-1.6,1.13-3.05,1.13-.75,0-1.41-.23-1.95-.68-.55-.46-.82-1.01-.82-1.67,0-.37,.02-.64,.05-.82l1.22-6.5,3.71-.37-1.33,7.05c-.05,.27-.07,.48-.07,.64,0,.71,.21,1.06,.64,1.06,.48,0,.88-.32,1.22-.97,.11-.21,.19-.44,.24-.71l1.3-6.7,3.6-.37-1.35,7.12c-.04,.18-.05,.37-.05,.57s.05,.4,.16,.61c.11,.21,.34,.34,.69,.39-.07,.29-.24,.54-.49,.73-.54,.41-1.09,.62-1.67,.62s-1.04-.1-1.38-.31c-.34-.21-.56-.48-.66-.82Z"/><path class="b" d="M201.6,360.47c-.38,.91-1.17,1.37-2.37,1.37-.61,0-1.11-.21-1.5-.64-.32-.35-.48-.73-.48-1.13,0-.91,.21-2.37,.64-4.37l1.33-7.01,3.71-.37-1.77,9.24c-.21,.9-.31,1.51-.31,1.83,0,.69,.25,1.05,.75,1.08Z"/><path class="b" d="M203.44,359.65c0-.33,.08-.91,.26-1.74l.97-4.93h-1.08l.07-.55c1.46-.44,2.9-1.19,4.31-2.27h.88l-.44,1.99h1.42l-.16,.82h-1.41l-.93,4.93c-.16,.76-.24,1.26-.24,1.52,0,.58,.26,.94,.77,1.06-.12,.41-.4,.74-.84,.99s-.97,.37-1.59,.37-1.11-.2-1.46-.58c-.35-.39-.53-.93-.53-1.61Z"/><path class="b" d="M214.13,360.47c-.38,.91-1.17,1.37-2.38,1.37-.62,0-1.13-.21-1.52-.64-.33-.38-.49-.75-.49-1.13,0-.99,.23-2.44,.68-4.37l.68-3.54,3.71-.37-1.11,5.77c-.21,.9-.31,1.51-.31,1.83,0,.69,.25,1.05,.75,1.08Zm-2.7-10.85c0-.47,.2-.84,.59-1.1,.4-.26,.88-.38,1.45-.38s1.03,.13,1.38,.38c.35,.25,.52,.62,.52,1.1s-.19,.83-.58,1.08c-.38,.24-.86,.37-1.43,.37s-1.04-.12-1.4-.37c-.36-.24-.54-.6-.54-1.08Z"/><path class="b" d="M222.31,352.47c.4-.45,.95-.68,1.64-.68,.43,0,.8,.12,1.13,.35,.33,.23,.49,.56,.49,1s-.07,.88-.2,1.34c-.13,.46-.3,.93-.51,1.41-.41,.93-.91,1.77-1.48,2.54-.8,1.11-1.59,1.96-2.37,2.54-.77,.58-1.58,.88-2.42,.88-.68,0-1.23-.08-1.64-.24-.07-2.56-.16-4.29-.25-5.21-.09-.91-.17-1.62-.25-2.12-.12-.97-.37-1.58-.73-1.81,.28-.24,.56-.42,.83-.52,.27-.1,.69-.16,1.26-.16s1.05,.22,1.45,.67,.64,1.06,.72,1.84c.08,.79,.12,1.65,.12,2.6s-.04,2-.11,3.14c.38-.27,.77-.81,1.17-1.63,.55-1.13,.92-2.38,1.11-3.75,.06-.41,.09-.84,.09-1.28s-.02-.75-.07-.93Z"/><path class="b" d="M230.06,361.84c-2.68,0-4.02-1.26-4.02-3.78,0-1.79,.49-3.26,1.48-4.42,1.05-1.23,2.48-1.84,4.29-1.84,1.32,0,2.31,.3,2.98,.91,.67,.61,1,1.55,1,2.83,0,1.95-.52,3.49-1.57,4.62-1.02,1.12-2.41,1.68-4.17,1.68Zm.47-7.95c-.15,.33-.28,.74-.39,1.23s-.25,1.13-.39,1.91c-.15,.78-.22,1.65-.22,2.61,0,.32,.05,.58,.16,.79,.1,.21,.29,.31,.58,.31s.51-.07,.69-.2c.18-.13,.33-.36,.47-.68,.24-.56,.46-1.36,.66-2.4s.3-1.79,.32-2.24c.02-.45,.03-.84,.03-1.18s-.05-.61-.15-.83c-.1-.22-.28-.33-.56-.33s-.5,.09-.69,.26c-.18,.17-.35,.42-.49,.75Z"/><path class="b" d="M244.6,361.84c-1.47,0-2.21-.57-2.21-1.72,.01-.32,.07-.74,.16-1.28l.33-1.68c.33-1.58,.49-2.55,.49-2.9,0-.71-.21-1.06-.62-1.06-.69,0-1.22,.91-1.59,2.72l-1.08,5.55-3.67,.37,1.9-9.7,3-.35-.29,1.79c.57-1.19,1.74-1.79,3.49-1.79,.85,0,1.46,.18,1.82,.54,.36,.36,.54,.94,.54,1.74,0,.75-.19,2.02-.58,3.78-.18,.79-.27,1.34-.27,1.63s.08,.53,.25,.7c.16,.17,.37,.27,.61,.29-.12,.41-.39,.74-.81,.99-.42,.24-.9,.37-1.45,.37Z"/><path class="b" d="M253.79,355.06c.17-.45,.26-.87,.26-1.26,0-.72-.29-1.08-.88-1.08-.3,0-.58,.14-.83,.41-.25,.27-.37,.58-.37,.92,0,.24,.1,.46,.29,.66,.28,.27,.78,.62,1.5,1.06s1.21,.84,1.49,1.2c.27,.36,.41,.79,.41,1.28s-.12,.97-.36,1.42c-.24,.45-.57,.83-1,1.15-.91,.68-2.1,1.02-3.56,1.02-.79,0-1.49-.21-2.1-.62-.61-.4-.91-.84-.91-1.32s.17-.85,.52-1.13c.35-.28,.78-.42,1.29-.42s.93,.1,1.24,.29c-.16,.4-.24,.74-.24,1,0,.8,.34,1.21,1.02,1.21,.29,0,.54-.09,.73-.27s.29-.43,.29-.75c0-.62-.52-1.26-1.57-1.92-.85-.56-1.38-.95-1.57-1.17-.33-.39-.49-.83-.49-1.32s.12-.96,.35-1.42,.56-.86,.99-1.19c.89-.68,2.11-1.02,3.65-1.02,.79,0,1.42,.16,1.89,.47,.47,.32,.7,.74,.7,1.28s-.16,.96-.48,1.26c-.32,.3-.78,.46-1.36,.46-.4,0-.7-.07-.9-.2Z"/><path class="b" d="M265.33,360.47c-.38,.91-1.17,1.37-2.37,1.37-.61,0-1.11-.21-1.5-.64-.32-.35-.48-.73-.48-1.13,0-.91,.21-2.37,.64-4.37l1.33-7.01,3.71-.37-1.77,9.24c-.21,.9-.31,1.51-.31,1.83,0,.69,.25,1.05,.75,1.08Z"/><path class="b" d="M267.47,353.02c.94-1.01,1.41-2.15,1.41-3.42,0-.39-.07-.77-.2-1.13,.15-.1,.37-.18,.66-.25,.29-.07,.55-.1,.77-.1,.55,0,.98,.15,1.29,.46s.47,.71,.47,1.23-.09,.97-.27,1.35c-.18,.38-.44,.72-.77,1.01-.69,.63-1.55,.95-2.56,.95-.19,0-.46-.04-.79-.11Z"/><path class="b" d="M272.17,360.93c-.29-.32-.49-.72-.62-1.22-.13-.5-.19-1.16-.19-1.97s.14-1.59,.42-2.34,.68-1.38,1.19-1.92c1.05-1.12,2.44-1.68,4.17-1.68,.62,0,1.16,.1,1.61,.31l3.12-.31-1.35,7.12c-.04,.15-.05,.35-.05,.62s.08,.49,.25,.66c.16,.17,.37,.27,.61,.29-.12,.41-.41,.74-.85,.99s-.92,.37-1.42,.37-.92-.09-1.25-.28-.55-.44-.65-.76c-.19,.3-.5,.55-.91,.75-.41,.19-.9,.29-1.45,.29s-1.06-.07-1.51-.22c-.45-.15-.82-.38-1.11-.69Zm3.85-7.42c-.14,.22-.27,.51-.39,.89-.12,.37-.28,1.05-.48,2.05-.2,.99-.3,1.84-.3,2.55s.05,1.16,.16,1.37c.11,.21,.26,.31,.46,.31,.39,0,.73-.19,1.01-.56,.29-.37,.48-.89,.59-1.54l.97-5.35c-.26-.22-.53-.33-.83-.33s-.54,.05-.71,.15c-.18,.1-.33,.26-.48,.47Z"/><path class="b" d="M289.48,352.47c.4-.45,.95-.68,1.64-.68,.43,0,.8,.12,1.13,.35,.33,.23,.49,.56,.49,1s-.07,.88-.2,1.34c-.13,.46-.3,.93-.51,1.41-.41,.93-.91,1.77-1.48,2.54-.8,1.11-1.59,1.96-2.37,2.54-.77,.58-1.58,.88-2.42,.88-.68,0-1.23-.08-1.64-.24-.07-2.56-.16-4.29-.25-5.21-.09-.91-.17-1.62-.25-2.12-.12-.97-.37-1.58-.73-1.81,.28-.24,.56-.42,.83-.52,.27-.1,.69-.16,1.26-.16s1.05,.22,1.45,.67,.64,1.06,.72,1.84c.08,.79,.12,1.65,.12,2.6s-.04,2-.11,3.14c.38-.27,.77-.81,1.17-1.63,.55-1.13,.92-2.38,1.11-3.75,.06-.41,.09-.84,.09-1.28s-.02-.75-.07-.93Z"/><path class="b" d="M300.64,358.39c.3,.21,.46,.54,.46,1s-.12,.83-.35,1.12c-.23,.29-.54,.54-.91,.73-.78,.4-1.59,.6-2.43,.6s-1.51-.09-2-.27c-.49-.18-.9-.45-1.23-.79-.65-.65-.97-1.56-.97-2.74,0-1.84,.5-3.32,1.5-4.44,1.07-1.21,2.54-1.81,4.4-1.81,1.16,0,2.02,.24,2.59,.73,.43,.37,.64,.85,.64,1.44,0,2.14-1.85,3.21-5.55,3.21-.05,.32-.07,.61-.07,.88,0,.56,.12,.95,.37,1.16s.61,.32,1.07,.32,.94-.11,1.43-.32c.49-.21,.84-.49,1.05-.83Zm-3.73-1.99c.86,0,1.55-.27,2.05-.8,.5-.51,.75-1.18,.75-1.99,0-.28-.05-.5-.16-.65-.1-.15-.26-.23-.47-.23s-.4,.04-.58,.12c-.18,.08-.36,.25-.54,.52-.45,.61-.8,1.62-1.06,3.03Z"/><path class="b" d="M310.69,361.84c-1.47,0-2.21-.57-2.21-1.72,.01-.32,.07-.74,.16-1.28l.33-1.68c.33-1.58,.49-2.55,.49-2.9,0-.71-.21-1.06-.62-1.06-.69,0-1.22,.91-1.59,2.72l-1.08,5.55-3.67,.37,1.9-9.7,3-.35-.29,1.79c.57-1.19,1.74-1.79,3.49-1.79,.85,0,1.46,.18,1.82,.54,.36,.36,.54,.94,.54,1.74,0,.75-.19,2.02-.58,3.78-.18,.79-.27,1.34-.27,1.63s.08,.53,.25,.7c.16,.17,.37,.27,.61,.29-.12,.41-.39,.74-.81,.99-.42,.24-.9,.37-1.45,.37Z"/><path class="b" d="M318.8,360.47c-.38,.91-1.17,1.37-2.38,1.37-.62,0-1.13-.21-1.52-.64-.33-.38-.49-.75-.49-1.13,0-.99,.23-2.44,.68-4.37l.68-3.54,3.71-.37-1.11,5.77c-.21,.9-.31,1.51-.31,1.83,0,.69,.25,1.05,.75,1.08Zm-2.7-10.85c0-.47,.2-.84,.59-1.1,.4-.26,.88-.38,1.45-.38s1.03,.13,1.38,.38c.35,.25,.52,.62,.52,1.1s-.19,.83-.58,1.08c-.38,.24-.86,.37-1.43,.37s-1.04-.12-1.4-.37c-.36-.24-.54-.6-.54-1.08Z"/><path class="b" d="M326.07,356.34c.44-.78,.66-1.57,.66-2.36,0-.52-.19-.79-.57-.79-.29,0-.59,.25-.9,.75-.32,.5-.52,1.07-.62,1.72l-.95,5.81-3.78,.37,1.86-9.68,3.01-.37-.33,1.84c.6-1.23,1.56-1.84,2.9-1.84,.71,0,1.25,.18,1.63,.55,.38,.37,.58,.92,.58,1.67s-.25,1.36-.74,1.84c-.49,.47-1.16,.71-2,.71-.37,0-.62-.07-.77-.22Z"/><path class="b" d="M341.03,358.39c.3,.21,.46,.54,.46,1s-.12,.83-.35,1.12c-.23,.29-.54,.54-.91,.73-.78,.4-1.59,.6-2.43,.6s-1.51-.09-2-.27c-.49-.18-.9-.45-1.23-.79-.65-.65-.97-1.56-.97-2.74,0-1.84,.5-3.32,1.5-4.44,1.07-1.21,2.54-1.81,4.4-1.81,1.16,0,2.02,.24,2.59,.73,.43,.37,.64,.85,.64,1.44,0,2.14-1.85,3.21-5.55,3.21-.05,.32-.07,.61-.07,.88,0,.56,.12,.95,.37,1.16s.61,.32,1.07,.32,.94-.11,1.43-.32c.49-.21,.84-.49,1.05-.83Zm-3.73-1.99c.86,0,1.55-.27,2.05-.8,.5-.51,.75-1.18,.75-1.99,0-.28-.05-.5-.16-.65-.1-.15-.26-.23-.47-.23s-.4,.04-.58,.12c-.18,.08-.36,.25-.54,.52-.45,.61-.8,1.62-1.06,3.03Z"/><path class="b" d="M351.08,361.84c-1.47,0-2.21-.57-2.21-1.72,.01-.32,.07-.74,.16-1.28l.33-1.68c.33-1.58,.49-2.55,.49-2.9,0-.71-.21-1.06-.62-1.06-.69,0-1.22,.91-1.59,2.72l-1.08,5.55-3.67,.37,1.9-9.7,3-.35-.29,1.79c.57-1.19,1.74-1.79,3.49-1.79,.85,0,1.46,.18,1.82,.54,.36,.36,.54,.94,.54,1.74,0,.75-.19,2.02-.58,3.78-.18,.79-.27,1.34-.27,1.63s.08,.53,.25,.7c.16,.17,.37,.27,.61,.29-.12,.41-.39,.74-.81,.99-.42,.24-.9,.37-1.45,.37Z"/><path class="b" d="M364.43,360.71c-.58,.76-1.6,1.13-3.05,1.13-.75,0-1.41-.23-1.95-.68-.55-.46-.82-1.01-.82-1.67,0-.37,.02-.64,.05-.82l1.22-6.5,3.71-.37-1.33,7.05c-.05,.27-.07,.48-.07,.64,0,.71,.21,1.06,.64,1.06,.48,0,.88-.32,1.22-.97,.11-.21,.19-.44,.24-.71l1.3-6.7,3.6-.37-1.35,7.12c-.04,.18-.05,.37-.05,.57s.05,.4,.16,.61c.11,.21,.34,.34,.69,.39-.07,.29-.24,.54-.49,.73-.54,.41-1.09,.62-1.67,.62s-1.04-.1-1.38-.31c-.34-.21-.56-.48-.66-.82Z"/><path class="b" d="M377.9,361.84c-1.47,0-2.21-.57-2.21-1.72,.01-.32,.07-.74,.16-1.28l.33-1.68c.33-1.58,.49-2.55,.49-2.9,0-.71-.21-1.06-.62-1.06-.69,0-1.22,.91-1.59,2.72l-1.08,5.55-3.67,.37,1.9-9.7,3-.35-.29,1.79c.57-1.19,1.74-1.79,3.49-1.79,.85,0,1.46,.18,1.82,.54,.36,.36,.54,.94,.54,1.74,0,.75-.19,2.02-.58,3.78-.18,.79-.27,1.34-.27,1.63s.08,.53,.25,.7c.16,.17,.37,.27,.61,.29-.12,.41-.39,.74-.81,.99-.42,.24-.9,.37-1.45,.37Z"/><path class="b" d="M394.35,353.88c0,.51-.21,.93-.64,1.24-.43,.32-.99,.48-1.68,.48-.29,0-.52-.04-.69-.13,.13-.32,.22-.67,.27-1.07,.04-.4,.06-.65,.06-.76,0-.51-.18-.77-.53-.77-.24,0-.5,.15-.78,.46-.27,.3-.53,.69-.76,1.17-.51,1.1-.77,2.2-.77,3.31,0,.61,.12,1.05,.35,1.32,.23,.27,.6,.41,1.11,.41,.71,0,1.34-.29,1.9-.88,.16-.18,.28-.38,.37-.58,.46,.24,.69,.7,.69,1.37s-.38,1.25-1.13,1.7c-.78,.46-1.79,.69-3.03,.69-2.47,0-3.71-1.31-3.71-3.93,0-1.91,.54-3.42,1.63-4.51,1.05-1.07,2.53-1.61,4.46-1.61s2.89,.69,2.89,2.08Z"/><path class="b" d="M399.21,360.47c-.38,.91-1.17,1.37-2.37,1.37-.61,0-1.11-.21-1.5-.64-.32-.35-.48-.73-.48-1.13,0-.91,.21-2.37,.64-4.37l1.33-7.01,3.71-.37-1.77,9.24c-.21,.9-.31,1.51-.31,1.83,0,.69,.25,1.05,.75,1.08Z"/><path class="b" d="M405.15,360.47c-.38,.91-1.17,1.37-2.38,1.37-.62,0-1.13-.21-1.52-.64-.33-.38-.49-.75-.49-1.13,0-.99,.23-2.44,.68-4.37l.68-3.54,3.71-.37-1.11,5.77c-.21,.9-.31,1.51-.31,1.83,0,.69,.25,1.05,.75,1.08Zm-2.7-10.85c0-.47,.2-.84,.59-1.1,.4-.26,.88-.38,1.45-.38s1.03,.13,1.38,.38c.35,.25,.52,.62,.52,1.1s-.19,.83-.58,1.08c-.38,.24-.86,.37-1.43,.37s-1.04-.12-1.4-.37c-.36-.24-.54-.6-.54-1.08Z"/><path class="b" d="M415.67,353.88c0,.51-.21,.93-.64,1.24-.43,.32-.99,.48-1.68,.48-.29,0-.52-.04-.69-.13,.13-.32,.22-.67,.27-1.07,.04-.4,.06-.65,.06-.76,0-.51-.18-.77-.53-.77-.24,0-.5,.15-.78,.46-.27,.3-.53,.69-.76,1.17-.51,1.1-.77,2.2-.77,3.31,0,.61,.12,1.05,.35,1.32,.23,.27,.6,.41,1.11,.41,.71,0,1.34-.29,1.9-.88,.16-.18,.28-.38,.37-.58,.46,.24,.69,.7,.69,1.37s-.38,1.25-1.13,1.7c-.78,.46-1.79,.69-3.03,.69-2.47,0-3.71-1.31-3.71-3.93,0-1.91,.54-3.42,1.63-4.51,1.05-1.07,2.53-1.61,4.46-1.61s2.89,.69,2.89,2.08Z"/></g></svg>