<?xml version="1.0" encoding="UTF-8"?><svg id="a" xmlns="http://www.w3.org/2000/svg" viewBox="0 0 500 500"><defs><style>.b{fill:#045d28;}</style></defs><path class="b" d="M122.76,352.83l-.39-70.07s6.64-44.69,50.74-78.26c0,0-18.74,28.1-19.91,36.3,0,0,78.46,5.27,79.04-82.17,0,0-81.29,1.56-109.69,87.34l.59-100.12s-.29-18.15,24.88-26.06l73.48,.29s53.28,1.46,69.09,60.89c0,0,14.93,93.39-91.34,91.34,0,0-18.15,2.05-16.98,29.28,0,0-8.1,53.28-59.53,51.23Z"/><path class="b" d="M47.09,232.71s57.38-7.03,79.63,45.38l1.17,30.45s-17.57-37.18-31.62-40.99c0,0,12.59,15.81,13.17,31.62,0,0-49.18-2.34-62.36-66.46Z"/><g><path class="b" d="M221.21,311.76c1.41,.96,2.12,2.5,2.12,4.62s-.54,3.86-1.61,5.21c-1.07,1.36-2.49,2.49-4.24,3.39-3.62,1.87-7.38,2.8-11.28,2.8s-6.99-.42-9.28-1.27-4.2-2.06-5.72-3.65c-3-3-4.49-7.23-4.49-12.72,0-8.53,2.32-15.4,6.95-20.6,4.97-5.6,11.79-8.39,20.43-8.39,5.37,0,9.38,1.13,12.04,3.39,1.98,1.7,2.97,3.93,2.97,6.7,0,9.95-8.59,14.92-25.77,14.92-.23,1.47-.34,2.83-.34,4.07,0,2.6,.58,4.4,1.74,5.38,1.16,.99,2.81,1.48,4.96,1.48s4.37-.49,6.66-1.48c2.29-.99,3.91-2.27,4.88-3.86Zm-17.3-9.24c4.01,0,7.18-1.24,9.5-3.73,2.32-2.37,3.48-5.45,3.48-9.24,0-1.3-.24-2.3-.72-3.01-.48-.71-1.2-1.06-2.16-1.06s-1.85,.18-2.67,.55c-.82,.37-1.65,1.17-2.5,2.42-2.09,2.83-3.73,7.52-4.92,14.07Z"/><path class="b" d="M250.46,327.78c-12.44,0-18.65-5.85-18.65-17.55,0-8.31,2.29-15.15,6.87-20.52,4.86-5.71,11.5-8.56,19.92-8.56,6.1,0,10.71,1.41,13.82,4.24,3.11,2.83,4.66,7.21,4.66,13.14,0,9.04-2.43,16.19-7.29,21.45-4.75,5.2-11.19,7.8-19.33,7.8Zm2.2-36.88c-.68,1.53-1.29,3.43-1.82,5.72-.54,2.29-1.14,5.24-1.82,8.86-.68,3.62-1.02,7.66-1.02,12.12,0,1.47,.24,2.69,.72,3.65,.48,.96,1.37,1.44,2.67,1.44s2.36-.31,3.18-.93c.82-.62,1.54-1.67,2.16-3.14,1.13-2.6,2.15-6.32,3.05-11.15,.9-4.83,1.4-8.29,1.48-10.39,.08-2.09,.13-3.91,.13-5.47s-.23-2.84-.68-3.86c-.45-1.02-1.31-1.53-2.59-1.53s-2.33,.4-3.18,1.19c-.85,.79-1.61,1.95-2.29,3.48Z"/><path class="b" d="M300.57,327.78c-12.44,0-18.65-5.85-18.65-17.55,0-8.31,2.29-15.15,6.87-20.52,4.86-5.71,11.5-8.56,19.92-8.56,6.1,0,10.71,1.41,13.82,4.24,3.11,2.83,4.66,7.21,4.66,13.14,0,9.04-2.43,16.19-7.29,21.45-4.75,5.2-11.19,7.8-19.33,7.8Zm2.2-36.88c-.68,1.53-1.29,3.43-1.82,5.72-.54,2.29-1.14,5.24-1.82,8.86-.68,3.62-1.02,7.66-1.02,12.12,0,1.47,.24,2.69,.72,3.65,.48,.96,1.37,1.44,2.67,1.44s2.36-.31,3.18-.93c.82-.62,1.54-1.67,2.16-3.14,1.13-2.6,2.15-6.32,3.05-11.15,.9-4.83,1.4-8.29,1.48-10.39,.08-2.09,.13-3.91,.13-5.47s-.23-2.84-.68-3.86c-.45-1.02-1.31-1.53-2.59-1.53s-2.33,.4-3.18,1.19c-.85,.79-1.61,1.95-2.29,3.48Z"/><path class="b" d="M338.21,290.65c1.92-2.71,4.34-4.97,7.25-6.78,2.91-1.81,6.15-2.71,9.71-2.71s6.19,.57,7.88,1.7l16.62-1.7-5.76,32.56c-1.98,11.08-5.06,18.79-9.24,23.15-4.01,4.12-9.92,6.19-17.72,6.19-5.93,0-10.6-.93-13.99-2.8-3.39-1.87-5.09-4.35-5.09-7.46,0-2.32,.88-4.14,2.63-5.47s3.98-1.99,6.7-1.99c2.37,0,4.46,.54,6.27,1.61,1.07,.56,1.87,1.24,2.37,2.04-1.3,1.13-1.95,2.63-1.95,4.49,0,2.43,1.13,3.65,3.39,3.65,3.79,0,6.75-4.46,8.9-13.4,.62-2.43,1.19-4.86,1.7-7.29-2.54,3.11-6.7,4.66-12.46,4.66-4.01,0-7.18-.96-9.5-2.88-2.32-1.92-3.48-5.14-3.48-9.67,0-2.83,.48-5.83,1.44-9.03,.96-3.19,2.4-6.15,4.32-8.86Zm11.02,18.14c0,3.84,.99,5.77,2.97,5.77,1.36,0,2.68-.73,3.99-2.21,1.02-1.19,1.72-2.66,2.12-4.41l4.32-21.79c-.28-.06-.57-.14-.85-.25-.57-.23-1.22-.34-1.95-.34-3.45,0-6.19,2.83-8.22,8.48-1.58,4.41-2.37,9.33-2.37,14.75Z"/><path class="b" d="M401.46,327.78c-12.43,0-18.65-5.85-18.65-17.55,0-8.31,2.29-15.15,6.87-20.52,4.86-5.71,11.5-8.56,19.92-8.56,6.1,0,10.71,1.41,13.82,4.24,3.11,2.83,4.66,7.21,4.66,13.14,0,9.04-2.43,16.19-7.29,21.45-4.75,5.2-11.19,7.8-19.33,7.8Zm2.21-36.88c-.68,1.53-1.29,3.43-1.82,5.72-.54,2.29-1.14,5.24-1.82,8.86-.68,3.62-1.02,7.66-1.02,12.12,0,1.47,.24,2.69,.72,3.65,.48,.96,1.37,1.44,2.67,1.44s2.36-.31,3.18-.93c.82-.62,1.54-1.67,2.16-3.14,1.13-2.6,2.15-6.32,3.05-11.15,.9-4.83,1.4-8.29,1.48-10.39,.08-2.09,.13-3.91,.13-5.47s-.23-2.84-.68-3.86c-.45-1.02-1.31-1.53-2.59-1.53s-2.33,.4-3.18,1.19c-.85,.79-1.61,1.95-2.29,3.48Z"/></g><g><path class="b" d="M195.39,357.04c.32,.23,.48,.6,.48,1.09s-.11,.92-.32,1.27-.53,.66-.94,.93c-.89,.58-2.12,.86-3.68,.86s-2.76-.41-3.61-1.22-1.27-1.94-1.27-3.38c0-2.04,.53-3.84,1.6-5.39,.81-1.15,1.93-1.97,3.38-2.46,.75-.24,1.49-.37,2.22-.37s1.33,.05,1.78,.15c.45,.1,.85,.25,1.19,.44,.75,.43,1.12,.99,1.12,1.67,0,.62-.29,1.17-.88,1.63-.54,.42-1.03,.62-1.47,.62s-.75-.03-.94-.09c.05-.44,.07-.8,.07-1.09s0-.54-.02-.74-.05-.41-.11-.61c-.12-.45-.37-.68-.74-.68s-.75,.17-1.12,.52-.72,.82-1.04,1.4c-.72,1.33-1.08,2.79-1.08,4.37,0,.76,.21,1.35,.64,1.79,.43,.43,1.1,.65,2.02,.65,.69,0,1.35-.23,2-.68,.28-.2,.53-.42,.73-.68Z"/><path class="b" d="M203.28,360.07c-.59,.76-1.61,1.14-3.06,1.14-.76,0-1.41-.23-1.96-.69-.55-.46-.83-1.02-.83-1.68,0-.37,.02-.64,.06-.83l1.23-6.53,3.72-.37-1.34,7.08c-.05,.27-.07,.48-.07,.64,0,.71,.21,1.06,.64,1.06,.48,0,.89-.32,1.23-.97,.11-.21,.19-.45,.24-.71l1.3-6.73,3.61-.37-1.36,7.16c-.04,.18-.05,.37-.05,.57s.05,.4,.17,.62c.11,.21,.34,.35,.7,.39-.07,.29-.24,.54-.5,.73-.54,.42-1.1,.62-1.68,.62s-1.04-.1-1.39-.31c-.34-.21-.56-.48-.66-.83Z"/><path class="b" d="M213.43,359.83c-.38,.92-1.17,1.38-2.39,1.38-.61,0-1.11-.21-1.5-.64-.32-.35-.48-.73-.48-1.14,0-.92,.21-2.38,.64-4.38l1.34-7.04,3.72-.37-1.78,9.28c-.21,.91-.31,1.52-.31,1.83,0,.7,.25,1.06,.75,1.08Z"/><path class="b" d="M215.28,359c0-.33,.09-.91,.26-1.74l.97-4.95h-1.08l.07-.55c1.47-.44,2.91-1.2,4.33-2.28h.88l-.44,2h1.43l-.17,.83h-1.41l-.94,4.95c-.16,.76-.24,1.27-.24,1.52,0,.59,.26,.94,.77,1.06-.12,.42-.4,.75-.84,.99s-.97,.37-1.6,.37-1.11-.2-1.47-.59c-.35-.39-.53-.93-.53-1.62Z"/><path class="b" d="M226.01,359.83c-.38,.92-1.17,1.38-2.38,1.38-.62,0-1.13-.21-1.52-.64-.33-.38-.5-.76-.5-1.14,0-.99,.23-2.45,.68-4.38l.68-3.56,3.72-.37-1.12,5.8c-.21,.91-.31,1.52-.31,1.83,0,.7,.25,1.06,.75,1.08Zm-2.72-10.9c0-.48,.2-.84,.6-1.1,.4-.26,.88-.38,1.46-.38s1.04,.13,1.38,.38c.35,.26,.52,.62,.52,1.1s-.19,.84-.58,1.08c-.39,.25-.87,.37-1.44,.37s-1.04-.12-1.4-.37c-.36-.24-.54-.61-.54-1.08Z"/><path class="b" d="M234.23,351.79c.4-.45,.95-.68,1.65-.68,.43,0,.81,.12,1.14,.35s.5,.57,.5,1-.07,.88-.2,1.35c-.13,.46-.31,.94-.51,1.41-.42,.93-.91,1.78-1.49,2.55-.81,1.11-1.6,1.96-2.38,2.55-.78,.59-1.59,.88-2.43,.88-.69,0-1.24-.08-1.65-.24-.07-2.57-.16-4.31-.25-5.23-.09-.92-.17-1.63-.25-2.13-.12-.98-.37-1.58-.73-1.82,.28-.24,.56-.42,.83-.52s.7-.16,1.27-.16,1.05,.22,1.46,.67c.4,.45,.65,1.06,.72,1.85,.08,.79,.12,1.66,.12,2.61s-.04,2.01-.11,3.16c.38-.27,.77-.81,1.17-1.63,.55-1.14,.92-2.39,1.12-3.76,.06-.42,.09-.84,.09-1.28s-.02-.75-.07-.94Z"/><path class="b" d="M242.01,361.21c-2.69,0-4.04-1.27-4.04-3.8,0-1.8,.5-3.28,1.49-4.44,1.05-1.24,2.49-1.85,4.31-1.85,1.32,0,2.32,.31,2.99,.92,.67,.61,1.01,1.56,1.01,2.84,0,1.96-.53,3.5-1.58,4.64-1.03,1.13-2.42,1.69-4.18,1.69Zm.48-7.98c-.15,.33-.28,.74-.39,1.24-.12,.5-.25,1.13-.39,1.92-.15,.78-.22,1.66-.22,2.62,0,.32,.05,.58,.16,.79s.3,.31,.58,.31,.51-.07,.69-.2,.33-.36,.47-.68c.24-.56,.46-1.37,.66-2.41,.2-1.04,.3-1.79,.32-2.25,.02-.45,.03-.85,.03-1.18s-.05-.61-.15-.83c-.1-.22-.28-.33-.56-.33s-.5,.09-.69,.26c-.18,.17-.35,.42-.5,.75Z"/><path class="b" d="M256.61,361.21c-1.48,0-2.22-.58-2.22-1.72,.01-.32,.07-.75,.17-1.28l.33-1.69c.33-1.59,.5-2.56,.5-2.92,0-.71-.21-1.06-.62-1.06-.7,0-1.23,.91-1.6,2.73l-1.08,5.58-3.69,.37,1.91-9.74,3.01-.35-.29,1.8c.57-1.2,1.74-1.8,3.5-1.8,.86,0,1.46,.18,1.83,.54,.36,.36,.54,.95,.54,1.75,0,.76-.2,2.02-.59,3.8-.18,.8-.28,1.34-.28,1.64s.08,.54,.25,.71c.17,.17,.37,.27,.61,.29-.12,.42-.39,.75-.82,.99s-.91,.37-1.46,.37Z"/><path class="b" d="M265.84,354.4c.17-.45,.26-.87,.26-1.27,0-.72-.29-1.08-.88-1.08-.31,0-.58,.14-.83,.41-.25,.28-.38,.58-.38,.93,0,.24,.1,.46,.29,.66,.28,.27,.78,.62,1.5,1.06,.72,.44,1.22,.84,1.5,1.2,.28,.36,.41,.79,.41,1.28s-.12,.97-.36,1.42c-.24,.45-.57,.84-1,1.16-.92,.68-2.11,1.03-3.58,1.03-.79,0-1.5-.21-2.11-.62-.61-.4-.92-.84-.92-1.32s.17-.86,.52-1.14,.78-.42,1.29-.42,.93,.1,1.25,.29c-.16,.4-.24,.74-.24,1.01,0,.81,.34,1.21,1.03,1.21,.29,0,.54-.09,.73-.28,.2-.18,.29-.43,.29-.75,0-.62-.53-1.27-1.58-1.93-.86-.56-1.38-.95-1.58-1.17-.33-.39-.5-.83-.5-1.32s.12-.97,.35-1.43,.56-.86,.99-1.19c.89-.68,2.12-1.03,3.67-1.03,.79,0,1.43,.16,1.9,.48,.47,.32,.71,.75,.71,1.28s-.16,.96-.49,1.27-.78,.46-1.37,.46c-.4,0-.7-.07-.9-.2Z"/><path class="b" d="M277.44,359.83c-.38,.92-1.17,1.38-2.39,1.38-.61,0-1.11-.21-1.5-.64-.32-.35-.48-.73-.48-1.14,0-.92,.21-2.38,.64-4.38l1.34-7.04,3.72-.37-1.78,9.28c-.21,.91-.31,1.52-.31,1.83,0,.7,.25,1.06,.75,1.08Z"/><path class="b" d="M279.58,352.35c.94-1.02,1.41-2.16,1.41-3.43,0-.39-.07-.77-.2-1.14,.15-.1,.37-.18,.66-.25,.29-.07,.55-.1,.77-.1,.55,0,.98,.15,1.29,.46,.31,.31,.47,.72,.47,1.24s-.09,.97-.28,1.36-.44,.72-.77,1.02c-.7,.64-1.55,.95-2.57,.95-.2,0-.46-.04-.79-.11Z"/><path class="b" d="M284.31,360.29c-.29-.32-.5-.73-.62-1.23-.13-.5-.19-1.16-.19-1.98s.14-1.6,.42-2.35,.68-1.39,1.19-1.93c1.05-1.13,2.45-1.69,4.18-1.69,.62,0,1.16,.1,1.61,.31l3.14-.31-1.36,7.16c-.04,.15-.05,.35-.05,.62s.08,.49,.25,.66,.37,.27,.61,.29c-.12,.42-.41,.75-.85,.99s-.92,.37-1.42,.37-.92-.09-1.26-.28c-.34-.19-.55-.44-.65-.76-.2,.31-.5,.56-.92,.75-.42,.2-.9,.29-1.46,.29s-1.06-.07-1.51-.22c-.45-.15-.82-.38-1.11-.7Zm3.87-7.45c-.14,.22-.27,.52-.39,.89s-.28,1.06-.49,2.05c-.2,1-.3,1.85-.3,2.56s.05,1.17,.17,1.38c.11,.21,.26,.31,.46,.31,.39,0,.73-.19,1.02-.56,.29-.37,.49-.89,.6-1.55l.97-5.38c-.26-.22-.54-.33-.83-.33s-.54,.05-.72,.15-.34,.26-.48,.48Z"/><path class="b" d="M301.69,351.79c.4-.45,.95-.68,1.65-.68,.43,0,.81,.12,1.14,.35s.5,.57,.5,1-.07,.88-.2,1.35c-.13,.46-.31,.94-.51,1.41-.42,.93-.91,1.78-1.49,2.55-.81,1.11-1.6,1.96-2.38,2.55-.78,.59-1.59,.88-2.43,.88-.69,0-1.24-.08-1.65-.24-.07-2.57-.16-4.31-.25-5.23-.09-.92-.17-1.63-.25-2.13-.12-.98-.37-1.58-.73-1.82,.28-.24,.56-.42,.83-.52s.7-.16,1.27-.16,1.05,.22,1.46,.67c.4,.45,.65,1.06,.72,1.85,.08,.79,.12,1.66,.12,2.61s-.04,2.01-.11,3.16c.38-.27,.77-.81,1.17-1.63,.55-1.14,.92-2.39,1.12-3.76,.06-.42,.09-.84,.09-1.28s-.02-.75-.07-.94Z"/><path class="b" d="M312.9,357.74c.31,.21,.46,.54,.46,1s-.12,.83-.35,1.13c-.23,.29-.54,.54-.92,.73-.78,.4-1.6,.61-2.44,.61s-1.51-.09-2.01-.28c-.5-.18-.91-.45-1.24-.79-.65-.65-.97-1.57-.97-2.75,0-1.85,.5-3.33,1.5-4.46,1.08-1.21,2.55-1.82,4.42-1.82,1.16,0,2.03,.25,2.6,.73,.43,.37,.64,.85,.64,1.45,0,2.15-1.86,3.23-5.58,3.23-.05,.32-.07,.61-.07,.88,0,.56,.12,.95,.38,1.17,.25,.21,.61,.32,1.07,.32s.94-.11,1.44-.32c.5-.21,.85-.49,1.06-.83Zm-3.74-2c.87,0,1.55-.27,2.05-.81,.5-.51,.75-1.18,.75-2,0-.28-.05-.5-.16-.65-.1-.15-.26-.23-.47-.23s-.4,.04-.58,.12c-.18,.08-.36,.25-.54,.52-.45,.61-.81,1.63-1.06,3.04Z"/><path class="b" d="M322.99,361.21c-1.48,0-2.22-.58-2.22-1.72,.01-.32,.07-.75,.17-1.28l.33-1.69c.33-1.59,.5-2.56,.5-2.92,0-.71-.21-1.06-.62-1.06-.7,0-1.23,.91-1.6,2.73l-1.08,5.58-3.69,.37,1.91-9.74,3.01-.35-.29,1.8c.57-1.2,1.74-1.8,3.5-1.8,.86,0,1.46,.18,1.83,.54,.36,.36,.54,.95,.54,1.75,0,.76-.2,2.02-.59,3.8-.18,.8-.28,1.34-.28,1.64s.08,.54,.25,.71c.17,.17,.37,.27,.61,.29-.12,.42-.39,.75-.82,.99s-.91,.37-1.46,.37Z"/><path class="b" d="M331.14,359.83c-.38,.92-1.17,1.38-2.38,1.38-.62,0-1.13-.21-1.52-.64-.33-.38-.5-.76-.5-1.14,0-.99,.23-2.45,.68-4.38l.68-3.56,3.72-.37-1.12,5.8c-.21,.91-.31,1.52-.31,1.83,0,.7,.25,1.06,.75,1.08Zm-2.72-10.9c0-.48,.2-.84,.6-1.1,.4-.26,.88-.38,1.46-.38s1.04,.13,1.38,.38c.35,.26,.52,.62,.52,1.1s-.19,.84-.58,1.08c-.39,.25-.87,.37-1.44,.37s-1.04-.12-1.4-.37c-.36-.24-.54-.61-.54-1.08Z"/><path class="b" d="M338.44,355.68c.44-.78,.66-1.57,.66-2.37,0-.53-.19-.79-.57-.79-.29,0-.59,.25-.9,.75-.32,.5-.53,1.08-.62,1.72l-.95,5.83-3.8,.37,1.87-9.72,3.03-.37-.33,1.85c.6-1.24,1.57-1.85,2.92-1.85,.71,0,1.26,.18,1.64,.55,.38,.37,.58,.93,.58,1.68s-.25,1.37-.74,1.84c-.5,.48-1.17,.71-2.01,.71-.37,0-.62-.07-.77-.22Z"/><path class="b" d="M353.46,357.74c.31,.21,.46,.54,.46,1s-.12,.83-.35,1.13c-.23,.29-.54,.54-.92,.73-.78,.4-1.6,.61-2.44,.61s-1.51-.09-2.01-.28c-.5-.18-.91-.45-1.24-.79-.65-.65-.97-1.57-.97-2.75,0-1.85,.5-3.33,1.5-4.46,1.08-1.21,2.55-1.82,4.42-1.82,1.16,0,2.03,.25,2.61,.73,.43,.37,.64,.85,.64,1.45,0,2.15-1.86,3.23-5.58,3.23-.05,.32-.07,.61-.07,.88,0,.56,.12,.95,.38,1.17,.25,.21,.61,.32,1.07,.32s.94-.11,1.44-.32c.5-.21,.85-.49,1.05-.83Zm-3.74-2c.87,0,1.55-.27,2.06-.81,.5-.51,.75-1.18,.75-2,0-.28-.05-.5-.16-.65-.1-.15-.26-.23-.47-.23s-.4,.04-.58,.12c-.18,.08-.36,.25-.54,.52-.45,.61-.81,1.63-1.06,3.04Z"/><path class="b" d="M363.55,361.21c-1.48,0-2.22-.58-2.22-1.72,.01-.32,.07-.75,.17-1.28l.33-1.69c.33-1.59,.5-2.56,.5-2.92,0-.71-.21-1.06-.62-1.06-.7,0-1.23,.91-1.6,2.73l-1.08,5.58-3.69,.37,1.91-9.74,3.01-.35-.29,1.8c.57-1.2,1.74-1.8,3.5-1.8,.86,0,1.46,.18,1.83,.54s.54,.95,.54,1.75c0,.76-.2,2.02-.59,3.8-.18,.8-.27,1.34-.27,1.64s.08,.54,.25,.71,.37,.27,.62,.29c-.12,.42-.39,.75-.82,.99s-.91,.37-1.46,.37Z"/><path class="b" d="M376.96,360.07c-.59,.76-1.61,1.14-3.06,1.14-.76,0-1.41-.23-1.96-.69-.55-.46-.83-1.02-.83-1.68,0-.37,.02-.64,.05-.83l1.23-6.53,3.72-.37-1.34,7.08c-.05,.27-.07,.48-.07,.64,0,.71,.21,1.06,.64,1.06,.48,0,.89-.32,1.23-.97,.11-.21,.19-.45,.24-.71l1.3-6.73,3.61-.37-1.36,7.16c-.04,.18-.05,.37-.05,.57s.05,.4,.17,.62,.34,.35,.7,.39c-.07,.29-.24,.54-.5,.73-.54,.42-1.1,.62-1.68,.62s-1.04-.1-1.39-.31c-.34-.21-.56-.48-.66-.83Z"/><path class="b" d="M390.48,361.21c-1.48,0-2.22-.58-2.22-1.72,.01-.32,.07-.75,.17-1.28l.33-1.69c.33-1.59,.5-2.56,.5-2.92,0-.71-.21-1.06-.62-1.06-.7,0-1.23,.91-1.6,2.73l-1.08,5.58-3.69,.37,1.91-9.74,3.01-.35-.29,1.8c.57-1.2,1.74-1.8,3.5-1.8,.86,0,1.46,.18,1.83,.54s.54,.95,.54,1.75c0,.76-.2,2.02-.59,3.8-.18,.8-.27,1.34-.27,1.64s.08,.54,.25,.71,.37,.27,.62,.29c-.12,.42-.39,.75-.82,.99s-.91,.37-1.46,.37Z"/><path class="b" d="M407.01,353.21c0,.51-.21,.93-.64,1.25-.43,.32-.99,.48-1.69,.48-.29,0-.53-.04-.7-.13,.13-.32,.22-.68,.27-1.07s.06-.65,.06-.76c0-.51-.18-.77-.53-.77-.25,0-.5,.15-.78,.46-.28,.31-.53,.7-.76,1.17-.51,1.1-.77,2.21-.77,3.32,0,.61,.12,1.05,.35,1.33s.61,.41,1.12,.41c.71,0,1.35-.29,1.91-.88,.16-.18,.28-.38,.37-.59,.46,.24,.7,.7,.7,1.38s-.38,1.25-1.14,1.71c-.78,.46-1.8,.7-3.05,.7-2.48,0-3.72-1.31-3.72-3.94,0-1.92,.54-3.43,1.63-4.53,1.05-1.08,2.54-1.61,4.48-1.61s2.9,.7,2.9,2.09Z"/><path class="b" d="M411.89,359.83c-.38,.92-1.17,1.38-2.38,1.38-.61,0-1.11-.21-1.5-.64-.32-.35-.48-.73-.48-1.14,0-.92,.21-2.38,.64-4.38l1.34-7.04,3.72-.37-1.78,9.28c-.21,.91-.31,1.52-.31,1.83,0,.7,.25,1.06,.75,1.08Z"/><path class="b" d="M417.86,359.83c-.38,.92-1.17,1.38-2.38,1.38-.62,0-1.13-.21-1.52-.64-.33-.38-.5-.76-.5-1.14,0-.99,.23-2.45,.68-4.38l.68-3.56,3.72-.37-1.12,5.8c-.21,.91-.31,1.52-.31,1.83,0,.7,.25,1.06,.75,1.08Zm-2.71-10.9c0-.48,.2-.84,.6-1.1s.88-.38,1.46-.38,1.04,.13,1.38,.38,.52,.62,.52,1.1-.19,.84-.58,1.08c-.39,.25-.87,.37-1.44,.37s-1.04-.12-1.4-.37c-.36-.24-.54-.61-.54-1.08Z"/><path class="b" d="M428.42,353.21c0,.51-.21,.93-.64,1.25-.43,.32-.99,.48-1.69,.48-.29,0-.53-.04-.7-.13,.13-.32,.22-.68,.27-1.07s.06-.65,.06-.76c0-.51-.18-.77-.53-.77-.25,0-.5,.15-.78,.46-.28,.31-.53,.7-.76,1.17-.51,1.1-.77,2.21-.77,3.32,0,.61,.12,1.05,.35,1.33s.61,.41,1.12,.41c.71,0,1.35-.29,1.91-.88,.16-.18,.28-.38,.37-.59,.46,.24,.7,.7,.7,1.38s-.38,1.25-1.14,1.71c-.78,.46-1.8,.7-3.05,.7-2.48,0-3.72-1.31-3.72-3.94,0-1.92,.54-3.43,1.63-4.53,1.05-1.08,2.54-1.61,4.48-1.61s2.9,.7,2.9,2.09Z"/></g></svg>