<?xml version="1.0" encoding="UTF-8"?><svg id="a" xmlns="http://www.w3.org/2000/svg" viewBox="0 0 500 500"><defs><style>.b{fill:#045d28;}</style></defs><path class="b" d="M120.49,364.91l-.41-72.89s6.9-46.5,52.79-81.42c0,0-19.49,29.24-20.71,37.77,0,0,81.62,5.48,82.23-85.48,0,0-84.57,1.62-114.11,90.86l.61-104.16s-.3-18.88,25.89-27.11l76.45,.3s55.43,1.52,71.88,63.35c0,0,15.53,97.16-95.03,95.03,0,0-18.88,2.13-17.67,30.46,0,0-8.43,55.43-61.93,53.3Z"/><path class="b" d="M41.77,239.94s59.7-7.31,82.84,47.21l1.22,31.68s-18.27-38.68-32.89-42.64c0,0,13.1,16.45,13.71,32.89,0,0-51.17-2.44-64.87-69.14Z"/><g><path class="b" d="M222.92,322.18c1.47,1,2.21,2.6,2.21,4.81s-.56,4.01-1.68,5.42c-1.12,1.41-2.59,2.59-4.41,3.53-3.76,1.94-7.67,2.91-11.73,2.91s-7.28-.44-9.66-1.32c-2.38-.88-4.37-2.15-5.95-3.79-3.12-3.12-4.67-7.53-4.67-13.23,0-8.88,2.41-16.02,7.23-21.43,5.17-5.82,12.26-8.73,21.26-8.73,5.59,0,9.76,1.18,12.52,3.53,2.06,1.76,3.09,4.09,3.09,6.97,0,10.35-8.94,15.52-26.81,15.52-.24,1.53-.35,2.94-.35,4.23,0,2.71,.6,4.57,1.81,5.6,1.21,1.03,2.92,1.54,5.16,1.54s4.54-.51,6.92-1.54c2.38-1.03,4.07-2.37,5.07-4.01Zm-17.99-9.61c4.17,0,7.47-1.29,9.88-3.88,2.41-2.47,3.62-5.67,3.62-9.61,0-1.35-.25-2.39-.75-3.13-.5-.73-1.25-1.1-2.25-1.1s-1.93,.19-2.78,.57c-.85,.38-1.72,1.22-2.6,2.51-2.18,2.94-3.88,7.82-5.12,14.64Z"/><path class="b" d="M253.35,338.85c-12.94,0-19.41-6.09-19.41-18.26,0-8.64,2.38-15.76,7.14-21.35,5.06-5.94,11.97-8.91,20.73-8.91,6.35,0,11.14,1.47,14.38,4.41,3.23,2.94,4.85,7.5,4.85,13.67,0,9.41-2.53,16.85-7.59,22.32-4.94,5.41-11.64,8.11-20.11,8.11Zm2.29-38.37c-.71,1.59-1.34,3.57-1.9,5.95-.56,2.38-1.19,5.46-1.9,9.22-.71,3.76-1.06,7.97-1.06,12.61,0,1.53,.25,2.79,.75,3.79,.5,1,1.42,1.5,2.78,1.5s2.46-.32,3.31-.97c.85-.65,1.6-1.73,2.25-3.26,1.18-2.7,2.23-6.57,3.18-11.6,.94-5.03,1.46-8.63,1.54-10.8,.09-2.17,.13-4.07,.13-5.69s-.24-2.95-.71-4.01-1.37-1.59-2.69-1.59-2.43,.41-3.31,1.23c-.88,.82-1.68,2.03-2.38,3.62Z"/><path class="b" d="M305.47,338.85c-12.94,0-19.41-6.09-19.41-18.26,0-8.64,2.38-15.76,7.14-21.35,5.06-5.94,11.97-8.91,20.73-8.91,6.35,0,11.14,1.47,14.38,4.41,3.23,2.94,4.85,7.5,4.85,13.67,0,9.41-2.53,16.85-7.59,22.32-4.94,5.41-11.64,8.11-20.11,8.11Zm2.29-38.37c-.71,1.59-1.34,3.57-1.9,5.95-.56,2.38-1.19,5.46-1.9,9.22-.71,3.76-1.06,7.97-1.06,12.61,0,1.53,.25,2.79,.75,3.79,.5,1,1.42,1.5,2.78,1.5s2.46-.32,3.31-.97c.85-.65,1.6-1.73,2.25-3.26,1.18-2.7,2.23-6.57,3.18-11.6,.94-5.03,1.46-8.63,1.54-10.8,.09-2.17,.13-4.07,.13-5.69s-.24-2.95-.71-4.01-1.37-1.59-2.69-1.59-2.43,.41-3.31,1.23c-.88,.82-1.68,2.03-2.38,3.62Z"/><path class="b" d="M344.64,300.22c2-2.82,4.51-5.17,7.54-7.06,3.03-1.88,6.39-2.82,10.1-2.82s6.44,.59,8.2,1.76l17.29-1.76-6,33.87c-2.06,11.53-5.26,19.55-9.61,24.08-4.18,4.29-10.32,6.44-18.44,6.44-6.17,0-11.03-.97-14.55-2.91s-5.29-4.53-5.29-7.76c0-2.41,.91-4.31,2.73-5.69s4.15-2.07,6.97-2.07c2.47,0,4.64,.56,6.53,1.68,1.12,.59,1.94,1.29,2.47,2.12-1.35,1.18-2.03,2.73-2.03,4.67,0,2.53,1.18,3.79,3.53,3.79,3.94,0,7.03-4.65,9.26-13.94,.65-2.53,1.24-5.06,1.76-7.59-2.65,3.24-6.97,4.85-12.97,4.85-4.18,0-7.47-1-9.88-3-2.41-2-3.62-5.35-3.62-10.06,0-2.94,.5-6.07,1.5-9.39,1-3.32,2.5-6.39,4.5-9.22Zm11.47,18.88c0,4,1.03,6,3.09,6,1.41,0,2.79-.76,4.15-2.29,1.06-1.24,1.79-2.76,2.21-4.59l4.5-22.67c-.29-.06-.59-.15-.88-.26-.59-.23-1.27-.35-2.03-.35-3.59,0-6.44,2.94-8.56,8.82-1.65,4.59-2.47,9.7-2.47,15.35Z"/><path class="b" d="M410.44,338.85c-12.94,0-19.41-6.09-19.41-18.26,0-8.64,2.38-15.76,7.14-21.35,5.06-5.94,11.97-8.91,20.73-8.91,6.35,0,11.14,1.47,14.38,4.41,3.23,2.94,4.85,7.5,4.85,13.67,0,9.41-2.53,16.85-7.59,22.32-4.94,5.41-11.64,8.11-20.11,8.11Zm2.29-38.37c-.71,1.59-1.34,3.57-1.9,5.95-.56,2.38-1.19,5.46-1.9,9.22-.71,3.76-1.06,7.97-1.06,12.61,0,1.53,.25,2.79,.75,3.79,.5,1,1.42,1.5,2.78,1.5s2.46-.32,3.31-.97c.85-.65,1.6-1.73,2.25-3.26,1.18-2.7,2.23-6.57,3.18-11.6,.94-5.03,1.46-8.63,1.54-10.8,.09-2.17,.13-4.07,.13-5.69s-.24-2.95-.71-4.01-1.37-1.59-2.69-1.59-2.43,.41-3.31,1.23c-.88,.82-1.68,2.03-2.38,3.62Z"/></g></svg>