<?xml version="1.0" encoding="UTF-8"?><svg id="a" xmlns="http://www.w3.org/2000/svg" viewBox="0 0 500 500"><defs><style>.b{fill:#fff;}</style></defs><path class="b" d="M143.18,364.72l-.4-71.95s6.81-45.9,52.11-80.37c0,0-19.24,28.86-20.44,37.28,0,0,80.57,5.41,81.17-84.38,0,0-83.47,1.6-112.63,89.69l.6-102.81s-.3-18.64,25.55-26.76l75.46,.3s54.71,1.5,70.95,62.53c0,0,15.33,95.9-93.79,93.79,0,0-18.64,2.1-17.44,30.06,0,0-8.32,54.71-61.13,52.61Z"/><path class="b" d="M65.47,241.37s58.92-7.21,81.77,46.6l1.2,31.26s-18.04-38.18-32.47-42.09c0,0,12.93,16.23,13.53,32.47,0,0-50.5-2.4-64.03-68.24Z"/><g><path class="b" d="M244.28,322.55c1.45,.99,2.18,2.57,2.18,4.75s-.55,3.96-1.65,5.35c-1.1,1.39-2.55,2.55-4.35,3.48-3.71,1.92-7.57,2.87-11.58,2.87s-7.18-.44-9.53-1.31c-2.35-.87-4.31-2.12-5.88-3.74-3.08-3.08-4.61-7.43-4.61-13.06,0-8.76,2.38-15.82,7.14-21.16,5.11-5.75,12.1-8.62,20.98-8.62,5.51,0,9.63,1.16,12.36,3.48,2.03,1.74,3.05,4.04,3.05,6.88,0,10.22-8.82,15.32-26.47,15.32-.23,1.51-.35,2.9-.35,4.18,0,2.67,.59,4.51,1.79,5.53,1.19,1.02,2.89,1.52,5.09,1.52s4.48-.51,6.83-1.52c2.35-1.01,4.02-2.34,5.01-3.96Zm-17.76-9.49c4.12,0,7.37-1.28,9.75-3.83,2.38-2.44,3.57-5.6,3.57-9.49,0-1.33-.25-2.36-.74-3.09-.49-.72-1.23-1.09-2.22-1.09s-1.9,.19-2.74,.57c-.84,.38-1.7,1.21-2.57,2.48-2.15,2.9-3.83,7.72-5.05,14.45Z"/><path class="b" d="M274.32,339c-12.77,0-19.15-6.01-19.15-18.02,0-8.53,2.35-15.55,7.05-21.07,4.99-5.86,11.81-8.79,20.46-8.79,6.27,0,11,1.45,14.19,4.35,3.19,2.9,4.79,7.4,4.79,13.5,0,9.29-2.5,16.63-7.49,22.03-4.88,5.34-11.49,8.01-19.85,8.01Zm2.26-37.87c-.7,1.57-1.32,3.53-1.87,5.88-.55,2.35-1.18,5.38-1.87,9.1-.7,3.72-1.04,7.87-1.04,12.45,0,1.51,.25,2.76,.74,3.74,.49,.99,1.41,1.48,2.74,1.48s2.42-.32,3.26-.96c.84-.64,1.58-1.71,2.22-3.22,1.16-2.67,2.21-6.49,3.13-11.45,.93-4.96,1.44-8.52,1.52-10.67,.09-2.15,.13-4.02,.13-5.62s-.23-2.92-.7-3.96c-.47-1.04-1.35-1.57-2.66-1.57s-2.39,.41-3.26,1.22c-.87,.81-1.65,2-2.35,3.57Z"/><path class="b" d="M325.77,339c-12.77,0-19.15-6.01-19.15-18.02,0-8.53,2.35-15.55,7.05-21.07,4.99-5.86,11.81-8.79,20.46-8.79,6.27,0,11,1.45,14.19,4.35,3.19,2.9,4.79,7.4,4.79,13.5,0,9.29-2.5,16.63-7.49,22.03-4.88,5.34-11.49,8.01-19.85,8.01Zm2.26-37.87c-.7,1.57-1.32,3.53-1.87,5.88-.55,2.35-1.18,5.38-1.87,9.1-.7,3.72-1.04,7.87-1.04,12.45,0,1.51,.25,2.76,.74,3.74,.49,.99,1.41,1.48,2.74,1.48s2.42-.32,3.26-.96c.84-.64,1.58-1.71,2.22-3.22,1.16-2.67,2.21-6.49,3.13-11.45,.93-4.96,1.44-8.52,1.52-10.67,.09-2.15,.13-4.02,.13-5.62s-.23-2.92-.7-3.96c-.47-1.04-1.35-1.57-2.66-1.57s-2.39,.41-3.26,1.22c-.87,.81-1.65,2-2.35,3.57Z"/><path class="b" d="M364.42,300.87c1.97-2.79,4.45-5.11,7.44-6.96,2.99-1.86,6.31-2.79,9.97-2.79s6.36,.58,8.1,1.74l17.06-1.74-5.92,33.43c-2.03,11.38-5.2,19.3-9.49,23.77-4.12,4.24-10.19,6.36-18.2,6.36-6.09,0-10.88-.96-14.37-2.87-3.48-1.92-5.22-4.47-5.22-7.66,0-2.38,.9-4.25,2.7-5.62,1.8-1.36,4.09-2.05,6.88-2.05,2.44,0,4.58,.55,6.44,1.65,1.1,.58,1.92,1.28,2.44,2.09-1.34,1.16-2,2.7-2,4.61,0,2.5,1.16,3.74,3.48,3.74,3.89,0,6.94-4.59,9.14-13.76,.64-2.5,1.22-4.99,1.74-7.49-2.61,3.19-6.88,4.79-12.8,4.79-4.12,0-7.37-.99-9.75-2.96-2.38-1.97-3.57-5.28-3.57-9.92,0-2.9,.49-5.99,1.48-9.27,.99-3.28,2.47-6.31,4.44-9.1Zm11.32,18.63c0,3.95,1.01,5.92,3.05,5.92,1.39,0,2.76-.75,4.09-2.26,1.04-1.22,1.77-2.73,2.18-4.53l4.44-22.38c-.29-.06-.58-.14-.87-.26-.58-.23-1.25-.35-2-.35-3.54,0-6.36,2.9-8.45,8.71-1.62,4.53-2.44,9.58-2.44,15.15Z"/><path class="b" d="M429.37,339c-12.77,0-19.15-6.01-19.15-18.02,0-8.53,2.35-15.55,7.05-21.07,4.99-5.86,11.81-8.79,20.46-8.79,6.27,0,11,1.45,14.19,4.35,3.19,2.9,4.79,7.4,4.79,13.5,0,9.29-2.5,16.63-7.49,22.03-4.88,5.34-11.49,8.01-19.85,8.01Zm2.26-37.87c-.7,1.57-1.32,3.53-1.87,5.88-.55,2.35-1.18,5.38-1.87,9.1-.7,3.72-1.04,7.87-1.04,12.45,0,1.51,.25,2.76,.74,3.74,.49,.99,1.41,1.48,2.74,1.48s2.42-.32,3.26-.96c.84-.64,1.58-1.71,2.22-3.22,1.16-2.67,2.21-6.49,3.13-11.45,.93-4.96,1.44-8.52,1.52-10.67,.09-2.15,.13-4.02,.13-5.62s-.23-2.92-.7-3.96c-.47-1.04-1.35-1.57-2.66-1.57s-2.39,.41-3.26,1.22c-.87,.81-1.65,2-2.35,3.57Z"/></g></svg>