<?xml version="1.0" encoding="UTF-8"?><svg id="a" xmlns="http://www.w3.org/2000/svg" viewBox="0 0 500 500"><defs><style>.b{fill:#b07b5e;}</style></defs><path class="b" d="M123.95,363.96l-.4-72.08s6.83-45.98,52.2-80.51c0,0-19.27,28.91-20.48,37.34,0,0,80.71,5.42,81.31-84.53,0,0-83.62,1.61-112.83,89.85l.6-103s-.3-18.67,25.6-26.8l75.59,.3s54.81,1.51,71.07,62.64c0,0,15.36,96.07-93.96,93.96,0,0-18.67,2.11-17.47,30.12,0,0-8.33,54.81-61.24,52.7Z"/><path class="b" d="M46.11,240.39s59.03-7.23,81.92,46.68l1.2,31.32s-18.07-38.25-32.53-42.16c0,0,12.95,16.26,13.55,32.53,0,0-50.59-2.41-64.15-68.36Z"/><g><path class="b" d="M225.23,321.71c1.45,.99,2.18,2.57,2.18,4.75s-.55,3.97-1.66,5.36c-1.11,1.4-2.56,2.56-4.36,3.49-3.72,1.92-7.59,2.88-11.6,2.88s-7.2-.44-9.55-1.31c-2.35-.87-4.32-2.12-5.89-3.75-3.08-3.08-4.62-7.44-4.62-13.08,0-8.78,2.38-15.84,7.15-21.19,5.12-5.76,12.12-8.63,21.02-8.63,5.52,0,9.65,1.16,12.38,3.49,2.03,1.74,3.05,4.04,3.05,6.89,0,10.23-8.84,15.35-26.51,15.35-.23,1.51-.35,2.91-.35,4.19,0,2.67,.6,4.52,1.79,5.54,1.19,1.02,2.89,1.53,5.1,1.53s4.49-.51,6.85-1.53c2.36-1.02,4.03-2.34,5.02-3.97Zm-17.79-9.51c4.13,0,7.38-1.28,9.77-3.84,2.38-2.44,3.58-5.61,3.58-9.51,0-1.34-.25-2.37-.74-3.1-.5-.73-1.24-1.09-2.22-1.09s-1.9,.19-2.75,.57c-.84,.38-1.7,1.21-2.57,2.49-2.15,2.91-3.84,7.73-5.06,14.48Z"/><path class="b" d="M255.32,338.2c-12.79,0-19.19-6.02-19.19-18.05,0-8.55,2.35-15.58,7.06-21.11,5-5.87,11.83-8.81,20.5-8.81,6.28,0,11.02,1.45,14.22,4.36,3.2,2.91,4.8,7.41,4.8,13.52,0,9.3-2.5,16.66-7.5,22.07-4.88,5.35-11.51,8.02-19.89,8.02Zm2.27-37.94c-.7,1.57-1.32,3.53-1.88,5.89-.55,2.35-1.18,5.39-1.88,9.11-.7,3.72-1.05,7.88-1.05,12.47,0,1.51,.25,2.76,.74,3.75,.49,.99,1.41,1.48,2.75,1.48s2.43-.32,3.27-.96c.84-.64,1.58-1.71,2.22-3.23,1.16-2.67,2.21-6.5,3.14-11.47,.93-4.97,1.44-8.53,1.53-10.68,.09-2.15,.13-4.03,.13-5.62s-.23-2.92-.7-3.97c-.47-1.05-1.35-1.57-2.66-1.57s-2.4,.41-3.27,1.22c-.87,.81-1.66,2.01-2.35,3.58Z"/><path class="b" d="M306.86,338.2c-12.79,0-19.19-6.02-19.19-18.05,0-8.55,2.35-15.58,7.06-21.11,5-5.87,11.83-8.81,20.5-8.81,6.28,0,11.02,1.45,14.22,4.36,3.2,2.91,4.8,7.41,4.8,13.52,0,9.3-2.5,16.66-7.5,22.07-4.88,5.35-11.51,8.02-19.89,8.02Zm2.27-37.94c-.7,1.57-1.32,3.53-1.88,5.89-.55,2.35-1.18,5.39-1.88,9.11-.7,3.72-1.05,7.88-1.05,12.47,0,1.51,.25,2.76,.74,3.75,.49,.99,1.41,1.48,2.75,1.48s2.43-.32,3.27-.96c.84-.64,1.58-1.71,2.22-3.23,1.16-2.67,2.21-6.5,3.14-11.47,.93-4.97,1.44-8.53,1.53-10.68,.09-2.15,.13-4.03,.13-5.62s-.23-2.92-.7-3.97c-.47-1.05-1.35-1.57-2.66-1.57s-2.4,.41-3.27,1.22c-.87,.81-1.66,2.01-2.35,3.58Z"/><path class="b" d="M345.59,300c1.98-2.79,4.46-5.12,7.46-6.98,2.99-1.86,6.32-2.79,9.99-2.79s6.37,.58,8.11,1.74l17.09-1.74-5.93,33.49c-2.04,11.4-5.21,19.33-9.51,23.81-4.13,4.24-10.2,6.37-18.23,6.37-6.1,0-10.9-.96-14.39-2.88s-5.23-4.48-5.23-7.68c0-2.38,.9-4.26,2.7-5.62s4.1-2.05,6.89-2.05c2.44,0,4.59,.55,6.45,1.66,1.1,.58,1.92,1.28,2.44,2.09-1.34,1.16-2.01,2.7-2.01,4.62,0,2.5,1.16,3.75,3.49,3.75,3.9,0,6.95-4.59,9.16-13.78,.64-2.5,1.22-5,1.74-7.5-2.62,3.2-6.89,4.8-12.82,4.8-4.13,0-7.38-.99-9.77-2.97-2.38-1.98-3.58-5.29-3.58-9.94,0-2.91,.49-6,1.48-9.29,.99-3.28,2.47-6.32,4.45-9.11Zm11.34,18.67c0,3.95,1.02,5.93,3.05,5.93,1.4,0,2.76-.75,4.1-2.27,1.05-1.22,1.77-2.73,2.18-4.54l4.45-22.42c-.29-.06-.58-.14-.87-.26-.58-.23-1.25-.35-2.01-.35-3.55,0-6.37,2.91-8.46,8.72-1.63,4.54-2.44,9.59-2.44,15.18Z"/><path class="b" d="M410.65,338.2c-12.79,0-19.19-6.02-19.19-18.05,0-8.55,2.35-15.58,7.06-21.11,5-5.87,11.83-8.81,20.5-8.81,6.28,0,11.02,1.45,14.22,4.36,3.2,2.91,4.8,7.41,4.8,13.52,0,9.3-2.5,16.66-7.5,22.07-4.88,5.35-11.51,8.02-19.89,8.02Zm2.27-37.94c-.7,1.57-1.32,3.53-1.88,5.89-.55,2.35-1.18,5.39-1.88,9.11-.7,3.72-1.05,7.88-1.05,12.47,0,1.51,.25,2.76,.74,3.75,.49,.99,1.41,1.48,2.75,1.48s2.43-.32,3.27-.96c.84-.64,1.58-1.71,2.22-3.23,1.16-2.67,2.21-6.5,3.14-11.47,.93-4.97,1.44-8.53,1.53-10.68,.09-2.15,.13-4.03,.13-5.62s-.23-2.92-.7-3.97c-.47-1.05-1.35-1.57-2.66-1.57s-2.4,.41-3.27,1.22c-.87,.81-1.66,2.01-2.35,3.58Z"/></g></svg>