<?xml version="1.0" encoding="UTF-8"?><svg id="a" xmlns="http://www.w3.org/2000/svg" viewBox="0 0 500 500"><defs><style>.b{fill:#b07b5e;}</style></defs><path class="b" d="M100.12,353.41l-.39-69.79s6.61-44.52,50.55-77.96c0,0-18.66,28-19.83,36.16,0,0,78.15,5.25,78.74-81.85,0,0-80.97,1.56-109.26,87l.58-99.73s-.29-18.08,24.79-25.95l73.2,.29s53.07,1.46,68.82,60.66c0,0,14.87,93.03-90.99,90.98,0,0-18.08,2.04-16.91,29.16,0,0-8.07,53.07-59.3,51.03Z"/><path class="b" d="M24.74,233.76s57.16-7,79.32,45.2l1.17,30.33s-17.5-37.04-31.49-40.83c0,0,12.54,15.75,13.12,31.49,0,0-48.99-2.33-62.11-66.2Z"/><g><path class="b" d="M198.19,312.5c1.41,.96,2.11,2.49,2.11,4.6s-.54,3.84-1.6,5.19c-1.07,1.35-2.48,2.48-4.22,3.38-3.6,1.86-7.35,2.79-11.23,2.79s-6.97-.42-9.25-1.27c-2.28-.84-4.18-2.05-5.7-3.63-2.99-2.98-4.48-7.21-4.48-12.67,0-8.5,2.31-15.34,6.93-20.52,4.95-5.57,11.74-8.36,20.35-8.36,5.35,0,9.35,1.13,11.99,3.38,1.97,1.69,2.96,3.91,2.96,6.67,0,9.91-8.56,14.86-25.67,14.86-.23,1.46-.34,2.82-.34,4.05,0,2.59,.58,4.38,1.73,5.36,1.15,.99,2.8,1.48,4.94,1.48s4.35-.49,6.63-1.48c2.28-.98,3.9-2.27,4.86-3.84Zm-17.23-9.21c4,0,7.15-1.24,9.46-3.72,2.31-2.36,3.46-5.43,3.46-9.21,0-1.29-.24-2.29-.72-3-.48-.7-1.2-1.06-2.15-1.06s-1.84,.18-2.66,.55c-.82,.37-1.65,1.17-2.49,2.41-2.08,2.82-3.72,7.49-4.9,14.02Z"/><path class="b" d="M227.33,328.46c-12.39,0-18.58-5.83-18.58-17.48,0-8.28,2.28-15.09,6.84-20.44,4.84-5.69,11.46-8.53,19.85-8.53,6.08,0,10.67,1.41,13.77,4.22,3.1,2.82,4.65,7.18,4.65,13.09,0,9.01-2.42,16.13-7.26,21.37-4.73,5.18-11.15,7.77-19.26,7.77Zm2.2-36.74c-.67,1.52-1.28,3.42-1.82,5.7-.54,2.28-1.14,5.22-1.82,8.83-.68,3.6-1.01,7.63-1.01,12.08,0,1.46,.24,2.67,.72,3.63,.48,.96,1.36,1.44,2.66,1.44s2.35-.31,3.17-.93c.82-.62,1.53-1.66,2.15-3.12,1.12-2.59,2.14-6.29,3.04-11.11,.9-4.81,1.39-8.26,1.48-10.34,.08-2.08,.13-3.9,.13-5.45s-.23-2.83-.68-3.84c-.45-1.01-1.31-1.52-2.58-1.52s-2.32,.39-3.17,1.18c-.84,.79-1.6,1.94-2.28,3.46Z"/><path class="b" d="M277.24,328.46c-12.39,0-18.58-5.83-18.58-17.48,0-8.28,2.28-15.09,6.84-20.44,4.84-5.69,11.46-8.53,19.85-8.53,6.08,0,10.67,1.41,13.77,4.22,3.1,2.82,4.65,7.18,4.65,13.09,0,9.01-2.42,16.13-7.26,21.37-4.73,5.18-11.15,7.77-19.26,7.77Zm2.2-36.74c-.67,1.52-1.28,3.42-1.82,5.7-.54,2.28-1.14,5.22-1.82,8.83-.68,3.6-1.01,7.63-1.01,12.08,0,1.46,.24,2.67,.72,3.63,.48,.96,1.36,1.44,2.66,1.44s2.35-.31,3.17-.93c.82-.62,1.53-1.66,2.15-3.12,1.12-2.59,2.14-6.29,3.04-11.11,.9-4.81,1.39-8.26,1.48-10.34,.08-2.08,.13-3.9,.13-5.45s-.23-2.83-.68-3.84c-.45-1.01-1.31-1.52-2.58-1.52s-2.32,.39-3.17,1.18c-.84,.79-1.6,1.94-2.28,3.46Z"/><path class="b" d="M314.74,291.47c1.91-2.7,4.32-4.95,7.22-6.76,2.9-1.8,6.12-2.7,9.67-2.7s6.17,.56,7.85,1.69l16.55-1.69-5.74,32.43c-1.97,11.04-5.04,18.72-9.21,23.06-4,4.11-9.88,6.17-17.65,6.17-5.91,0-10.56-.93-13.94-2.79-3.38-1.86-5.07-4.34-5.07-7.43,0-2.31,.87-4.12,2.62-5.45,1.74-1.32,3.97-1.98,6.67-1.98,2.36,0,4.45,.54,6.25,1.6,1.07,.56,1.86,1.24,2.37,2.03-1.3,1.13-1.94,2.62-1.94,4.48,0,2.42,1.12,3.63,3.38,3.63,3.77,0,6.73-4.45,8.87-13.34,.62-2.42,1.18-4.84,1.69-7.26-2.53,3.1-6.67,4.65-12.42,4.65-4,0-7.15-.96-9.46-2.87-2.31-1.91-3.46-5.12-3.46-9.63,0-2.81,.48-5.81,1.44-8.99,.96-3.18,2.39-6.12,4.31-8.83Zm10.98,18.07c0,3.83,.98,5.74,2.96,5.74,1.35,0,2.67-.73,3.97-2.2,1.01-1.18,1.72-2.65,2.11-4.39l4.31-21.7c-.28-.06-.56-.14-.84-.25-.56-.22-1.21-.34-1.94-.34-3.43,0-6.17,2.82-8.19,8.45-1.58,4.39-2.36,9.29-2.36,14.7Z"/><path class="b" d="M377.74,328.46c-12.39,0-18.58-5.83-18.58-17.48,0-8.28,2.28-15.09,6.84-20.44,4.84-5.69,11.46-8.53,19.85-8.53,6.08,0,10.67,1.41,13.77,4.22,3.1,2.82,4.65,7.18,4.65,13.09,0,9.01-2.42,16.13-7.26,21.37-4.73,5.18-11.15,7.77-19.26,7.77Zm2.2-36.74c-.67,1.52-1.28,3.42-1.82,5.7-.54,2.28-1.14,5.22-1.82,8.83-.68,3.6-1.01,7.63-1.01,12.08,0,1.46,.24,2.67,.72,3.63,.48,.96,1.36,1.44,2.66,1.44s2.35-.31,3.17-.93c.82-.62,1.53-1.66,2.15-3.12,1.12-2.59,2.14-6.29,3.04-11.11,.9-4.81,1.39-8.26,1.48-10.34,.08-2.08,.13-3.9,.13-5.45s-.23-2.83-.68-3.84c-.45-1.01-1.31-1.52-2.58-1.52s-2.32,.39-3.17,1.18c-.84,.79-1.6,1.94-2.28,3.46Z"/></g><g><path class="b" d="M172.48,357.61c.32,.23,.47,.59,.47,1.09s-.11,.91-.32,1.26c-.21,.35-.53,.66-.94,.92-.89,.57-2.11,.86-3.66,.86s-2.75-.41-3.6-1.22c-.85-.81-1.27-1.93-1.27-3.37,0-2.03,.53-3.83,1.59-5.37,.8-1.15,1.92-1.96,3.36-2.45,.74-.24,1.48-.37,2.21-.37s1.32,.05,1.77,.15c.45,.1,.85,.24,1.19,.44,.74,.43,1.11,.98,1.11,1.66,0,.62-.29,1.16-.88,1.63-.54,.41-1.02,.62-1.46,.62s-.75-.03-.93-.09c.05-.44,.07-.8,.07-1.09s0-.53-.02-.74c-.01-.21-.05-.41-.11-.6-.12-.45-.37-.68-.74-.68s-.74,.17-1.12,.52c-.37,.35-.72,.81-1.03,1.4-.72,1.33-1.08,2.78-1.08,4.35,0,.76,.21,1.35,.64,1.78,.43,.43,1.1,.65,2.01,.65,.68,0,1.35-.23,1.99-.68,.28-.2,.52-.42,.73-.68Z"/><path class="b" d="M180.33,360.62c-.58,.76-1.6,1.13-3.05,1.13-.76,0-1.41-.23-1.96-.68-.55-.46-.82-1.01-.82-1.67,0-.37,.02-.64,.05-.82l1.22-6.51,3.71-.37-1.33,7.05c-.05,.27-.07,.48-.07,.64,0,.71,.21,1.06,.64,1.06,.48,0,.88-.32,1.22-.97,.11-.21,.19-.44,.24-.71l1.3-6.71,3.6-.37-1.35,7.13c-.04,.18-.05,.37-.05,.57s.05,.4,.16,.61c.11,.21,.34,.34,.69,.39-.07,.29-.24,.54-.49,.73-.54,.41-1.09,.62-1.67,.62s-1.04-.1-1.38-.31c-.34-.21-.56-.48-.66-.82Z"/><path class="b" d="M190.44,360.39c-.38,.91-1.17,1.37-2.38,1.37-.61,0-1.11-.21-1.5-.64-.32-.35-.47-.73-.47-1.13,0-.91,.21-2.37,.64-4.37l1.33-7.02,3.71-.37-1.77,9.25c-.21,.9-.31,1.51-.31,1.83,0,.69,.25,1.05,.75,1.08Z"/><path class="b" d="M192.29,359.56c0-.33,.08-.91,.26-1.74l.97-4.93h-1.08l.07-.55c1.46-.44,2.9-1.19,4.31-2.27h.88l-.44,1.99h1.42l-.16,.82h-1.41l-.93,4.93c-.16,.76-.24,1.26-.24,1.52,0,.58,.26,.94,.77,1.06-.12,.42-.4,.74-.84,.99s-.97,.37-1.59,.37-1.11-.19-1.46-.58c-.35-.39-.53-.93-.53-1.61Z"/><path class="b" d="M202.97,360.39c-.38,.91-1.17,1.37-2.38,1.37-.62,0-1.13-.21-1.52-.64-.33-.38-.49-.75-.49-1.13,0-.99,.23-2.44,.68-4.37l.68-3.55,3.71-.37-1.12,5.77c-.21,.9-.31,1.51-.31,1.83,0,.69,.25,1.05,.75,1.08Zm-2.7-10.86c0-.48,.2-.84,.59-1.1,.4-.26,.88-.38,1.45-.38s1.03,.13,1.38,.38c.35,.26,.52,.62,.52,1.1s-.19,.83-.58,1.08c-.38,.24-.86,.37-1.43,.37s-1.04-.12-1.4-.37c-.36-.24-.54-.6-.54-1.08Z"/><path class="b" d="M211.16,352.38c.4-.45,.95-.68,1.64-.68,.43,0,.8,.12,1.13,.35,.33,.23,.49,.56,.49,1s-.07,.88-.2,1.34c-.13,.46-.3,.93-.51,1.41-.41,.93-.91,1.77-1.48,2.54-.8,1.11-1.59,1.96-2.37,2.54-.77,.58-1.58,.88-2.42,.88-.68,0-1.23-.08-1.64-.24-.07-2.56-.16-4.29-.25-5.21-.09-.91-.17-1.62-.25-2.12-.12-.97-.37-1.58-.73-1.81,.28-.24,.56-.42,.83-.52,.27-.1,.69-.16,1.26-.16s1.05,.22,1.45,.67c.4,.45,.64,1.06,.72,1.85s.12,1.65,.12,2.6-.04,2-.11,3.14c.38-.27,.77-.81,1.17-1.63,.55-1.13,.92-2.38,1.11-3.75,.06-.41,.09-.84,.09-1.28s-.02-.75-.07-.93Z"/><path class="b" d="M218.91,361.76c-2.68,0-4.02-1.26-4.02-3.78,0-1.79,.49-3.27,1.48-4.42,1.05-1.23,2.48-1.85,4.29-1.85,1.32,0,2.31,.3,2.98,.91s1.01,1.55,1.01,2.83c0,1.95-.52,3.49-1.57,4.62-1.02,1.12-2.41,1.68-4.17,1.68Zm.47-7.95c-.15,.33-.28,.74-.39,1.23-.12,.49-.25,1.13-.39,1.91-.15,.78-.22,1.65-.22,2.61,0,.32,.05,.58,.16,.79,.1,.21,.29,.31,.58,.31s.51-.07,.69-.2c.18-.13,.33-.36,.47-.68,.24-.56,.46-1.36,.66-2.4,.2-1.04,.3-1.79,.32-2.24,.02-.45,.03-.84,.03-1.18s-.05-.61-.15-.83c-.1-.22-.28-.33-.56-.33s-.5,.08-.69,.26c-.18,.17-.35,.42-.49,.75Z"/><path class="b" d="M233.46,361.76c-1.47,0-2.21-.57-2.21-1.72,.01-.32,.07-.74,.16-1.28l.33-1.68c.33-1.58,.49-2.55,.49-2.91,0-.71-.21-1.06-.62-1.06-.69,0-1.22,.91-1.59,2.72l-1.08,5.56-3.67,.37,1.9-9.7,3-.35-.29,1.79c.57-1.19,1.74-1.79,3.49-1.79,.85,0,1.46,.18,1.82,.54s.54,.94,.54,1.75c0,.76-.19,2.02-.58,3.78-.18,.79-.27,1.34-.27,1.64s.08,.53,.25,.7c.17,.17,.37,.27,.61,.29-.12,.42-.39,.74-.81,.99-.42,.24-.91,.37-1.45,.37Z"/><path class="b" d="M242.65,354.98c.17-.45,.26-.87,.26-1.26,0-.72-.29-1.08-.88-1.08-.3,0-.58,.14-.83,.41-.25,.27-.38,.58-.38,.92,0,.24,.1,.46,.29,.66,.28,.27,.78,.62,1.5,1.06,.72,.44,1.21,.84,1.49,1.2s.41,.79,.41,1.28-.12,.97-.36,1.42c-.24,.45-.57,.83-1,1.15-.91,.68-2.1,1.02-3.56,1.02-.79,0-1.49-.21-2.1-.62-.61-.4-.91-.84-.91-1.32s.17-.85,.52-1.13c.35-.28,.78-.42,1.29-.42s.93,.1,1.24,.29c-.16,.4-.24,.74-.24,1.01,0,.8,.34,1.21,1.02,1.21,.29,0,.54-.09,.73-.27,.19-.18,.29-.43,.29-.75,0-.62-.52-1.26-1.57-1.92-.85-.56-1.38-.95-1.57-1.17-.33-.39-.49-.83-.49-1.32s.12-.96,.35-1.43c.23-.46,.56-.86,.99-1.19,.89-.68,2.11-1.02,3.66-1.02,.79,0,1.42,.16,1.89,.47,.47,.32,.7,.74,.7,1.28s-.16,.96-.48,1.26c-.32,.3-.78,.46-1.36,.46-.4,0-.7-.07-.9-.2Z"/><path class="b" d="M254.2,360.39c-.38,.91-1.17,1.37-2.38,1.37-.61,0-1.11-.21-1.5-.64-.32-.35-.47-.73-.47-1.13,0-.91,.21-2.37,.64-4.37l1.33-7.02,3.71-.37-1.77,9.25c-.21,.9-.31,1.51-.31,1.83,0,.69,.25,1.05,.75,1.08Z"/><path class="b" d="M256.34,352.93c.94-1.01,1.41-2.15,1.41-3.42,0-.39-.07-.77-.2-1.13,.15-.1,.37-.18,.66-.25,.29-.07,.55-.1,.77-.1,.55,0,.98,.15,1.29,.46,.31,.3,.47,.72,.47,1.23s-.09,.97-.27,1.35c-.18,.38-.44,.72-.77,1.01-.7,.63-1.55,.95-2.56,.95-.2,0-.46-.04-.79-.11Z"/><path class="b" d="M261.04,360.84c-.29-.32-.49-.73-.62-1.22-.13-.5-.19-1.16-.19-1.97s.14-1.6,.42-2.34c.28-.74,.68-1.38,1.19-1.92,1.05-1.12,2.44-1.68,4.17-1.68,.62,0,1.16,.1,1.61,.31l3.12-.31-1.35,7.13c-.04,.15-.05,.35-.05,.62s.08,.49,.25,.66c.17,.17,.37,.27,.61,.29-.12,.42-.41,.74-.85,.99-.45,.24-.92,.37-1.42,.37s-.92-.09-1.25-.28-.55-.44-.65-.76c-.2,.3-.5,.55-.91,.75-.41,.19-.9,.29-1.45,.29s-1.06-.07-1.51-.22c-.45-.15-.82-.38-1.11-.69Zm3.86-7.42c-.14,.22-.27,.51-.39,.89-.12,.37-.28,1.05-.48,2.05-.2,.99-.3,1.84-.3,2.55s.05,1.16,.16,1.37c.11,.21,.26,.31,.46,.31,.39,0,.73-.19,1.01-.56,.29-.37,.48-.89,.59-1.54l.97-5.35c-.26-.22-.53-.33-.83-.33s-.54,.05-.71,.15c-.18,.1-.33,.26-.47,.48Z"/><path class="b" d="M278.36,352.38c.4-.45,.95-.68,1.64-.68,.43,0,.8,.12,1.13,.35,.33,.23,.49,.56,.49,1s-.07,.88-.2,1.34c-.13,.46-.3,.93-.51,1.41-.41,.93-.91,1.77-1.48,2.54-.8,1.11-1.59,1.96-2.37,2.54-.77,.58-1.58,.88-2.42,.88-.68,0-1.23-.08-1.64-.24-.07-2.56-.16-4.29-.25-5.21-.09-.91-.17-1.62-.25-2.12-.12-.97-.37-1.58-.73-1.81,.28-.24,.56-.42,.83-.52,.27-.1,.69-.16,1.26-.16s1.05,.22,1.45,.67c.4,.45,.64,1.06,.72,1.85s.12,1.65,.12,2.6-.04,2-.11,3.14c.38-.27,.77-.81,1.17-1.63,.55-1.13,.92-2.38,1.11-3.75,.06-.41,.09-.84,.09-1.28s-.02-.75-.07-.93Z"/><path class="b" d="M289.52,358.3c.3,.21,.46,.54,.46,1s-.12,.83-.35,1.12c-.23,.29-.54,.54-.91,.73-.78,.4-1.59,.6-2.43,.6s-1.51-.09-2-.27c-.49-.18-.91-.45-1.23-.79-.65-.65-.97-1.56-.97-2.74,0-1.84,.5-3.32,1.5-4.44,1.07-1.21,2.54-1.81,4.4-1.81,1.16,0,2.02,.24,2.59,.73,.43,.37,.64,.85,.64,1.44,0,2.14-1.85,3.22-5.55,3.22-.05,.32-.07,.61-.07,.88,0,.56,.12,.95,.37,1.16s.61,.32,1.07,.32,.94-.11,1.43-.32,.84-.49,1.05-.83Zm-3.73-1.99c.86,0,1.55-.27,2.05-.8,.5-.51,.75-1.17,.75-1.99,0-.28-.05-.5-.16-.65-.1-.15-.26-.23-.47-.23s-.4,.04-.58,.12-.36,.25-.54,.52c-.45,.61-.8,1.62-1.06,3.03Z"/><path class="b" d="M299.57,361.76c-1.47,0-2.21-.57-2.21-1.72,.01-.32,.07-.74,.16-1.28l.33-1.68c.33-1.58,.49-2.55,.49-2.91,0-.71-.21-1.06-.62-1.06-.69,0-1.22,.91-1.59,2.72l-1.08,5.56-3.67,.37,1.9-9.7,3-.35-.29,1.79c.57-1.19,1.74-1.79,3.49-1.79,.85,0,1.46,.18,1.82,.54s.54,.94,.54,1.75c0,.76-.19,2.02-.58,3.78-.18,.79-.27,1.34-.27,1.64s.08,.53,.25,.7c.17,.17,.37,.27,.61,.29-.12,.42-.39,.74-.81,.99-.42,.24-.91,.37-1.45,.37Z"/><path class="b" d="M307.69,360.39c-.38,.91-1.17,1.37-2.38,1.37-.62,0-1.13-.21-1.52-.64-.33-.38-.49-.75-.49-1.13,0-.99,.23-2.44,.68-4.37l.68-3.55,3.71-.37-1.12,5.77c-.21,.9-.31,1.51-.31,1.83,0,.69,.25,1.05,.75,1.08Zm-2.7-10.86c0-.48,.2-.84,.59-1.1,.4-.26,.88-.38,1.45-.38s1.03,.13,1.38,.38c.35,.26,.52,.62,.52,1.1s-.19,.83-.58,1.08c-.38,.24-.86,.37-1.43,.37s-1.04-.12-1.4-.37c-.36-.24-.54-.6-.54-1.08Z"/><path class="b" d="M314.96,356.26c.44-.78,.66-1.57,.66-2.36,0-.52-.19-.79-.57-.79-.29,0-.59,.25-.9,.75-.32,.5-.52,1.07-.62,1.72l-.95,5.81-3.78,.37,1.86-9.69,3.01-.37-.33,1.85c.6-1.23,1.57-1.85,2.91-1.85,.71,0,1.25,.18,1.64,.55,.38,.37,.58,.92,.58,1.67s-.25,1.36-.74,1.84c-.49,.48-1.16,.71-2,.71-.37,0-.62-.07-.77-.22Z"/><path class="b" d="M329.93,358.3c.3,.21,.46,.54,.46,1s-.12,.83-.35,1.12c-.23,.29-.54,.54-.91,.73-.78,.4-1.59,.6-2.43,.6s-1.51-.09-2-.27c-.49-.18-.91-.45-1.23-.79-.65-.65-.97-1.56-.97-2.74,0-1.84,.5-3.32,1.5-4.44,1.07-1.21,2.54-1.81,4.4-1.81,1.16,0,2.02,.24,2.59,.73,.43,.37,.64,.85,.64,1.44,0,2.14-1.85,3.22-5.55,3.22-.05,.32-.07,.61-.07,.88,0,.56,.12,.95,.37,1.16s.61,.32,1.07,.32,.94-.11,1.43-.32,.84-.49,1.05-.83Zm-3.73-1.99c.86,0,1.55-.27,2.05-.8,.5-.51,.75-1.17,.75-1.99,0-.28-.05-.5-.16-.65-.1-.15-.26-.23-.47-.23s-.4,.04-.58,.12-.36,.25-.54,.52c-.45,.61-.8,1.62-1.06,3.03Z"/><path class="b" d="M339.98,361.76c-1.47,0-2.21-.57-2.21-1.72,.01-.32,.07-.74,.16-1.28l.33-1.68c.33-1.58,.49-2.55,.49-2.91,0-.71-.21-1.06-.62-1.06-.69,0-1.22,.91-1.59,2.72l-1.08,5.56-3.67,.37,1.9-9.7,3-.35-.29,1.79c.57-1.19,1.74-1.79,3.49-1.79,.85,0,1.46,.18,1.82,.54s.54,.94,.54,1.75c0,.76-.19,2.02-.58,3.78-.18,.79-.27,1.34-.27,1.64s.08,.53,.25,.7c.17,.17,.37,.27,.61,.29-.12,.42-.39,.74-.81,.99-.42,.24-.91,.37-1.45,.37Z"/><path class="b" d="M353.34,360.62c-.58,.76-1.6,1.13-3.05,1.13-.76,0-1.41-.23-1.96-.68-.55-.46-.82-1.01-.82-1.67,0-.37,.02-.64,.05-.82l1.22-6.51,3.71-.37-1.33,7.05c-.05,.27-.07,.48-.07,.64,0,.71,.21,1.06,.64,1.06,.48,0,.88-.32,1.22-.97,.11-.21,.19-.44,.24-.71l1.3-6.71,3.6-.37-1.35,7.13c-.04,.18-.05,.37-.05,.57s.05,.4,.16,.61c.11,.21,.34,.34,.69,.39-.07,.29-.24,.54-.49,.73-.54,.41-1.09,.62-1.67,.62s-1.04-.1-1.38-.31c-.34-.21-.56-.48-.66-.82Z"/><path class="b" d="M366.81,361.76c-1.47,0-2.21-.57-2.21-1.72,.01-.32,.07-.74,.16-1.28l.33-1.68c.33-1.58,.49-2.55,.49-2.91,0-.71-.21-1.06-.62-1.06-.69,0-1.22,.91-1.59,2.72l-1.08,5.56-3.67,.37,1.9-9.7,3-.35-.29,1.79c.57-1.19,1.74-1.79,3.49-1.79,.85,0,1.46,.18,1.82,.54s.54,.94,.54,1.75c0,.76-.19,2.02-.58,3.78-.18,.79-.27,1.34-.27,1.64s.08,.53,.25,.7c.17,.17,.37,.27,.61,.29-.12,.42-.39,.74-.81,.99-.42,.24-.91,.37-1.45,.37Z"/><path class="b" d="M383.27,353.79c0,.51-.21,.93-.64,1.24-.43,.32-.99,.47-1.68,.47-.29,0-.52-.04-.69-.13,.13-.32,.22-.67,.26-1.07,.04-.4,.06-.65,.06-.76,0-.51-.18-.77-.53-.77-.24,0-.5,.15-.78,.46-.27,.3-.53,.69-.76,1.17-.51,1.1-.77,2.2-.77,3.31,0,.61,.12,1.05,.35,1.32,.23,.27,.6,.41,1.11,.41,.71,0,1.34-.29,1.9-.88,.16-.18,.28-.38,.37-.58,.46,.24,.7,.7,.7,1.37s-.38,1.25-1.13,1.7c-.78,.46-1.79,.69-3.03,.69-2.47,0-3.71-1.31-3.71-3.93,0-1.91,.54-3.42,1.63-4.51,1.05-1.07,2.53-1.61,4.46-1.61s2.89,.69,2.89,2.08Z"/><path class="b" d="M388.13,360.39c-.38,.91-1.17,1.37-2.38,1.37-.61,0-1.11-.21-1.5-.64-.32-.35-.47-.73-.47-1.13,0-.91,.21-2.37,.64-4.37l1.33-7.02,3.71-.37-1.77,9.25c-.21,.9-.31,1.51-.31,1.83,0,.69,.25,1.05,.75,1.08Z"/><path class="b" d="M394.07,360.39c-.38,.91-1.17,1.37-2.38,1.37-.62,0-1.13-.21-1.52-.64-.33-.38-.49-.75-.49-1.13,0-.99,.23-2.44,.68-4.37l.68-3.55,3.71-.37-1.12,5.77c-.21,.9-.31,1.51-.31,1.83,0,.69,.25,1.05,.75,1.08Zm-2.7-10.86c0-.48,.2-.84,.59-1.1,.4-.26,.88-.38,1.45-.38s1.03,.13,1.38,.38c.35,.26,.52,.62,.52,1.1s-.19,.83-.58,1.08c-.38,.24-.86,.37-1.43,.37s-1.04-.12-1.4-.37c-.36-.24-.54-.6-.54-1.08Z"/><path class="b" d="M404.6,353.79c0,.51-.21,.93-.64,1.24-.43,.32-.99,.47-1.68,.47-.29,0-.52-.04-.69-.13,.13-.32,.22-.67,.26-1.07,.04-.4,.06-.65,.06-.76,0-.51-.18-.77-.53-.77-.24,0-.5,.15-.78,.46-.27,.3-.53,.69-.76,1.17-.51,1.1-.77,2.2-.77,3.31,0,.61,.12,1.05,.35,1.32,.23,.27,.6,.41,1.11,.41,.71,0,1.34-.29,1.9-.88,.16-.18,.28-.38,.37-.58,.46,.24,.7,.7,.7,1.37s-.38,1.25-1.13,1.7c-.78,.46-1.79,.69-3.03,.69-2.47,0-3.71-1.31-3.71-3.93,0-1.91,.54-3.42,1.63-4.51,1.05-1.07,2.53-1.61,4.46-1.61s2.89,.69,2.89,2.08Z"/></g></svg>