<?xml version="1.0" encoding="UTF-8"?><svg id="a" xmlns="http://www.w3.org/2000/svg" viewBox="0 0 500 500"><defs><style>.b{fill:#fff;}</style></defs><path class="b" d="M122.31,349.74l-.37-67.29s6.37-42.92,48.73-75.16c0,0-17.99,26.99-19.12,34.86,0,0,75.35,5.06,75.91-78.91,0,0-78.07,1.5-105.34,83.88l.56-96.15s-.28-17.43,23.9-25.02l70.57,.28s51.17,1.41,66.35,58.48c0,0,14.34,89.69-87.72,87.72,0,0-17.43,1.97-16.31,28.11,0,0-7.78,51.17-57.17,49.2Z"/><path class="b" d="M49.64,234.38s55.11-6.75,76.47,43.58l1.12,29.24s-16.87-35.71-30.36-39.36c0,0,12.09,15.18,12.65,30.36,0,0-47.23-2.25-59.88-63.82Z"/><g><path class="b" d="M216.86,310.3c1.36,.92,2.04,2.4,2.04,4.44s-.52,3.71-1.55,5.01c-1.03,1.3-2.39,2.39-4.07,3.26-3.47,1.79-7.08,2.69-10.83,2.69s-6.72-.41-8.92-1.22c-2.2-.81-4.03-1.98-5.5-3.5-2.88-2.88-4.32-6.95-4.32-12.21,0-8.2,2.22-14.79,6.68-19.79,4.78-5.37,11.32-8.06,19.62-8.06,5.16,0,9.01,1.09,11.56,3.26,1.9,1.63,2.85,3.77,2.85,6.43,0,9.55-8.25,14.33-24.75,14.33-.22,1.41-.33,2.71-.33,3.91,0,2.5,.56,4.22,1.67,5.17,1.11,.95,2.7,1.42,4.76,1.42s4.19-.47,6.39-1.42c2.2-.95,3.76-2.18,4.68-3.7Zm-16.61-8.88c3.85,0,6.89-1.19,9.12-3.58,2.22-2.28,3.34-5.24,3.34-8.88,0-1.25-.23-2.21-.69-2.89-.46-.68-1.15-1.02-2.08-1.02s-1.78,.18-2.57,.53c-.79,.35-1.59,1.13-2.4,2.32-2.01,2.71-3.58,7.22-4.72,13.52Z"/><path class="b" d="M244.95,325.69c-11.94,0-17.91-5.62-17.91-16.85,0-7.98,2.2-14.55,6.59-19.7,4.67-5.48,11.05-8.22,19.13-8.22,5.86,0,10.29,1.36,13.27,4.07,2.98,2.71,4.48,6.92,4.48,12.62,0,8.69-2.33,15.55-7,20.6-4.56,5-10.75,7.49-18.56,7.49Zm2.12-35.42c-.65,1.47-1.24,3.3-1.75,5.5s-1.1,5.04-1.75,8.51-.98,7.36-.98,11.64c0,1.41,.23,2.58,.69,3.5,.46,.92,1.32,1.38,2.56,1.38s2.27-.3,3.05-.9c.79-.6,1.48-1.6,2.08-3.01,1.08-2.5,2.06-6.07,2.93-10.71,.87-4.64,1.34-7.96,1.42-9.97,.08-2.01,.12-3.76,.12-5.25s-.22-2.73-.65-3.71c-.44-.98-1.26-1.47-2.48-1.47s-2.24,.38-3.05,1.14c-.81,.76-1.55,1.87-2.2,3.34Z"/><path class="b" d="M293.07,325.69c-11.94,0-17.91-5.62-17.91-16.85,0-7.98,2.2-14.55,6.59-19.7,4.67-5.48,11.05-8.22,19.13-8.22,5.86,0,10.29,1.36,13.27,4.07,2.98,2.71,4.48,6.92,4.48,12.62,0,8.69-2.33,15.55-7,20.6-4.56,5-10.75,7.49-18.56,7.49Zm2.12-35.42c-.65,1.47-1.24,3.3-1.75,5.5s-1.1,5.04-1.75,8.51-.98,7.36-.98,11.64c0,1.41,.23,2.58,.69,3.5,.46,.92,1.32,1.38,2.56,1.38s2.27-.3,3.05-.9c.79-.6,1.48-1.6,2.08-3.01,1.08-2.5,2.06-6.07,2.93-10.71,.87-4.64,1.34-7.96,1.42-9.97,.08-2.01,.12-3.76,.12-5.25s-.22-2.73-.65-3.71c-.44-.98-1.26-1.47-2.48-1.47s-2.24,.38-3.05,1.14c-.81,.76-1.55,1.87-2.2,3.34Z"/><path class="b" d="M329.22,290.03c1.84-2.61,4.17-4.78,6.96-6.51,2.79-1.74,5.9-2.61,9.32-2.61s5.94,.54,7.57,1.63l15.96-1.63-5.54,31.27c-1.9,10.64-4.86,18.05-8.88,22.23-3.85,3.96-9.53,5.94-17.02,5.94-5.7,0-10.18-.9-13.43-2.69-3.26-1.79-4.89-4.18-4.89-7.17,0-2.23,.84-3.98,2.52-5.25s3.83-1.91,6.43-1.91c2.28,0,4.29,.52,6.02,1.55,1.03,.54,1.79,1.19,2.28,1.95-1.25,1.08-1.87,2.52-1.87,4.32,0,2.33,1.08,3.5,3.26,3.5,3.64,0,6.49-4.29,8.55-12.87,.6-2.33,1.14-4.67,1.63-7-2.44,2.99-6.43,4.48-11.97,4.48-3.85,0-6.89-.92-9.12-2.77-2.23-1.84-3.34-4.94-3.34-9.28,0-2.71,.46-5.6,1.38-8.67,.92-3.07,2.31-5.9,4.15-8.51Zm10.58,17.42c0,3.69,.95,5.54,2.85,5.54,1.3,0,2.58-.71,3.83-2.12,.98-1.14,1.66-2.55,2.04-4.23l4.15-20.93c-.27-.05-.54-.13-.81-.24-.54-.22-1.17-.33-1.87-.33-3.31,0-5.94,2.71-7.9,8.14-1.52,4.23-2.28,8.96-2.28,14.17Z"/><path class="b" d="M389.96,325.69c-11.94,0-17.91-5.62-17.91-16.85,0-7.98,2.2-14.55,6.59-19.7,4.67-5.48,11.05-8.22,19.13-8.22,5.86,0,10.29,1.36,13.27,4.07,2.98,2.71,4.48,6.92,4.48,12.62,0,8.69-2.33,15.55-7,20.6-4.56,5-10.75,7.49-18.56,7.49Zm2.12-35.42c-.65,1.47-1.24,3.3-1.75,5.5s-1.1,5.04-1.75,8.51-.98,7.36-.98,11.64c0,1.41,.23,2.58,.69,3.5,.46,.92,1.32,1.38,2.56,1.38s2.27-.3,3.05-.9c.79-.6,1.48-1.6,2.08-3.01,1.08-2.5,2.06-6.07,2.93-10.71,.87-4.64,1.34-7.96,1.42-9.97,.08-2.01,.12-3.76,.12-5.25s-.22-2.73-.65-3.71c-.44-.98-1.26-1.47-2.48-1.47s-2.24,.38-3.05,1.14c-.81,.76-1.55,1.87-2.2,3.34Z"/></g><g><path class="b" d="M192.07,353.79c.31,.22,.46,.57,.46,1.05s-.1,.88-.31,1.22c-.21,.33-.51,.63-.91,.89-.86,.55-2.04,.83-3.53,.83s-2.65-.39-3.47-1.17-1.22-1.86-1.22-3.25c0-1.96,.51-3.69,1.53-5.18,.78-1.1,1.86-1.89,3.24-2.36,.72-.24,1.43-.35,2.13-.35s1.27,.05,1.71,.14c.43,.09,.82,.24,1.15,.42,.72,.41,1.08,.95,1.08,1.6,0,.6-.28,1.12-.85,1.57-.52,.4-.99,.6-1.41,.6s-.72-.03-.9-.09c.05-.42,.07-.77,.07-1.05s0-.51-.02-.71c-.01-.2-.05-.39-.11-.58-.12-.43-.36-.65-.71-.65s-.72,.17-1.07,.5-.69,.78-1,1.35c-.69,1.28-1.04,2.68-1.04,4.19,0,.73,.21,1.3,.62,1.72,.41,.42,1.06,.62,1.94,.62,.66,0,1.3-.22,1.92-.65,.27-.19,.5-.41,.7-.65Z"/><path class="b" d="M199.64,356.69c-.56,.73-1.54,1.09-2.94,1.09-.73,0-1.36-.22-1.88-.66-.53-.44-.79-.98-.79-1.61,0-.35,.02-.62,.05-.79l1.18-6.27,3.58-.35-1.29,6.8c-.05,.26-.07,.46-.07,.62,0,.68,.21,1.02,.62,1.02,.46,0,.85-.31,1.18-.93,.11-.2,.18-.43,.23-.69l1.25-6.47,3.47-.35-1.3,6.87c-.04,.18-.05,.36-.05,.55s.05,.39,.16,.59,.33,.33,.67,.38c-.07,.28-.23,.52-.48,.7-.52,.4-1.05,.6-1.61,.6s-1-.1-1.33-.3c-.33-.2-.54-.46-.63-.79Z"/><path class="b" d="M209.38,356.46c-.36,.88-1.13,1.32-2.29,1.32-.59,0-1.07-.21-1.44-.62-.31-.34-.46-.7-.46-1.09,0-.88,.21-2.28,.62-4.21l1.29-6.77,3.58-.35-1.71,8.92c-.2,.87-.3,1.46-.3,1.76,0,.67,.24,1.02,.72,1.04Z"/><path class="b" d="M211.16,355.67c0-.32,.08-.88,.25-1.67l.93-4.76h-1.04l.07-.53c1.41-.42,2.79-1.15,4.16-2.18h.85l-.42,1.92h1.37l-.16,.79h-1.36l-.9,4.76c-.15,.73-.23,1.22-.23,1.46,0,.56,.25,.91,.74,1.02-.12,.4-.39,.72-.81,.95-.42,.23-.93,.35-1.53,.35s-1.07-.19-1.41-.56c-.34-.38-.51-.89-.51-1.55Z"/><path class="b" d="M221.47,356.46c-.36,.88-1.13,1.32-2.29,1.32-.6,0-1.09-.21-1.46-.62-.32-.36-.48-.73-.48-1.09,0-.95,.22-2.36,.65-4.21l.65-3.42,3.58-.35-1.07,5.57c-.2,.87-.3,1.46-.3,1.76,0,.67,.24,1.02,.72,1.04Zm-2.61-10.47c0-.46,.19-.81,.57-1.06,.38-.25,.85-.37,1.4-.37s1,.12,1.33,.37c.33,.25,.5,.6,.5,1.06s-.18,.8-.55,1.04c-.37,.23-.83,.35-1.38,.35s-1-.12-1.35-.35c-.35-.24-.52-.58-.52-1.04Z"/><path class="b" d="M229.36,348.75c.39-.43,.92-.65,1.58-.65,.41,0,.78,.11,1.09,.33,.32,.22,.48,.54,.48,.96s-.06,.85-.19,1.29c-.13,.45-.29,.9-.49,1.36-.4,.89-.88,1.71-1.43,2.45-.78,1.07-1.54,1.89-2.28,2.45-.75,.56-1.52,.85-2.33,.85-.66,0-1.19-.08-1.58-.23-.07-2.47-.15-4.14-.24-5.02-.09-.88-.17-1.56-.24-2.04-.12-.94-.35-1.52-.7-1.74,.27-.24,.54-.4,.8-.5,.26-.1,.67-.15,1.22-.15s1.01,.21,1.4,.64,.62,1.02,.7,1.78c.08,.76,.11,1.59,.11,2.51s-.04,1.93-.11,3.03c.36-.26,.74-.78,1.13-1.57,.53-1.09,.89-2.3,1.08-3.61,.06-.4,.09-.81,.09-1.23s-.02-.72-.07-.9Z"/><path class="b" d="M236.83,357.79c-2.58,0-3.88-1.22-3.88-3.65,0-1.73,.48-3.15,1.43-4.26,1.01-1.19,2.39-1.78,4.14-1.78,1.27,0,2.23,.29,2.87,.88,.65,.59,.97,1.5,.97,2.73,0,1.88-.51,3.36-1.52,4.46-.99,1.08-2.33,1.62-4.02,1.62Zm.46-7.66c-.14,.32-.27,.71-.38,1.19-.11,.48-.24,1.09-.38,1.84s-.21,1.59-.21,2.52c0,.31,.05,.56,.15,.76,.1,.2,.28,.3,.55,.3s.49-.06,.66-.19c.17-.13,.32-.35,.45-.65,.23-.54,.45-1.31,.63-2.32,.19-1,.29-1.72,.31-2.16s.03-.81,.03-1.14-.05-.59-.14-.8c-.09-.21-.27-.32-.54-.32s-.49,.08-.66,.25c-.18,.17-.33,.41-.48,.72Z"/><path class="b" d="M250.86,357.79c-1.42,0-2.13-.55-2.13-1.66,.01-.31,.06-.72,.16-1.23l.32-1.62c.32-1.53,.48-2.46,.48-2.8,0-.68-.2-1.02-.6-1.02-.67,0-1.18,.88-1.53,2.62l-1.04,5.36-3.54,.35,1.83-9.36,2.89-.33-.28,1.73c.55-1.15,1.67-1.73,3.37-1.73,.82,0,1.41,.17,1.75,.52,.35,.35,.52,.91,.52,1.68,0,.73-.19,1.94-.56,3.65-.18,.76-.26,1.29-.26,1.58s.08,.51,.24,.68c.16,.17,.36,.26,.59,.28-.12,.4-.38,.72-.78,.95s-.87,.35-1.4,.35Z"/><path class="b" d="M259.72,351.25c.16-.43,.25-.84,.25-1.21,0-.69-.28-1.04-.85-1.04-.29,0-.56,.13-.8,.4-.24,.26-.36,.56-.36,.89,0,.24,.09,.45,.28,.63,.27,.26,.75,.6,1.44,1.02s1.17,.81,1.44,1.15c.26,.35,.4,.76,.4,1.23s-.11,.93-.34,1.37c-.23,.43-.55,.8-.96,1.11-.88,.66-2.03,.99-3.44,.99-.76,0-1.44-.2-2.03-.6-.59-.39-.88-.81-.88-1.27s.17-.82,.5-1.09c.33-.27,.75-.41,1.24-.41s.89,.09,1.2,.28c-.15,.39-.23,.71-.23,.97,0,.78,.33,1.16,.99,1.16,.28,0,.52-.09,.71-.26,.19-.18,.28-.42,.28-.72,0-.6-.5-1.22-1.51-1.85-.82-.54-1.33-.92-1.52-1.13-.32-.38-.48-.8-.48-1.27s.11-.93,.33-1.37c.22-.45,.54-.83,.95-1.15,.86-.66,2.03-.99,3.52-.99,.76,0,1.37,.15,1.82,.46s.68,.72,.68,1.23-.16,.92-.47,1.22-.75,.44-1.31,.44c-.39,0-.68-.06-.86-.19Z"/><path class="b" d="M270.85,356.46c-.36,.88-1.13,1.32-2.29,1.32-.59,0-1.07-.21-1.44-.62-.31-.34-.46-.7-.46-1.09,0-.88,.21-2.28,.62-4.21l1.29-6.77,3.58-.35-1.71,8.92c-.2,.87-.3,1.46-.3,1.76,0,.67,.24,1.02,.72,1.04Z"/><path class="b" d="M272.91,349.28c.9-.97,1.36-2.07,1.36-3.29,0-.38-.06-.74-.19-1.09,.14-.09,.35-.17,.63-.24,.28-.06,.53-.1,.74-.1,.53,0,.94,.15,1.24,.44s.45,.69,.45,1.19-.09,.93-.26,1.3c-.18,.37-.42,.7-.74,.98-.67,.61-1.49,.92-2.47,.92-.19,0-.44-.04-.76-.11Z"/><path class="b" d="M277.45,356.91c-.28-.31-.48-.7-.6-1.18s-.18-1.12-.18-1.9,.13-1.54,.41-2.25c.27-.72,.65-1.33,1.14-1.85,1.01-1.08,2.35-1.62,4.02-1.62,.6,0,1.12,.1,1.55,.3l3.01-.3-1.3,6.87c-.04,.14-.05,.34-.05,.6s.08,.47,.24,.63c.16,.17,.36,.26,.59,.28-.12,.4-.39,.72-.82,.95s-.88,.35-1.37,.35-.88-.09-1.21-.27c-.32-.18-.53-.43-.62-.73-.19,.29-.48,.54-.88,.72-.4,.19-.87,.28-1.4,.28s-1.02-.07-1.45-.21c-.43-.14-.79-.36-1.07-.67Zm3.72-7.15c-.13,.21-.26,.5-.38,.85s-.27,1.02-.47,1.97c-.19,.96-.29,1.78-.29,2.46s.05,1.12,.16,1.32c.11,.2,.25,.3,.44,.3,.38,0,.7-.18,.98-.54,.28-.36,.47-.85,.57-1.49l.93-5.16c-.25-.21-.51-.32-.8-.32s-.52,.05-.69,.14c-.17,.09-.32,.25-.46,.46Z"/><path class="b" d="M294.14,348.75c.39-.43,.92-.65,1.58-.65,.41,0,.78,.11,1.09,.33,.32,.22,.48,.54,.48,.96s-.06,.85-.19,1.29c-.13,.45-.29,.9-.49,1.36-.4,.89-.88,1.71-1.43,2.45-.78,1.07-1.54,1.89-2.28,2.45-.75,.56-1.52,.85-2.33,.85-.66,0-1.19-.08-1.58-.23-.07-2.47-.15-4.14-.24-5.02-.09-.88-.17-1.56-.24-2.04-.12-.94-.35-1.52-.7-1.74,.27-.24,.54-.4,.8-.5,.26-.1,.67-.15,1.22-.15s1.01,.21,1.4,.64,.62,1.02,.7,1.78c.08,.76,.11,1.59,.11,2.51s-.04,1.93-.11,3.03c.36-.26,.74-.78,1.13-1.57,.53-1.09,.89-2.3,1.08-3.61,.06-.4,.09-.81,.09-1.23s-.02-.72-.07-.9Z"/><path class="b" d="M304.91,354.46c.29,.2,.44,.52,.44,.96s-.11,.8-.33,1.08c-.22,.28-.52,.52-.88,.7-.75,.39-1.53,.58-2.34,.58s-1.45-.09-1.93-.26c-.48-.18-.87-.43-1.19-.76-.62-.62-.93-1.5-.93-2.64,0-1.77,.48-3.2,1.44-4.28,1.03-1.16,2.45-1.74,4.25-1.74,1.12,0,1.95,.24,2.5,.71,.41,.35,.62,.82,.62,1.39,0,2.07-1.79,3.1-5.36,3.1-.05,.31-.07,.59-.07,.85,0,.54,.12,.91,.36,1.12,.24,.21,.58,.31,1.03,.31s.91-.1,1.38-.31,.81-.47,1.01-.8Zm-3.59-1.92c.83,0,1.49-.26,1.97-.77,.48-.49,.72-1.13,.72-1.92,0-.27-.05-.48-.15-.62-.1-.15-.25-.22-.45-.22s-.38,.04-.55,.11c-.17,.08-.34,.24-.52,.5-.43,.59-.77,1.56-1.02,2.92Z"/><path class="b" d="M314.6,357.79c-1.42,0-2.13-.55-2.13-1.66,.01-.31,.06-.72,.16-1.23l.32-1.62c.32-1.53,.48-2.46,.48-2.8,0-.68-.2-1.02-.6-1.02-.67,0-1.18,.88-1.53,2.62l-1.04,5.36-3.54,.35,1.83-9.36,2.89-.33-.28,1.73c.55-1.15,1.67-1.73,3.37-1.73,.82,0,1.41,.17,1.75,.52,.35,.35,.52,.91,.52,1.68,0,.73-.19,1.94-.56,3.65-.18,.76-.26,1.29-.26,1.58s.08,.51,.24,.68c.16,.17,.36,.26,.59,.28-.12,.4-.38,.72-.78,.95s-.87,.35-1.4,.35Z"/><path class="b" d="M322.42,356.46c-.36,.88-1.13,1.32-2.29,1.32-.6,0-1.09-.21-1.46-.62-.32-.36-.48-.73-.48-1.09,0-.95,.22-2.36,.65-4.21l.65-3.42,3.58-.35-1.07,5.57c-.2,.87-.3,1.46-.3,1.76,0,.67,.24,1.02,.72,1.04Zm-2.61-10.47c0-.46,.19-.81,.57-1.06,.38-.25,.85-.37,1.4-.37s1,.12,1.33,.37c.33,.25,.5,.6,.5,1.06s-.18,.8-.55,1.04c-.37,.23-.83,.35-1.38,.35s-1-.12-1.35-.35c-.35-.24-.52-.58-.52-1.04Z"/><path class="b" d="M329.43,352.48c.42-.75,.63-1.51,.63-2.27,0-.5-.18-.76-.55-.76-.28,0-.57,.24-.86,.72-.31,.48-.5,1.03-.6,1.66l-.92,5.6-3.65,.35,1.8-9.34,2.91-.35-.32,1.78c.58-1.19,1.51-1.78,2.8-1.78,.68,0,1.21,.18,1.58,.53s.56,.89,.56,1.61-.24,1.31-.71,1.77-1.12,.69-1.93,.69c-.35,0-.6-.07-.74-.21Z"/><path class="b" d="M343.86,354.46c.29,.2,.44,.52,.44,.96s-.11,.8-.33,1.08c-.22,.28-.52,.52-.88,.7-.75,.39-1.53,.58-2.34,.58s-1.45-.09-1.93-.26c-.48-.18-.87-.43-1.19-.76-.62-.62-.93-1.5-.93-2.64,0-1.77,.48-3.2,1.44-4.28,1.03-1.16,2.45-1.74,4.25-1.74,1.12,0,1.95,.24,2.5,.71,.41,.35,.62,.82,.62,1.39,0,2.07-1.79,3.1-5.36,3.1-.05,.31-.07,.59-.07,.85,0,.54,.12,.91,.36,1.12,.24,.21,.58,.31,1.03,.31s.91-.1,1.38-.31,.81-.47,1.01-.8Zm-3.59-1.92c.83,0,1.49-.26,1.97-.77,.48-.49,.72-1.13,.72-1.92,0-.27-.05-.48-.15-.62-.1-.15-.25-.22-.45-.22s-.38,.04-.55,.11c-.17,.08-.34,.24-.52,.5-.43,.59-.77,1.56-1.02,2.92Z"/><path class="b" d="M353.55,357.79c-1.42,0-2.13-.55-2.13-1.66,.01-.31,.06-.72,.16-1.23l.32-1.62c.32-1.53,.48-2.46,.48-2.8,0-.68-.2-1.02-.6-1.02-.67,0-1.18,.88-1.53,2.62l-1.04,5.36-3.54,.35,1.83-9.36,2.89-.33-.28,1.73c.55-1.15,1.67-1.73,3.37-1.73,.82,0,1.41,.17,1.75,.52,.35,.35,.52,.91,.52,1.68,0,.73-.19,1.94-.56,3.65-.18,.76-.26,1.29-.26,1.58s.08,.51,.24,.68c.16,.17,.36,.26,.59,.28-.12,.4-.38,.72-.78,.95s-.87,.35-1.4,.35Z"/><path class="b" d="M366.43,356.69c-.56,.73-1.54,1.09-2.94,1.09-.73,0-1.36-.22-1.88-.66-.53-.44-.79-.98-.79-1.61,0-.35,.02-.62,.05-.79l1.18-6.27,3.58-.35-1.29,6.8c-.05,.26-.07,.46-.07,.62,0,.68,.21,1.02,.62,1.02,.46,0,.85-.31,1.18-.93,.11-.2,.18-.43,.23-.69l1.25-6.47,3.47-.35-1.3,6.87c-.04,.18-.05,.36-.05,.55s.05,.39,.16,.59,.33,.33,.67,.38c-.07,.28-.23,.52-.48,.7-.52,.4-1.05,.6-1.61,.6s-1-.1-1.33-.3c-.33-.2-.54-.46-.63-.79Z"/><path class="b" d="M379.42,357.79c-1.42,0-2.13-.55-2.13-1.66,.01-.31,.06-.72,.16-1.23l.32-1.62c.32-1.53,.48-2.46,.48-2.8,0-.68-.2-1.02-.6-1.02-.67,0-1.18,.88-1.53,2.62l-1.04,5.36-3.54,.35,1.83-9.36,2.89-.33-.28,1.73c.55-1.15,1.67-1.73,3.37-1.73,.82,0,1.41,.17,1.75,.52,.35,.35,.52,.91,.52,1.68,0,.73-.19,1.94-.56,3.65-.18,.76-.26,1.29-.26,1.58s.08,.51,.24,.68c.16,.17,.36,.26,.59,.28-.12,.4-.38,.72-.78,.95s-.87,.35-1.4,.35Z"/><path class="b" d="M395.29,350.1c0,.49-.21,.89-.62,1.2-.41,.3-.95,.46-1.62,.46-.28,0-.5-.04-.67-.12,.13-.3,.21-.65,.26-1.03s.06-.63,.06-.73c0-.49-.17-.74-.51-.74-.24,0-.48,.15-.75,.44-.26,.29-.51,.67-.73,1.13-.49,1.06-.74,2.12-.74,3.19,0,.59,.11,1.01,.33,1.28,.22,.26,.58,.4,1.08,.4,.68,0,1.29-.28,1.83-.85,.15-.18,.27-.36,.35-.56,.45,.24,.67,.68,.67,1.32s-.36,1.2-1.09,1.64c-.75,.45-1.73,.67-2.92,.67-2.38,0-3.58-1.26-3.58-3.79,0-1.84,.52-3.29,1.57-4.35,1.01-1.03,2.44-1.55,4.3-1.55s2.78,.67,2.78,2.01Z"/><path class="b" d="M399.98,356.46c-.36,.88-1.13,1.32-2.29,1.32-.59,0-1.07-.21-1.44-.62-.31-.34-.46-.7-.46-1.09,0-.88,.21-2.28,.62-4.21l1.29-6.77,3.58-.35-1.71,8.92c-.2,.87-.3,1.46-.3,1.76,0,.67,.24,1.02,.72,1.04Z"/><path class="b" d="M405.7,356.46c-.36,.88-1.13,1.32-2.29,1.32-.6,0-1.09-.21-1.46-.62-.32-.36-.48-.73-.48-1.09,0-.95,.22-2.36,.65-4.21l.65-3.42,3.58-.35-1.07,5.57c-.2,.87-.3,1.46-.3,1.76,0,.67,.24,1.02,.72,1.04Zm-2.61-10.47c0-.46,.19-.81,.57-1.06,.38-.25,.85-.37,1.4-.37s1,.12,1.33,.37c.33,.25,.5,.6,.5,1.06s-.18,.8-.55,1.04c-.37,.23-.83,.35-1.38,.35s-1-.12-1.35-.35c-.35-.24-.52-.58-.52-1.04Z"/><path class="b" d="M415.85,350.1c0,.49-.21,.89-.62,1.2-.41,.3-.95,.46-1.62,.46-.28,0-.5-.04-.67-.12,.13-.3,.21-.65,.26-1.03s.06-.63,.06-.73c0-.49-.17-.74-.51-.74-.24,0-.48,.15-.75,.44-.26,.29-.51,.67-.73,1.13-.49,1.06-.74,2.12-.74,3.19,0,.59,.11,1.01,.33,1.28,.22,.26,.58,.4,1.08,.4,.68,0,1.29-.28,1.83-.85,.15-.18,.27-.36,.35-.56,.45,.24,.67,.68,.67,1.32s-.36,1.2-1.09,1.64c-.75,.45-1.73,.67-2.92,.67-2.38,0-3.58-1.26-3.58-3.79,0-1.84,.52-3.29,1.57-4.35,1.01-1.03,2.44-1.55,4.3-1.55s2.78,.67,2.78,2.01Z"/></g></svg>