<?xml version="1.0" encoding="UTF-8"?><svg id="a" xmlns="http://www.w3.org/2000/svg" viewBox="0 0 500 500"><defs><style>.b{fill:#045d28;}</style></defs><path class="b" d="M121.3,364.55l-.41-74.02s7.01-47.21,53.6-82.67c0,0-19.79,29.69-21.03,38.35,0,0,82.88,5.57,83.5-86.8,0,0-85.87,1.65-115.87,92.26l.62-105.77s-.31-19.17,26.29-27.52l77.62,.31s56.29,1.55,72.99,64.33c0,0,15.77,98.65-96.49,96.49,0,0-19.17,2.16-17.94,30.93,0,0-8.56,56.28-62.88,54.12Z"/><path class="b" d="M41.37,237.65s60.61-7.42,84.12,47.94l1.24,32.16s-18.56-39.28-33.4-43.3c0,0,13.3,16.7,13.92,33.4,0,0-51.96-2.47-65.87-70.2Z"/><g><path class="b" d="M225.3,321.16c1.49,1.02,2.24,2.64,2.24,4.88s-.57,4.08-1.7,5.51c-1.14,1.43-2.63,2.63-4.48,3.58-3.82,1.97-7.79,2.96-11.91,2.96s-7.39-.45-9.81-1.34c-2.42-.9-4.43-2.18-6.05-3.85-3.17-3.16-4.75-7.64-4.75-13.43,0-9.01,2.45-16.27,7.34-21.76,5.25-5.91,12.45-8.87,21.58-8.87,5.67,0,9.91,1.2,12.72,3.58,2.09,1.79,3.13,4.15,3.13,7.08,0,10.51-9.08,15.76-27.23,15.76-.24,1.55-.36,2.99-.36,4.3,0,2.75,.61,4.64,1.84,5.69,1.22,1.04,2.97,1.57,5.24,1.57s4.61-.52,7.03-1.57c2.42-1.04,4.13-2.4,5.15-4.08Zm-18.27-9.76c4.24,0,7.58-1.31,10.03-3.94,2.45-2.51,3.67-5.76,3.67-9.76,0-1.37-.25-2.43-.76-3.18-.51-.75-1.27-1.12-2.28-1.12s-1.96,.19-2.82,.58c-.87,.39-1.75,1.24-2.64,2.55-2.21,2.99-3.94,7.94-5.19,14.87Z"/><path class="b" d="M256.2,338.09c-13.14,0-19.7-6.18-19.7-18.54,0-8.78,2.42-16,7.25-21.67,5.13-6.03,12.15-9.05,21.05-9.05,6.45,0,11.31,1.49,14.6,4.48,3.28,2.99,4.93,7.61,4.93,13.88,0,9.55-2.57,17.11-7.7,22.66-5.02,5.49-11.82,8.24-20.42,8.24Zm2.33-38.96c-.72,1.61-1.36,3.63-1.93,6.04-.57,2.42-1.21,5.54-1.93,9.36-.72,3.82-1.07,8.09-1.07,12.81,0,1.55,.25,2.84,.76,3.85,.51,1.02,1.45,1.52,2.82,1.52s2.49-.33,3.36-.99c.87-.66,1.63-1.76,2.28-3.31,1.19-2.75,2.27-6.67,3.22-11.78,.95-5.1,1.48-8.76,1.57-10.97,.09-2.21,.13-4.13,.13-5.78s-.24-3-.72-4.08c-.48-1.07-1.39-1.61-2.73-1.61s-2.46,.42-3.36,1.25c-.9,.84-1.7,2.06-2.42,3.67Z"/><path class="b" d="M309.13,338.09c-13.14,0-19.7-6.18-19.7-18.54,0-8.78,2.42-16,7.25-21.67,5.13-6.03,12.15-9.05,21.05-9.05,6.45,0,11.31,1.49,14.6,4.48,3.28,2.99,4.93,7.61,4.93,13.88,0,9.55-2.57,17.11-7.7,22.66-5.02,5.49-11.82,8.24-20.42,8.24Zm2.33-38.96c-.72,1.61-1.36,3.63-1.93,6.04-.57,2.42-1.21,5.54-1.93,9.36-.72,3.82-1.07,8.09-1.07,12.81,0,1.55,.25,2.84,.76,3.85,.51,1.02,1.45,1.52,2.82,1.52s2.49-.33,3.36-.99c.87-.66,1.63-1.76,2.28-3.31,1.19-2.75,2.27-6.67,3.22-11.78,.95-5.1,1.48-8.76,1.57-10.97,.09-2.21,.13-4.13,.13-5.78s-.24-3-.72-4.08c-.48-1.07-1.39-1.61-2.73-1.61s-2.46,.42-3.36,1.25c-.9,.84-1.7,2.06-2.42,3.67Z"/><path class="b" d="M348.9,298.86c2.03-2.87,4.58-5.25,7.66-7.17,3.07-1.91,6.49-2.87,10.25-2.87s6.54,.6,8.33,1.79l17.55-1.79-6.09,34.39c-2.09,11.7-5.34,19.85-9.76,24.45-4.24,4.36-10.48,6.54-18.72,6.54-6.27,0-11.2-.98-14.78-2.96-3.58-1.97-5.37-4.6-5.37-7.88,0-2.45,.93-4.37,2.78-5.78,1.85-1.4,4.21-2.1,7.08-2.1,2.51,0,4.72,.57,6.63,1.7,1.13,.6,1.97,1.31,2.51,2.15-1.38,1.19-2.06,2.78-2.06,4.75,0,2.57,1.19,3.85,3.58,3.85,4,0,7.13-4.72,9.4-14.15,.66-2.57,1.25-5.13,1.79-7.7-2.69,3.28-7.08,4.93-13.17,4.93-4.24,0-7.58-1.01-10.03-3.04-2.45-2.03-3.67-5.43-3.67-10.21,0-2.99,.51-6.17,1.52-9.54,1.01-3.37,2.54-6.49,4.57-9.36Zm11.64,19.17c0,4.06,1.04,6.09,3.13,6.09,1.43,0,2.83-.78,4.21-2.33,1.07-1.25,1.82-2.81,2.24-4.66l4.57-23.02c-.3-.06-.6-.15-.9-.27-.6-.24-1.28-.36-2.06-.36-3.64,0-6.54,2.99-8.69,8.96-1.67,4.66-2.51,9.85-2.51,15.58Z"/><path class="b" d="M415.71,338.09c-13.14,0-19.7-6.18-19.7-18.54,0-8.78,2.42-16,7.25-21.67,5.13-6.03,12.15-9.05,21.05-9.05,6.45,0,11.31,1.49,14.6,4.48,3.28,2.99,4.93,7.61,4.93,13.88,0,9.55-2.57,17.11-7.7,22.66-5.02,5.49-11.82,8.24-20.42,8.24Zm2.33-38.96c-.72,1.61-1.36,3.63-1.93,6.04-.57,2.42-1.21,5.54-1.93,9.36-.72,3.82-1.07,8.09-1.07,12.81,0,1.55,.25,2.84,.76,3.85,.51,1.02,1.45,1.52,2.82,1.52s2.49-.33,3.36-.99c.87-.66,1.63-1.76,2.28-3.31,1.19-2.75,2.27-6.67,3.22-11.78,.95-5.1,1.48-8.76,1.57-10.97,.09-2.21,.13-4.13,.13-5.78s-.24-3-.72-4.08c-.48-1.07-1.39-1.61-2.73-1.61s-2.46,.42-3.36,1.25c-.9,.84-1.7,2.06-2.42,3.67Z"/></g></svg>