<?xml version="1.0" encoding="UTF-8"?><svg id="a" xmlns="http://www.w3.org/2000/svg" viewBox="0 0 500 500"><defs><style>.b{fill:#045d28;}</style></defs><path class="b" d="M130.53,350.52l-.38-68.48s6.49-43.68,49.59-76.49c0,0-18.31,27.47-19.46,35.48,0,0,76.68,5.15,77.25-80.3,0,0-79.45,1.53-107.2,85.36l.57-97.85s-.29-17.74,24.32-25.46l71.82,.29s52.07,1.43,67.52,59.51c0,0,14.59,91.27-89.27,89.27,0,0-17.74,2-16.59,28.61,0,0-7.92,52.07-58.18,50.07Z"/><path class="b" d="M56.57,233.12s56.08-6.87,77.82,44.35l1.14,29.76s-17.17-36.34-30.9-40.06c0,0,12.3,15.45,12.88,30.9,0,0-48.07-2.29-60.94-64.95Z"/><g><path class="b" d="M226.75,310.38c1.38,.94,2.07,2.45,2.07,4.52s-.53,3.77-1.58,5.1c-1.05,1.33-2.43,2.43-4.14,3.31-3.54,1.82-7.21,2.73-11.02,2.73s-6.84-.41-9.07-1.24c-2.24-.83-4.1-2.02-5.59-3.56-2.93-2.93-4.39-7.07-4.39-12.43,0-8.34,2.26-15.05,6.79-20.13,4.86-5.47,11.52-8.2,19.97-8.2,5.25,0,9.17,1.11,11.77,3.31,1.93,1.66,2.9,3.84,2.9,6.55,0,9.72-8.4,14.58-25.19,14.58-.22,1.44-.33,2.76-.33,3.98,0,2.54,.57,4.3,1.7,5.26,1.13,.97,2.75,1.45,4.85,1.45s4.27-.48,6.5-1.45c2.24-.97,3.82-2.22,4.76-3.77Zm-16.9-9.03c3.92,0,7.01-1.21,9.28-3.65,2.26-2.32,3.4-5.33,3.4-9.03,0-1.27-.24-2.25-.7-2.94-.47-.69-1.17-1.04-2.11-1.04s-1.81,.18-2.61,.54c-.8,.36-1.62,1.15-2.44,2.36-2.04,2.76-3.65,7.35-4.81,13.75Z"/><path class="b" d="M255.33,326.04c-12.15,0-18.23-5.72-18.23-17.15,0-8.12,2.24-14.8,6.71-20.05,4.75-5.58,11.24-8.37,19.47-8.37,5.97,0,10.47,1.38,13.51,4.14,3.04,2.76,4.56,7.04,4.56,12.84,0,8.84-2.38,15.83-7.13,20.96-4.64,5.08-10.94,7.62-18.89,7.62Zm2.15-36.04c-.66,1.49-1.26,3.36-1.78,5.59-.53,2.24-1.12,5.12-1.78,8.66s-.99,7.49-.99,11.85c0,1.44,.23,2.62,.7,3.56,.47,.94,1.34,1.41,2.61,1.41s2.31-.3,3.11-.91c.8-.61,1.5-1.63,2.11-3.07,1.1-2.54,2.1-6.17,2.98-10.9,.88-4.72,1.37-8.11,1.45-10.15,.08-2.04,.12-3.83,.12-5.34s-.22-2.78-.66-3.77c-.44-.99-1.28-1.49-2.53-1.49s-2.28,.39-3.11,1.16c-.83,.77-1.58,1.91-2.24,3.4Z"/><path class="b" d="M304.3,326.04c-12.15,0-18.23-5.72-18.23-17.15,0-8.12,2.24-14.8,6.71-20.05,4.75-5.58,11.24-8.37,19.47-8.37,5.97,0,10.47,1.38,13.51,4.14,3.04,2.76,4.56,7.04,4.56,12.84,0,8.84-2.38,15.83-7.13,20.96-4.64,5.08-10.94,7.62-18.89,7.62Zm2.15-36.04c-.66,1.49-1.26,3.36-1.78,5.59-.53,2.24-1.12,5.12-1.78,8.66s-.99,7.49-.99,11.85c0,1.44,.23,2.62,.7,3.56,.47,.94,1.34,1.41,2.61,1.41s2.31-.3,3.11-.91c.8-.61,1.5-1.63,2.11-3.07,1.1-2.54,2.1-6.17,2.98-10.9,.88-4.72,1.37-8.11,1.45-10.15,.08-2.04,.12-3.83,.12-5.34s-.22-2.78-.66-3.77c-.44-.99-1.28-1.49-2.53-1.49s-2.28,.39-3.11,1.16c-.83,.77-1.58,1.91-2.24,3.4Z"/><path class="b" d="M341.09,289.75c1.88-2.65,4.24-4.86,7.08-6.63,2.84-1.77,6.01-2.65,9.49-2.65s6.05,.55,7.71,1.66l16.24-1.66-5.63,31.82c-1.93,10.83-4.94,18.37-9.03,22.62-3.92,4.03-9.7,6.05-17.32,6.05-5.8,0-10.36-.91-13.67-2.73-3.31-1.82-4.97-4.25-4.97-7.29,0-2.27,.86-4.05,2.57-5.34,1.71-1.3,3.89-1.95,6.55-1.95,2.32,0,4.36,.53,6.13,1.57,1.05,.55,1.82,1.21,2.32,1.99-1.27,1.1-1.91,2.57-1.91,4.39,0,2.37,1.1,3.56,3.31,3.56,3.7,0,6.6-4.36,8.7-13.09,.61-2.37,1.16-4.75,1.66-7.13-2.49,3.04-6.55,4.56-12.18,4.56-3.92,0-7.02-.94-9.28-2.82-2.27-1.88-3.4-5.03-3.4-9.45,0-2.76,.47-5.7,1.41-8.82,.94-3.12,2.35-6.01,4.23-8.66Zm10.77,17.73c0,3.76,.97,5.63,2.9,5.63,1.33,0,2.62-.72,3.89-2.16,.99-1.16,1.68-2.6,2.07-4.31l4.23-21.29c-.28-.05-.55-.14-.83-.25-.55-.22-1.19-.33-1.91-.33-3.37,0-6.05,2.76-8.04,8.29-1.55,4.31-2.32,9.11-2.32,14.42Z"/><path class="b" d="M402.91,326.04c-12.15,0-18.23-5.72-18.23-17.15,0-8.12,2.24-14.8,6.71-20.05,4.75-5.58,11.24-8.37,19.47-8.37,5.97,0,10.47,1.38,13.51,4.14,3.04,2.76,4.56,7.04,4.56,12.84,0,8.84-2.38,15.83-7.13,20.96-4.64,5.08-10.94,7.62-18.89,7.62Zm2.15-36.04c-.66,1.49-1.26,3.36-1.78,5.59-.53,2.24-1.12,5.12-1.78,8.66s-.99,7.49-.99,11.85c0,1.44,.23,2.62,.7,3.56,.47,.94,1.34,1.41,2.61,1.41s2.31-.3,3.11-.91c.8-.61,1.5-1.63,2.11-3.07,1.1-2.54,2.1-6.17,2.98-10.9,.88-4.72,1.37-8.11,1.45-10.15,.08-2.04,.12-3.83,.12-5.34s-.22-2.78-.66-3.77c-.44-.99-1.28-1.49-2.53-1.49s-2.28,.39-3.11,1.16c-.83,.77-1.58,1.91-2.24,3.4Z"/></g><g><path class="b" d="M201.52,354.63c.31,.23,.47,.58,.47,1.07s-.11,.9-.31,1.24-.52,.64-.92,.91c-.87,.56-2.07,.84-3.6,.84s-2.7-.4-3.53-1.19c-.83-.79-1.25-1.9-1.25-3.31,0-2,.52-3.75,1.56-5.27,.79-1.12,1.89-1.92,3.3-2.4,.73-.24,1.45-.36,2.17-.36s1.3,.05,1.74,.14c.44,.1,.83,.24,1.17,.43,.73,.42,1.09,.96,1.09,1.63,0,.61-.29,1.14-.86,1.6-.53,.41-1,.61-1.43,.61s-.74-.03-.91-.09c.05-.43,.07-.79,.07-1.07s0-.52-.02-.73c-.01-.2-.05-.4-.11-.59-.12-.44-.36-.66-.73-.66s-.73,.17-1.09,.51c-.37,.34-.7,.8-1.01,1.37-.71,1.3-1.06,2.73-1.06,4.27,0,.74,.21,1.32,.63,1.75,.42,.42,1.08,.64,1.97,.64,.67,0,1.32-.22,1.95-.66,.27-.19,.51-.41,.72-.66Z"/><path class="b" d="M209.23,357.59c-.57,.74-1.57,1.11-2.99,1.11-.74,0-1.38-.22-1.92-.67s-.81-1-.81-1.64c0-.36,.02-.63,.05-.81l1.2-6.38,3.64-.36-1.31,6.92c-.05,.26-.07,.47-.07,.63,0,.69,.21,1.04,.63,1.04,.47,0,.87-.32,1.2-.95,.11-.2,.19-.44,.23-.7l1.27-6.58,3.53-.36-1.33,6.99c-.04,.18-.05,.36-.05,.56s.05,.39,.16,.6,.33,.34,.68,.39c-.07,.29-.23,.53-.48,.72-.53,.41-1.07,.61-1.64,.61s-1.02-.1-1.35-.3c-.33-.2-.55-.47-.65-.81Z"/><path class="b" d="M219.14,357.36c-.37,.9-1.15,1.34-2.33,1.34-.6,0-1.09-.21-1.47-.63-.31-.35-.47-.72-.47-1.11,0-.9,.21-2.32,.63-4.29l1.31-6.88,3.64-.36-1.74,9.07c-.2,.88-.31,1.48-.31,1.79,0,.68,.25,1.03,.74,1.06Z"/><path class="b" d="M220.96,356.55c0-.32,.08-.89,.25-1.7l.95-4.84h-1.06l.07-.54c1.43-.43,2.84-1.17,4.23-2.22h.86l-.43,1.95h1.4l-.16,.81h-1.38l-.91,4.84c-.16,.74-.23,1.24-.23,1.49,0,.57,.25,.92,.75,1.04-.12,.41-.39,.73-.82,.97-.43,.24-.95,.36-1.56,.36s-1.09-.19-1.43-.57c-.35-.38-.52-.91-.52-1.58Z"/><path class="b" d="M231.44,357.36c-.37,.9-1.15,1.34-2.33,1.34-.61,0-1.11-.21-1.49-.63-.32-.37-.48-.74-.48-1.11,0-.97,.22-2.4,.66-4.29l.66-3.48,3.64-.36-1.09,5.67c-.2,.88-.3,1.48-.3,1.79,0,.68,.25,1.03,.74,1.06Zm-2.65-10.65c0-.47,.19-.82,.58-1.08,.39-.25,.86-.38,1.43-.38s1.01,.12,1.35,.38c.34,.25,.51,.61,.51,1.08s-.19,.82-.56,1.06c-.38,.24-.85,.36-1.41,.36s-1.02-.12-1.37-.36c-.35-.24-.53-.59-.53-1.06Z"/><path class="b" d="M239.48,349.5c.39-.44,.93-.66,1.61-.66,.42,0,.79,.11,1.11,.34,.32,.23,.48,.55,.48,.98s-.07,.86-.2,1.32c-.13,.45-.3,.91-.5,1.38-.41,.91-.89,1.74-1.45,2.49-.79,1.09-1.56,1.92-2.32,2.49-.76,.57-1.55,.86-2.38,.86-.67,0-1.21-.08-1.61-.23-.07-2.51-.15-4.21-.24-5.11-.09-.9-.17-1.59-.24-2.08-.12-.96-.36-1.55-.72-1.78,.28-.24,.55-.41,.82-.51,.27-.1,.68-.15,1.24-.15s1.03,.22,1.43,.65c.39,.44,.63,1.04,.71,1.81,.08,.77,.12,1.62,.12,2.55s-.04,1.96-.11,3.08c.37-.26,.75-.79,1.15-1.6,.54-1.11,.9-2.34,1.09-3.68,.06-.41,.09-.83,.09-1.25s-.02-.74-.07-.92Z"/><path class="b" d="M247.08,358.7c-2.63,0-3.95-1.24-3.95-3.71,0-1.76,.48-3.2,1.45-4.34,1.03-1.21,2.43-1.81,4.21-1.81,1.29,0,2.27,.3,2.92,.9s.99,1.52,.99,2.78c0,1.91-.51,3.42-1.54,4.54-1,1.1-2.37,1.65-4.09,1.65Zm.47-7.8c-.14,.32-.27,.73-.39,1.21s-.24,1.11-.38,1.87c-.14,.77-.22,1.62-.22,2.56,0,.31,.05,.57,.15,.77,.1,.2,.29,.31,.57,.31s.5-.07,.67-.2c.17-.13,.33-.35,.46-.66,.24-.55,.45-1.34,.65-2.36,.19-1.02,.3-1.75,.31-2.2,.02-.44,.03-.83,.03-1.16s-.05-.6-.14-.82-.28-.32-.55-.32-.49,.08-.67,.25c-.18,.17-.34,.41-.48,.73Z"/><path class="b" d="M261.35,358.7c-1.45,0-2.17-.56-2.17-1.69,.01-.31,.07-.73,.16-1.25l.32-1.65c.32-1.55,.48-2.5,.48-2.85,0-.69-.2-1.04-.61-1.04-.68,0-1.2,.89-1.56,2.67l-1.06,5.45-3.6,.36,1.87-9.52,2.94-.34-.29,1.76c.56-1.17,1.7-1.76,3.42-1.76,.84,0,1.43,.18,1.78,.53,.35,.35,.53,.92,.53,1.71,0,.74-.19,1.98-.57,3.71-.18,.78-.27,1.31-.27,1.6s.08,.52,.24,.69,.36,.26,.6,.29c-.12,.41-.39,.73-.8,.97s-.89,.36-1.42,.36Z"/><path class="b" d="M270.37,352.05c.17-.44,.25-.85,.25-1.24,0-.71-.29-1.06-.86-1.06-.3,0-.57,.13-.82,.4-.25,.27-.37,.57-.37,.91,0,.24,.1,.45,.29,.65,.27,.26,.76,.61,1.47,1.04,.71,.43,1.19,.82,1.46,1.17,.27,.35,.4,.77,.4,1.25s-.12,.95-.35,1.39c-.23,.44-.56,.82-.98,1.13-.9,.67-2.06,1-3.5,1-.78,0-1.46-.2-2.06-.61-.6-.39-.9-.83-.9-1.29s.17-.84,.51-1.11c.34-.28,.76-.41,1.26-.41s.91,.1,1.22,.29c-.16,.39-.23,.72-.23,.99,0,.79,.33,1.18,1,1.18,.29,0,.53-.09,.72-.27,.19-.18,.29-.42,.29-.73,0-.61-.51-1.24-1.54-1.88-.84-.55-1.35-.93-1.54-1.15-.32-.38-.48-.81-.48-1.29s.11-.94,.34-1.4c.23-.45,.55-.84,.97-1.17,.87-.67,2.07-1,3.59-1,.78,0,1.4,.16,1.86,.47,.46,.31,.69,.73,.69,1.26s-.16,.94-.48,1.24c-.32,.3-.76,.45-1.33,.45-.39,0-.69-.07-.88-.2Z"/><path class="b" d="M281.7,357.36c-.37,.9-1.15,1.34-2.33,1.34-.6,0-1.09-.21-1.47-.63-.31-.35-.47-.72-.47-1.11,0-.9,.21-2.32,.63-4.29l1.31-6.88,3.64-.36-1.74,9.07c-.2,.88-.31,1.48-.31,1.79,0,.68,.25,1.03,.74,1.06Z"/><path class="b" d="M283.8,350.04c.92-.99,1.38-2.11,1.38-3.35,0-.38-.07-.75-.2-1.11,.14-.09,.36-.18,.65-.24,.29-.07,.54-.1,.75-.1,.54,0,.96,.15,1.26,.45s.46,.7,.46,1.21-.09,.95-.27,1.33c-.18,.38-.43,.71-.75,1-.68,.62-1.52,.93-2.51,.93-.19,0-.45-.04-.77-.11Z"/><path class="b" d="M288.42,357.8c-.28-.31-.48-.71-.61-1.2-.13-.49-.19-1.14-.19-1.94s.14-1.57,.41-2.29c.27-.73,.66-1.36,1.17-1.88,1.03-1.1,2.39-1.65,4.09-1.65,.61,0,1.13,.1,1.58,.3l3.07-.3-1.33,6.99c-.04,.14-.05,.35-.05,.61s.08,.48,.24,.65,.36,.26,.6,.29c-.12,.41-.4,.73-.83,.97s-.9,.36-1.39,.36-.9-.09-1.23-.28c-.33-.19-.54-.43-.64-.74-.19,.3-.49,.54-.9,.73-.41,.19-.88,.29-1.43,.29s-1.04-.07-1.48-.21c-.44-.14-.8-.37-1.08-.68Zm3.78-7.28c-.14,.21-.27,.5-.39,.87-.12,.37-.28,1.03-.47,2.01-.2,.97-.3,1.81-.3,2.5s.05,1.14,.16,1.34,.26,.3,.45,.3c.38,0,.71-.18,1-.55,.28-.36,.47-.87,.58-1.51l.95-5.25c-.25-.21-.52-.32-.82-.32s-.53,.05-.7,.14-.33,.25-.47,.47Z"/><path class="b" d="M305.41,349.5c.39-.44,.93-.66,1.61-.66,.42,0,.79,.11,1.11,.34,.32,.23,.48,.55,.48,.98s-.07,.86-.2,1.32c-.13,.45-.3,.91-.5,1.38-.41,.91-.89,1.74-1.45,2.49-.79,1.09-1.56,1.92-2.32,2.49-.76,.57-1.55,.86-2.38,.86-.67,0-1.21-.08-1.61-.23-.07-2.51-.15-4.21-.24-5.11-.09-.9-.17-1.59-.24-2.08-.12-.96-.36-1.55-.72-1.78,.28-.24,.55-.41,.82-.51,.27-.1,.68-.15,1.24-.15s1.03,.22,1.43,.65c.39,.44,.63,1.04,.71,1.81,.08,.77,.12,1.62,.12,2.55s-.04,1.96-.11,3.08c.37-.26,.75-.79,1.15-1.6,.54-1.11,.9-2.34,1.09-3.68,.06-.41,.09-.83,.09-1.25s-.02-.74-.07-.92Z"/><path class="b" d="M316.36,355.31c.3,.2,.45,.53,.45,.98s-.11,.82-.34,1.1c-.23,.29-.53,.53-.9,.72-.76,.39-1.56,.59-2.38,.59s-1.48-.09-1.96-.27c-.48-.18-.89-.44-1.21-.77-.63-.63-.95-1.53-.95-2.69,0-1.8,.49-3.26,1.47-4.36,1.05-1.18,2.49-1.78,4.32-1.78,1.14,0,1.98,.24,2.55,.72,.42,.36,.63,.83,.63,1.42,0,2.1-1.82,3.16-5.45,3.16-.05,.31-.07,.6-.07,.86,0,.55,.12,.93,.37,1.14,.25,.21,.59,.31,1.05,.31s.92-.1,1.41-.31c.48-.21,.83-.48,1.03-.82Zm-3.66-1.95c.85,0,1.52-.26,2.01-.79,.49-.5,.74-1.15,.74-1.95,0-.28-.05-.49-.15-.64-.1-.15-.25-.22-.46-.22s-.39,.04-.56,.12c-.17,.08-.35,.25-.53,.51-.44,.6-.79,1.59-1.04,2.98Z"/><path class="b" d="M326.22,358.7c-1.45,0-2.17-.56-2.17-1.69,.01-.31,.07-.73,.16-1.25l.32-1.65c.32-1.55,.48-2.5,.48-2.85,0-.69-.2-1.04-.61-1.04-.68,0-1.2,.89-1.56,2.67l-1.06,5.45-3.6,.36,1.87-9.52,2.94-.34-.29,1.76c.56-1.17,1.7-1.76,3.42-1.76,.84,0,1.43,.18,1.78,.53,.35,.35,.53,.92,.53,1.71,0,.74-.19,1.98-.57,3.71-.18,.78-.27,1.31-.27,1.6s.08,.52,.24,.69,.36,.26,.6,.29c-.12,.41-.39,.73-.8,.97s-.89,.36-1.42,.36Z"/><path class="b" d="M334.18,357.36c-.37,.9-1.15,1.34-2.33,1.34-.61,0-1.11-.21-1.49-.63-.32-.37-.48-.74-.48-1.11,0-.97,.22-2.4,.66-4.29l.66-3.48,3.64-.36-1.09,5.67c-.2,.88-.3,1.48-.3,1.79,0,.68,.25,1.03,.74,1.06Zm-2.65-10.65c0-.47,.19-.82,.58-1.08,.39-.25,.86-.38,1.43-.38s1.01,.12,1.35,.38c.34,.25,.51,.61,.51,1.08s-.19,.82-.56,1.06c-.38,.24-.85,.36-1.41,.36s-1.02-.12-1.37-.36c-.35-.24-.53-.59-.53-1.06Z"/><path class="b" d="M341.32,353.3c.43-.76,.65-1.54,.65-2.31,0-.51-.19-.77-.56-.77-.29,0-.58,.25-.88,.74-.31,.49-.51,1.05-.61,1.68l-.93,5.7-3.71,.36,1.83-9.5,2.96-.36-.32,1.81c.59-1.21,1.54-1.81,2.85-1.81,.69,0,1.23,.18,1.61,.54,.38,.36,.56,.91,.56,1.64s-.24,1.34-.73,1.8c-.48,.47-1.14,.7-1.96,.7-.36,0-.61-.07-.75-.21Z"/><path class="b" d="M356,355.31c.3,.2,.45,.53,.45,.98s-.11,.82-.34,1.1c-.23,.29-.53,.53-.9,.72-.76,.39-1.56,.59-2.38,.59s-1.48-.09-1.96-.27c-.48-.18-.89-.44-1.21-.77-.63-.63-.95-1.53-.95-2.69,0-1.8,.49-3.26,1.47-4.36,1.05-1.18,2.49-1.78,4.32-1.78,1.14,0,1.98,.24,2.55,.72,.42,.36,.63,.83,.63,1.42,0,2.1-1.82,3.16-5.45,3.16-.05,.31-.07,.6-.07,.86,0,.55,.12,.93,.37,1.14,.25,.21,.59,.31,1.05,.31s.92-.1,1.41-.31c.48-.21,.83-.48,1.03-.82Zm-3.66-1.95c.85,0,1.52-.26,2.01-.79,.49-.5,.74-1.15,.74-1.95,0-.28-.05-.49-.15-.64-.1-.15-.25-.22-.46-.22s-.39,.04-.56,.12c-.17,.08-.35,.25-.53,.51-.44,.6-.79,1.59-1.04,2.98Z"/><path class="b" d="M365.87,358.7c-1.45,0-2.17-.56-2.17-1.69,.01-.31,.07-.73,.16-1.25l.32-1.65c.32-1.55,.48-2.5,.48-2.85,0-.69-.2-1.04-.61-1.04-.68,0-1.2,.89-1.56,2.67l-1.06,5.45-3.6,.36,1.87-9.52,2.94-.34-.29,1.76c.56-1.17,1.7-1.76,3.42-1.76,.84,0,1.43,.18,1.78,.53,.35,.35,.53,.92,.53,1.71,0,.74-.19,1.98-.57,3.71-.18,.78-.27,1.31-.27,1.6s.08,.52,.24,.69,.36,.26,.6,.29c-.12,.41-.39,.73-.8,.97s-.89,.36-1.42,.36Z"/><path class="b" d="M378.97,357.59c-.57,.74-1.57,1.11-2.99,1.11-.74,0-1.38-.22-1.92-.67s-.81-1-.81-1.64c0-.36,.02-.63,.05-.81l1.2-6.38,3.64-.36-1.31,6.92c-.05,.26-.07,.47-.07,.63,0,.69,.21,1.04,.63,1.04,.47,0,.87-.32,1.2-.95,.11-.2,.19-.44,.23-.7l1.27-6.58,3.53-.36-1.33,6.99c-.04,.18-.05,.36-.05,.56s.05,.39,.16,.6,.33,.34,.68,.39c-.07,.29-.23,.53-.48,.72-.53,.41-1.07,.61-1.64,.61s-1.02-.1-1.35-.3c-.33-.2-.55-.47-.65-.81Z"/><path class="b" d="M392.19,358.7c-1.45,0-2.17-.56-2.17-1.69,.01-.31,.07-.73,.16-1.25l.32-1.65c.32-1.55,.48-2.5,.48-2.85,0-.69-.2-1.04-.61-1.04-.68,0-1.2,.89-1.56,2.67l-1.06,5.45-3.6,.36,1.87-9.52,2.94-.34-.29,1.76c.56-1.17,1.7-1.76,3.42-1.76,.84,0,1.43,.18,1.78,.53,.35,.35,.53,.92,.53,1.71,0,.74-.19,1.98-.57,3.71-.18,.78-.27,1.31-.27,1.6s.08,.52,.24,.69,.36,.26,.6,.29c-.12,.41-.39,.73-.8,.97s-.89,.36-1.42,.36Z"/><path class="b" d="M408.34,350.88c0,.5-.21,.91-.63,1.22-.42,.31-.97,.47-1.65,.47-.29,0-.51-.04-.68-.13,.13-.31,.22-.66,.26-1.05,.04-.39,.06-.64,.06-.74,0-.5-.17-.75-.52-.75-.24,0-.49,.15-.76,.45-.27,.3-.52,.68-.74,1.15-.5,1.08-.75,2.16-.75,3.25,0,.6,.11,1.03,.34,1.3,.23,.27,.59,.4,1.09,.4,.69,0,1.31-.29,1.87-.86,.15-.18,.27-.37,.36-.57,.45,.24,.68,.69,.68,1.34s-.37,1.23-1.11,1.67c-.76,.45-1.76,.68-2.98,.68-2.43,0-3.64-1.28-3.64-3.85,0-1.88,.53-3.35,1.6-4.43,1.03-1.05,2.49-1.58,4.38-1.58s2.83,.68,2.83,2.04Z"/><path class="b" d="M413.11,357.36c-.37,.9-1.15,1.34-2.33,1.34-.6,0-1.09-.21-1.47-.63-.31-.35-.47-.72-.47-1.11,0-.9,.21-2.32,.63-4.29l1.31-6.88,3.64-.36-1.74,9.07c-.2,.88-.31,1.48-.31,1.79,0,.68,.25,1.03,.74,1.06Z"/><path class="b" d="M418.94,357.36c-.37,.9-1.15,1.34-2.33,1.34-.61,0-1.11-.21-1.49-.63-.32-.37-.48-.74-.48-1.11,0-.97,.22-2.4,.66-4.29l.66-3.48,3.64-.36-1.09,5.67c-.2,.88-.3,1.48-.3,1.79,0,.68,.25,1.03,.74,1.06Zm-2.65-10.65c0-.47,.19-.82,.58-1.08,.39-.25,.86-.38,1.43-.38s1.01,.12,1.35,.38c.34,.25,.51,.61,.51,1.08s-.19,.82-.56,1.06c-.38,.24-.85,.36-1.41,.36s-1.02-.12-1.37-.36c-.35-.24-.53-.59-.53-1.06Z"/><path class="b" d="M429.27,350.88c0,.5-.21,.91-.63,1.22-.42,.31-.97,.47-1.65,.47-.29,0-.51-.04-.68-.13,.13-.31,.22-.66,.26-1.05,.04-.39,.06-.64,.06-.74,0-.5-.17-.75-.52-.75-.24,0-.49,.15-.76,.45-.27,.3-.52,.68-.74,1.15-.5,1.08-.75,2.16-.75,3.25,0,.6,.11,1.03,.34,1.3,.23,.27,.59,.4,1.09,.4,.69,0,1.31-.29,1.87-.86,.15-.18,.27-.37,.36-.57,.45,.24,.68,.69,.68,1.34s-.37,1.23-1.11,1.67c-.76,.45-1.76,.68-2.98,.68-2.43,0-3.64-1.28-3.64-3.85,0-1.88,.53-3.35,1.6-4.43,1.03-1.05,2.49-1.58,4.38-1.58s2.83,.68,2.83,2.04Z"/></g></svg>