<?xml version="1.0" encoding="UTF-8"?><svg id="a" xmlns="http://www.w3.org/2000/svg" viewBox="0 0 500 500"><defs><style>.b{fill:#fff;}</style></defs><path class="b" d="M122.69,367.9l-.41-73.73s6.98-47.03,53.39-82.35c0,0-19.72,29.57-20.95,38.2,0,0,82.56,5.54,83.17-86.46,0,0-85.53,1.64-115.42,91.9l.62-105.35s-.31-19.1,26.18-27.42l77.32,.31s56.06,1.54,72.7,64.07c0,0,15.71,98.27-96.11,96.11,0,0-19.1,2.16-17.87,30.8,0,0-8.52,56.06-62.64,53.91Z"/><path class="b" d="M43.06,241.5s60.38-7.39,83.79,47.75l1.23,32.04s-18.48-39.12-33.27-43.13c0,0,13.25,16.63,13.86,33.27,0,0-51.75-2.46-65.61-69.93Z"/><g><path class="b" d="M226.28,324.69c1.49,1.01,2.23,2.63,2.23,4.86s-.57,4.06-1.7,5.49c-1.13,1.43-2.62,2.62-4.46,3.57-3.81,1.96-7.76,2.94-11.87,2.94s-7.36-.45-9.77-1.34c-2.41-.89-4.42-2.17-6.02-3.84-3.15-3.15-4.73-7.61-4.73-13.38,0-8.98,2.44-16.21,7.32-21.68,5.23-5.89,12.4-8.83,21.5-8.83,5.65,0,9.87,1.19,12.67,3.57,2.08,1.78,3.12,4.13,3.12,7.05,0,10.47-9.04,15.7-27.12,15.7-.24,1.55-.36,2.97-.36,4.28,0,2.74,.61,4.62,1.83,5.67,1.22,1.04,2.96,1.56,5.22,1.56s4.59-.52,7-1.56c2.41-1.04,4.12-2.39,5.13-4.06Zm-18.2-9.72c4.22,0,7.55-1.31,9.99-3.93,2.44-2.5,3.66-5.74,3.66-9.72,0-1.37-.25-2.42-.76-3.17-.51-.74-1.26-1.12-2.27-1.12s-1.95,.19-2.81,.58c-.86,.39-1.74,1.24-2.63,2.54-2.2,2.98-3.92,7.91-5.17,14.81Z"/><path class="b" d="M257.06,341.55c-13.08,0-19.63-6.16-19.63-18.47,0-8.74,2.41-15.94,7.23-21.59,5.11-6.01,12.1-9.01,20.96-9.01,6.42,0,11.27,1.49,14.54,4.46,3.27,2.97,4.91,7.58,4.91,13.83,0,9.52-2.56,17.04-7.67,22.57-5,5.47-11.78,8.21-20.34,8.21Zm2.32-38.81c-.71,1.61-1.35,3.61-1.92,6.02-.57,2.41-1.2,5.52-1.92,9.32-.71,3.81-1.07,8.06-1.07,12.76,0,1.55,.25,2.83,.76,3.84,.5,1.01,1.44,1.52,2.81,1.52s2.48-.33,3.34-.98c.86-.65,1.62-1.75,2.28-3.3,1.19-2.74,2.26-6.65,3.21-11.73,.95-5.08,1.47-8.73,1.56-10.93,.09-2.2,.13-4.12,.13-5.75s-.24-2.99-.71-4.06c-.48-1.07-1.38-1.61-2.72-1.61s-2.45,.42-3.34,1.25c-.89,.83-1.7,2.05-2.41,3.66Z"/><path class="b" d="M309.78,341.55c-13.08,0-19.63-6.16-19.63-18.47,0-8.74,2.41-15.94,7.23-21.59,5.11-6.01,12.1-9.01,20.96-9.01,6.42,0,11.27,1.49,14.54,4.46,3.27,2.97,4.91,7.58,4.91,13.83,0,9.52-2.56,17.04-7.67,22.57-5,5.47-11.78,8.21-20.34,8.21Zm2.32-38.81c-.71,1.61-1.35,3.61-1.92,6.02-.57,2.41-1.2,5.52-1.92,9.32-.71,3.81-1.07,8.06-1.07,12.76,0,1.55,.25,2.83,.76,3.84,.5,1.01,1.44,1.52,2.81,1.52s2.48-.33,3.34-.98c.86-.65,1.62-1.75,2.28-3.3,1.19-2.74,2.26-6.65,3.21-11.73,.95-5.08,1.47-8.73,1.56-10.93,.09-2.2,.13-4.12,.13-5.75s-.24-2.99-.71-4.06c-.48-1.07-1.38-1.61-2.72-1.61s-2.45,.42-3.34,1.25c-.89,.83-1.7,2.05-2.41,3.66Z"/><path class="b" d="M349.39,302.47c2.02-2.86,4.56-5.23,7.63-7.14,3.06-1.9,6.47-2.85,10.21-2.85s6.51,.6,8.3,1.78l17.49-1.78-6.07,34.26c-2.08,11.66-5.32,19.77-9.72,24.35-4.22,4.34-10.44,6.51-18.65,6.51-6.24,0-11.15-.98-14.72-2.94s-5.35-4.58-5.35-7.85c0-2.44,.92-4.36,2.77-5.75,1.84-1.4,4.19-2.1,7.05-2.1,2.5,0,4.7,.57,6.6,1.7,1.13,.59,1.96,1.31,2.5,2.14-1.37,1.19-2.05,2.77-2.05,4.73,0,2.56,1.19,3.84,3.57,3.84,3.98,0,7.11-4.7,9.37-14.1,.65-2.56,1.25-5.11,1.78-7.67-2.68,3.27-7.05,4.91-13.11,4.91-4.22,0-7.55-1.01-9.99-3.03-2.44-2.02-3.66-5.41-3.66-10.17,0-2.97,.5-6.14,1.52-9.5,1.01-3.36,2.53-6.47,4.55-9.32Zm11.6,19.09c0,4.04,1.04,6.07,3.12,6.07,1.43,0,2.82-.77,4.19-2.32,1.07-1.25,1.81-2.79,2.23-4.64l4.55-22.93c-.3-.06-.6-.15-.89-.27-.59-.24-1.28-.36-2.05-.36-3.63,0-6.51,2.98-8.65,8.92-1.67,4.64-2.5,9.81-2.5,15.52Z"/><path class="b" d="M415.94,341.55c-13.08,0-19.63-6.16-19.63-18.47,0-8.74,2.41-15.94,7.23-21.59,5.11-6.01,12.1-9.01,20.96-9.01,6.42,0,11.27,1.49,14.54,4.46,3.27,2.97,4.91,7.58,4.91,13.83,0,9.52-2.56,17.04-7.67,22.57-5,5.47-11.78,8.21-20.34,8.21Zm2.32-38.81c-.71,1.61-1.35,3.61-1.92,6.02-.57,2.41-1.2,5.52-1.92,9.32-.71,3.81-1.07,8.06-1.07,12.76,0,1.55,.25,2.83,.76,3.84,.5,1.01,1.44,1.52,2.81,1.52s2.48-.33,3.34-.98c.86-.65,1.62-1.75,2.28-3.3,1.19-2.74,2.26-6.65,3.21-11.73,.95-5.08,1.47-8.73,1.56-10.93,.09-2.2,.13-4.12,.13-5.75s-.24-2.99-.71-4.06c-.48-1.07-1.38-1.61-2.72-1.61s-2.45,.42-3.34,1.25c-.89,.83-1.7,2.05-2.41,3.66Z"/></g></svg>