<?xml version="1.0" encoding="UTF-8"?><svg id="a" xmlns="http://www.w3.org/2000/svg" viewBox="0 0 500 500"><defs><style>.b{fill:#b07b5e;}.c{fill:#045d28;}</style></defs><path class="b" d="M132.02,351.5l-.39-69.34s6.57-44.23,50.22-77.46c0,0-18.54,27.81-19.7,35.93,0,0,77.65,5.22,78.23-81.32,0,0-80.45,1.55-108.56,86.44l.58-99.09s-.29-17.96,24.63-25.79l72.72,.29s52.73,1.45,68.38,60.27c0,0,14.78,92.43-90.4,90.4,0,0-17.96,2.03-16.8,28.97,0,0-8.02,52.73-58.91,50.7Z"/><path class="b" d="M58.13,232.61s56.79-6.95,78.81,44.91l1.16,30.13s-17.38-36.8-31.29-40.56c0,0,12.46,15.65,13.04,31.29,0,0-48.68-2.32-61.71-65.77Z"/><g><path class="b" d="M230.46,310.85c1.4,.95,2.1,2.48,2.1,4.57s-.53,3.82-1.59,5.16c-1.06,1.34-2.46,2.46-4.2,3.36-3.58,1.85-7.3,2.77-11.16,2.77s-6.92-.42-9.19-1.26c-2.27-.84-4.15-2.04-5.66-3.61-2.97-2.96-4.45-7.16-4.45-12.59,0-8.45,2.29-15.24,6.88-20.39,4.92-5.54,11.66-8.31,20.22-8.31,5.31,0,9.29,1.12,11.92,3.36,1.96,1.68,2.94,3.89,2.94,6.63,0,9.85-8.5,14.77-25.51,14.77-.22,1.46-.34,2.8-.34,4.03,0,2.57,.57,4.35,1.72,5.33,1.15,.98,2.78,1.47,4.91,1.47s4.32-.49,6.59-1.47c2.27-.98,3.87-2.25,4.83-3.82Zm-17.12-9.15c3.97,0,7.1-1.23,9.4-3.69,2.29-2.35,3.44-5.4,3.44-9.15,0-1.29-.24-2.28-.71-2.98-.48-.7-1.19-1.05-2.14-1.05s-1.83,.18-2.64,.54c-.81,.36-1.64,1.16-2.48,2.39-2.07,2.8-3.69,7.44-4.87,13.93Z"/><path class="b" d="M259.41,326.71c-12.31,0-18.46-5.79-18.46-17.37,0-8.22,2.27-14.99,6.8-20.31,4.81-5.65,11.38-8.47,19.72-8.47,6.04,0,10.6,1.4,13.68,4.2,3.08,2.8,4.62,7.13,4.62,13.01,0,8.95-2.41,16.03-7.22,21.23-4.7,5.15-11.08,7.72-19.13,7.72Zm2.18-36.5c-.67,1.51-1.27,3.4-1.8,5.66-.53,2.27-1.13,5.19-1.8,8.77-.67,3.58-1.01,7.58-1.01,12,0,1.46,.24,2.66,.71,3.61,.47,.95,1.36,1.43,2.64,1.43s2.33-.31,3.15-.92c.81-.62,1.52-1.65,2.14-3.1,1.12-2.57,2.13-6.25,3.02-11.03,.89-4.78,1.38-8.21,1.47-10.28,.08-2.07,.13-3.87,.13-5.41s-.22-2.81-.67-3.82c-.45-1.01-1.3-1.51-2.56-1.51s-2.31,.39-3.15,1.17c-.84,.78-1.59,1.93-2.27,3.44Z"/><path class="b" d="M309,326.71c-12.31,0-18.46-5.79-18.46-17.37,0-8.22,2.27-14.99,6.8-20.31,4.81-5.65,11.38-8.47,19.72-8.47,6.04,0,10.6,1.4,13.68,4.2,3.08,2.8,4.62,7.13,4.62,13.01,0,8.95-2.41,16.03-7.22,21.23-4.7,5.15-11.08,7.72-19.13,7.72Zm2.18-36.5c-.67,1.51-1.27,3.4-1.8,5.66-.53,2.27-1.13,5.19-1.8,8.77-.67,3.58-1.01,7.58-1.01,12,0,1.46,.24,2.66,.71,3.61,.47,.95,1.36,1.43,2.64,1.43s2.33-.31,3.15-.92c.81-.62,1.52-1.65,2.14-3.1,1.12-2.57,2.13-6.25,3.02-11.03,.89-4.78,1.38-8.21,1.47-10.28,.08-2.07,.13-3.87,.13-5.41s-.22-2.81-.67-3.82c-.45-1.01-1.3-1.51-2.56-1.51s-2.31,.39-3.15,1.17c-.84,.78-1.59,1.93-2.27,3.44Z"/><path class="b" d="M346.25,289.96c1.9-2.69,4.29-4.92,7.17-6.71,2.88-1.79,6.08-2.68,9.61-2.68s6.12,.56,7.8,1.68l16.45-1.68-5.71,32.22c-1.96,10.96-5.01,18.6-9.15,22.91-3.97,4.08-9.82,6.13-17.54,6.13-5.87,0-10.49-.92-13.84-2.77-3.36-1.85-5.03-4.31-5.03-7.38,0-2.29,.87-4.1,2.6-5.41s3.94-1.97,6.63-1.97c2.35,0,4.42,.53,6.21,1.59,1.06,.56,1.85,1.23,2.35,2.01-1.29,1.12-1.93,2.6-1.93,4.45,0,2.41,1.12,3.61,3.36,3.61,3.75,0,6.68-4.42,8.81-13.26,.62-2.4,1.17-4.81,1.68-7.22-2.52,3.08-6.63,4.62-12.33,4.62-3.97,0-7.11-.95-9.4-2.85-2.29-1.9-3.44-5.09-3.44-9.57,0-2.8,.47-5.78,1.43-8.94,.95-3.16,2.38-6.08,4.28-8.77Zm10.91,17.96c0,3.8,.98,5.71,2.94,5.71,1.34,0,2.66-.73,3.94-2.18,1.01-1.17,1.71-2.63,2.1-4.36l4.28-21.56c-.28-.05-.56-.14-.84-.25-.56-.22-1.2-.33-1.93-.33-3.41,0-6.13,2.8-8.14,8.39-1.57,4.36-2.35,9.23-2.35,14.6Z"/><path class="b" d="M408.85,326.71c-12.31,0-18.46-5.79-18.46-17.37,0-8.22,2.27-14.99,6.8-20.31,4.81-5.65,11.38-8.47,19.72-8.47,6.04,0,10.6,1.4,13.68,4.2,3.08,2.8,4.62,7.13,4.62,13.01,0,8.95-2.41,16.03-7.22,21.23-4.7,5.15-11.08,7.72-19.13,7.72Zm2.18-36.5c-.67,1.51-1.27,3.4-1.8,5.66-.53,2.27-1.13,5.19-1.8,8.77-.67,3.58-1.01,7.58-1.01,12,0,1.46,.24,2.66,.71,3.61,.47,.95,1.36,1.43,2.64,1.43s2.33-.31,3.15-.92c.81-.62,1.52-1.65,2.14-3.1,1.12-2.57,2.13-6.25,3.02-11.03,.89-4.78,1.38-8.21,1.47-10.28,.08-2.07,.13-3.87,.13-5.41s-.22-2.81-.67-3.82c-.45-1.01-1.3-1.51-2.56-1.51s-2.31,.39-3.15,1.17c-.84,.78-1.59,1.93-2.27,3.44Z"/></g><g><path class="c" d="M204.91,355.66c.31,.23,.47,.59,.47,1.08s-.11,.91-.32,1.25c-.21,.35-.52,.65-.94,.92-.88,.57-2.1,.85-3.64,.85s-2.74-.4-3.58-1.21c-.84-.8-1.26-1.92-1.26-3.35,0-2.02,.53-3.8,1.58-5.34,.8-1.14,1.91-1.95,3.34-2.43,.74-.24,1.47-.36,2.2-.36s1.31,.05,1.76,.15c.45,.1,.84,.24,1.18,.44,.74,.42,1.11,.97,1.11,1.65,0,.62-.29,1.16-.87,1.62-.53,.41-1.02,.62-1.45,.62s-.74-.03-.93-.09c.05-.44,.07-.8,.07-1.08s0-.53-.02-.74c-.01-.21-.05-.41-.11-.6-.12-.45-.37-.67-.74-.67s-.74,.17-1.11,.52c-.37,.34-.71,.81-1.03,1.39-.71,1.32-1.07,2.76-1.07,4.32,0,.75,.21,1.34,.64,1.77s1.09,.64,2,.64c.68,0,1.34-.22,1.98-.67,.28-.19,.52-.42,.73-.67Z"/><path class="c" d="M212.71,358.66c-.58,.75-1.59,1.13-3.03,1.13-.75,0-1.4-.23-1.94-.68-.54-.45-.82-1.01-.82-1.66,0-.36,.02-.63,.05-.82l1.22-6.46,3.69-.36-1.33,7.01c-.05,.27-.07,.48-.07,.63,0,.7,.21,1.05,.64,1.05,.47,0,.88-.32,1.22-.96,.11-.21,.19-.44,.24-.71l1.29-6.66,3.58-.36-1.34,7.08c-.04,.18-.05,.37-.05,.56s.05,.4,.16,.61c.11,.21,.34,.34,.69,.39-.07,.29-.24,.53-.49,.73-.53,.41-1.09,.62-1.66,.62s-1.03-.1-1.37-.31c-.34-.21-.56-.48-.65-.82Z"/><path class="c" d="M222.76,358.42c-.38,.91-1.16,1.36-2.36,1.36-.61,0-1.1-.21-1.49-.64-.31-.35-.47-.73-.47-1.13,0-.91,.21-2.35,.63-4.34l1.33-6.97,3.69-.36-1.76,9.19c-.21,.9-.31,1.5-.31,1.82,0,.69,.25,1.05,.75,1.07Z"/><path class="c" d="M224.59,357.61c0-.33,.08-.9,.25-1.73l.96-4.9h-1.07l.07-.54c1.45-.44,2.88-1.19,4.29-2.25h.87l-.44,1.98h1.42l-.16,.82h-1.4l-.93,4.9c-.16,.75-.24,1.25-.24,1.51,0,.58,.25,.93,.76,1.05-.12,.41-.4,.74-.83,.98s-.96,.36-1.58,.36-1.1-.19-1.45-.58c-.35-.39-.53-.92-.53-1.6Z"/><path class="c" d="M235.21,358.42c-.38,.91-1.16,1.36-2.36,1.36-.62,0-1.12-.21-1.51-.64-.33-.38-.49-.75-.49-1.13,0-.98,.22-2.43,.67-4.34l.67-3.52,3.69-.36-1.11,5.74c-.21,.9-.31,1.5-.31,1.82,0,.69,.25,1.05,.74,1.07Zm-2.69-10.79c0-.47,.2-.83,.59-1.09,.39-.25,.87-.38,1.44-.38s1.03,.13,1.37,.38c.34,.25,.52,.62,.52,1.09s-.19,.83-.57,1.07-.86,.36-1.43,.36-1.03-.12-1.39-.36-.54-.6-.54-1.07Z"/><path class="c" d="M243.35,350.47c.4-.45,.94-.67,1.63-.67,.42,0,.8,.12,1.12,.34,.33,.23,.49,.56,.49,.99s-.07,.88-.2,1.33c-.13,.46-.3,.93-.51,1.4-.41,.92-.9,1.76-1.47,2.52-.8,1.1-1.58,1.94-2.35,2.52s-1.57,.87-2.41,.87c-.68,0-1.22-.08-1.63-.24-.07-2.54-.15-4.27-.25-5.17-.09-.91-.17-1.61-.25-2.11-.12-.97-.36-1.57-.73-1.8,.28-.24,.55-.42,.83-.52s.69-.15,1.25-.15,1.04,.22,1.44,.66c.4,.44,.64,1.05,.72,1.83,.08,.78,.12,1.64,.12,2.59s-.04,1.99-.11,3.12c.38-.27,.76-.8,1.16-1.62,.54-1.13,.91-2.37,1.11-3.72,.06-.41,.09-.83,.09-1.27s-.02-.74-.07-.93Z"/><path class="c" d="M251.04,359.78c-2.66,0-3.99-1.25-3.99-3.76,0-1.78,.49-3.24,1.47-4.39,1.04-1.22,2.46-1.83,4.27-1.83,1.31,0,2.29,.3,2.96,.91,.67,.61,1,1.54,1,2.81,0,1.94-.52,3.47-1.56,4.59-1.02,1.11-2.4,1.67-4.14,1.67Zm.47-7.9c-.15,.33-.28,.74-.39,1.23s-.25,1.12-.39,1.9-.22,1.64-.22,2.6c0,.31,.05,.58,.15,.78,.1,.21,.29,.31,.57,.31s.5-.07,.68-.2,.33-.36,.46-.67c.24-.56,.46-1.35,.65-2.39,.19-1.04,.3-1.78,.32-2.22,.02-.45,.03-.84,.03-1.17s-.05-.61-.15-.83-.28-.33-.55-.33-.5,.08-.68,.25c-.18,.17-.35,.42-.49,.74Z"/><path class="c" d="M265.5,359.78c-1.46,0-2.2-.57-2.2-1.71,.01-.31,.07-.74,.16-1.27l.33-1.67c.33-1.57,.49-2.54,.49-2.89,0-.7-.21-1.05-.62-1.05-.69,0-1.22,.9-1.58,2.71l-1.07,5.52-3.65,.36,1.89-9.64,2.98-.34-.29,1.78c.57-1.19,1.72-1.78,3.47-1.78,.85,0,1.45,.18,1.81,.54,.36,.36,.54,.94,.54,1.73,0,.75-.19,2-.58,3.76-.18,.79-.27,1.33-.27,1.62s.08,.53,.25,.7c.16,.17,.37,.27,.61,.29-.12,.41-.39,.74-.81,.98s-.9,.36-1.44,.36Z"/><path class="c" d="M274.63,353.05c.17-.45,.25-.87,.25-1.25,0-.71-.29-1.07-.87-1.07-.3,0-.58,.14-.83,.41-.25,.27-.37,.58-.37,.92,0,.24,.1,.46,.29,.65,.28,.27,.77,.62,1.49,1.05s1.21,.83,1.48,1.19c.27,.36,.41,.78,.41,1.27s-.12,.96-.35,1.41c-.24,.45-.57,.83-.99,1.14-.91,.68-2.09,1.02-3.54,1.02-.79,0-1.48-.21-2.09-.62-.61-.4-.91-.84-.91-1.31s.17-.85,.52-1.13c.35-.28,.77-.42,1.28-.42s.92,.1,1.24,.29c-.16,.4-.24,.73-.24,1,0,.8,.34,1.2,1.02,1.2,.29,0,.53-.09,.73-.27,.19-.18,.29-.43,.29-.74,0-.62-.52-1.25-1.56-1.91-.85-.56-1.37-.94-1.56-1.16-.33-.39-.49-.82-.49-1.31s.12-.96,.34-1.42c.23-.46,.56-.85,.98-1.18,.88-.68,2.09-1.02,3.63-1.02,.79,0,1.41,.16,1.88,.47,.47,.32,.7,.74,.7,1.27s-.16,.95-.48,1.25c-.32,.3-.77,.45-1.35,.45-.4,0-.7-.07-.89-.2Z"/><path class="c" d="M286.11,358.42c-.38,.91-1.16,1.36-2.36,1.36-.61,0-1.1-.21-1.49-.64-.31-.35-.47-.73-.47-1.13,0-.91,.21-2.35,.63-4.34l1.33-6.97,3.69-.36-1.76,9.19c-.21,.9-.31,1.5-.31,1.82,0,.69,.25,1.05,.75,1.07Z"/><path class="c" d="M288.23,351.01c.93-1,1.4-2.14,1.4-3.4,0-.39-.07-.76-.2-1.13,.15-.1,.36-.18,.65-.25,.29-.07,.54-.1,.76-.1,.54,0,.97,.15,1.28,.45,.31,.3,.46,.71,.46,1.23s-.09,.96-.27,1.34c-.18,.38-.44,.72-.76,1.01-.69,.63-1.54,.94-2.54,.94-.19,0-.45-.04-.78-.11Z"/><path class="c" d="M292.91,358.88c-.29-.31-.49-.72-.62-1.22-.13-.5-.19-1.15-.19-1.96s.14-1.58,.42-2.32,.67-1.37,1.18-1.91c1.04-1.11,2.42-1.67,4.14-1.67,.62,0,1.15,.1,1.6,.31l3.1-.31-1.34,7.08c-.04,.15-.05,.35-.05,.62s.08,.48,.25,.65c.16,.17,.37,.27,.61,.29-.12,.41-.4,.74-.84,.98-.44,.24-.91,.36-1.41,.36s-.91-.09-1.24-.28-.55-.44-.64-.75c-.19,.3-.5,.55-.91,.74-.41,.19-.89,.29-1.44,.29s-1.05-.07-1.5-.22c-.45-.15-.81-.38-1.1-.69Zm3.83-7.37c-.14,.22-.27,.51-.39,.88-.12,.37-.28,1.05-.48,2.03-.2,.99-.3,1.83-.3,2.53s.05,1.16,.16,1.36,.26,.31,.45,.31c.39,0,.72-.18,1.01-.55,.28-.37,.48-.88,.59-1.53l.96-5.32c-.25-.22-.53-.33-.83-.33s-.53,.05-.71,.15c-.17,.1-.33,.25-.47,.47Z"/><path class="c" d="M310.11,350.47c.4-.45,.94-.67,1.63-.67,.42,0,.8,.12,1.12,.34,.33,.23,.49,.56,.49,.99s-.07,.88-.2,1.33c-.13,.46-.3,.93-.51,1.4-.41,.92-.9,1.76-1.47,2.52-.8,1.1-1.58,1.94-2.35,2.52s-1.57,.87-2.41,.87c-.68,0-1.22-.08-1.63-.24-.07-2.54-.15-4.27-.25-5.17-.09-.91-.17-1.61-.25-2.11-.12-.97-.36-1.57-.73-1.8,.28-.24,.55-.42,.83-.52s.69-.15,1.25-.15,1.04,.22,1.44,.66c.4,.44,.64,1.05,.72,1.83,.08,.78,.12,1.64,.12,2.59s-.04,1.99-.11,3.12c.38-.27,.76-.8,1.16-1.62,.54-1.13,.91-2.37,1.11-3.72,.06-.41,.09-.83,.09-1.27s-.02-.74-.07-.93Z"/><path class="c" d="M321.2,356.35c.3,.21,.45,.54,.45,.99s-.12,.83-.34,1.12c-.23,.29-.53,.53-.91,.73-.77,.4-1.58,.6-2.42,.6s-1.5-.09-1.99-.27-.9-.44-1.23-.78c-.64-.64-.96-1.55-.96-2.72,0-1.83,.5-3.3,1.49-4.41,1.06-1.2,2.52-1.8,4.38-1.8,1.15,0,2.01,.24,2.58,.73,.42,.36,.63,.84,.63,1.43,0,2.13-1.84,3.2-5.52,3.2-.05,.31-.07,.61-.07,.87,0,.56,.12,.94,.37,1.15s.6,.32,1.06,.32,.93-.11,1.42-.32,.84-.49,1.04-.83Zm-3.7-1.98c.86,0,1.54-.27,2.03-.8,.5-.51,.74-1.17,.74-1.98,0-.28-.05-.49-.15-.65-.1-.15-.26-.23-.46-.23s-.4,.04-.57,.12-.35,.25-.54,.52c-.45,.61-.8,1.61-1.05,3.01Z"/><path class="c" d="M331.19,359.78c-1.46,0-2.2-.57-2.2-1.71,.01-.31,.07-.74,.16-1.27l.33-1.67c.33-1.57,.49-2.54,.49-2.89,0-.7-.21-1.05-.62-1.05-.69,0-1.22,.9-1.58,2.71l-1.07,5.52-3.65,.36,1.89-9.64,2.98-.34-.29,1.78c.57-1.19,1.72-1.78,3.47-1.78,.85,0,1.45,.18,1.81,.54,.36,.36,.54,.94,.54,1.73,0,.75-.19,2-.58,3.76-.18,.79-.27,1.33-.27,1.62s.08,.53,.25,.7c.16,.17,.37,.27,.61,.29-.12,.41-.39,.74-.81,.98s-.9,.36-1.44,.36Z"/><path class="c" d="M339.25,358.42c-.38,.91-1.16,1.36-2.36,1.36-.62,0-1.12-.21-1.51-.64-.33-.38-.49-.75-.49-1.13,0-.98,.22-2.43,.67-4.34l.67-3.52,3.69-.36-1.11,5.74c-.21,.9-.31,1.5-.31,1.82,0,.69,.25,1.05,.74,1.07Zm-2.69-10.79c0-.47,.2-.83,.59-1.09,.39-.25,.87-.38,1.44-.38s1.03,.13,1.37,.38c.34,.25,.52,.62,.52,1.09s-.19,.83-.57,1.07-.86,.36-1.43,.36-1.03-.12-1.39-.36-.54-.6-.54-1.07Z"/><path class="c" d="M346.48,354.32c.44-.77,.65-1.55,.65-2.34,0-.52-.19-.78-.56-.78-.29,0-.59,.25-.89,.75-.32,.5-.52,1.07-.62,1.71l-.94,5.77-3.76,.36,1.85-9.62,3-.36-.33,1.83c.59-1.22,1.56-1.83,2.89-1.83,.7,0,1.24,.18,1.62,.54,.38,.36,.57,.92,.57,1.66s-.25,1.35-.74,1.82c-.49,.47-1.15,.71-1.99,.71-.36,0-.62-.07-.76-.22Z"/><path class="c" d="M361.35,356.35c.3,.21,.45,.54,.45,.99s-.12,.83-.34,1.12c-.23,.29-.53,.53-.91,.73-.77,.4-1.58,.6-2.42,.6s-1.5-.09-1.99-.27-.9-.44-1.23-.78c-.64-.64-.96-1.55-.96-2.72,0-1.83,.5-3.3,1.49-4.41,1.06-1.2,2.52-1.8,4.38-1.8,1.15,0,2.01,.24,2.58,.73,.42,.36,.63,.84,.63,1.43,0,2.13-1.84,3.2-5.52,3.2-.05,.31-.07,.61-.07,.87,0,.56,.12,.94,.37,1.15s.6,.32,1.06,.32,.93-.11,1.42-.32,.84-.49,1.04-.83Zm-3.7-1.98c.86,0,1.54-.27,2.03-.8,.5-.51,.74-1.17,.74-1.98,0-.28-.05-.49-.15-.65-.1-.15-.26-.23-.46-.23s-.4,.04-.57,.12-.35,.25-.54,.52c-.45,.61-.8,1.61-1.05,3.01Z"/><path class="c" d="M371.33,359.78c-1.46,0-2.2-.57-2.2-1.71,.01-.31,.07-.74,.16-1.27l.33-1.67c.33-1.57,.49-2.54,.49-2.89,0-.7-.21-1.05-.62-1.05-.69,0-1.22,.9-1.58,2.71l-1.07,5.52-3.65,.36,1.89-9.64,2.98-.34-.29,1.78c.57-1.19,1.72-1.78,3.47-1.78,.85,0,1.45,.18,1.81,.54,.36,.36,.54,.94,.54,1.73,0,.75-.19,2-.58,3.76-.18,.79-.27,1.33-.27,1.62s.08,.53,.25,.7c.16,.17,.37,.27,.61,.29-.12,.41-.39,.74-.81,.98s-.9,.36-1.44,.36Z"/><path class="c" d="M384.61,358.66c-.58,.75-1.59,1.13-3.03,1.13-.75,0-1.4-.23-1.94-.68-.54-.45-.82-1.01-.82-1.66,0-.36,.02-.63,.05-.82l1.22-6.46,3.69-.36-1.33,7.01c-.05,.27-.07,.48-.07,.63,0,.7,.21,1.05,.64,1.05,.47,0,.88-.32,1.22-.96,.11-.21,.19-.44,.24-.71l1.29-6.66,3.58-.36-1.34,7.08c-.04,.18-.05,.37-.05,.56s.05,.4,.16,.61c.11,.21,.34,.34,.69,.39-.07,.29-.24,.53-.49,.73-.53,.41-1.09,.62-1.66,.62s-1.03-.1-1.37-.31c-.34-.21-.56-.48-.65-.82Z"/><path class="c" d="M397.99,359.78c-1.46,0-2.2-.57-2.2-1.71,.01-.31,.07-.74,.16-1.27l.33-1.67c.33-1.57,.49-2.54,.49-2.89,0-.7-.21-1.05-.62-1.05-.69,0-1.22,.9-1.58,2.71l-1.07,5.52-3.65,.36,1.89-9.64,2.98-.34-.29,1.78c.57-1.19,1.72-1.78,3.47-1.78,.85,0,1.45,.18,1.81,.54,.36,.36,.54,.94,.54,1.73,0,.75-.19,2-.58,3.76-.18,.79-.27,1.33-.27,1.62s.08,.53,.25,.7c.16,.17,.37,.27,.61,.29-.12,.41-.39,.74-.81,.98s-.9,.36-1.44,.36Z"/><path class="c" d="M414.35,351.87c0,.51-.21,.92-.64,1.24s-.98,.47-1.67,.47c-.29,0-.52-.04-.69-.13,.13-.31,.22-.67,.26-1.06,.04-.39,.06-.64,.06-.75,0-.51-.18-.76-.53-.76-.24,0-.5,.15-.77,.45s-.52,.69-.75,1.16c-.51,1.09-.76,2.18-.76,3.29,0,.61,.12,1.04,.34,1.32,.23,.27,.6,.41,1.11,.41,.7,0,1.33-.29,1.89-.87,.16-.18,.28-.38,.36-.58,.46,.24,.69,.7,.69,1.36s-.38,1.24-1.13,1.69c-.78,.46-1.78,.69-3.01,.69-2.46,0-3.69-1.3-3.69-3.9,0-1.9,.54-3.39,1.62-4.48,1.04-1.07,2.52-1.6,4.43-1.6s2.87,.69,2.87,2.07Z"/><path class="c" d="M419.18,358.42c-.38,.91-1.16,1.36-2.36,1.36-.61,0-1.1-.21-1.49-.64-.31-.35-.47-.73-.47-1.13,0-.91,.21-2.35,.63-4.34l1.33-6.97,3.69-.36-1.76,9.19c-.21,.9-.31,1.5-.31,1.82,0,.69,.25,1.05,.75,1.07Z"/><path class="c" d="M425.08,358.42c-.38,.91-1.16,1.36-2.36,1.36-.62,0-1.12-.21-1.51-.64-.33-.38-.49-.75-.49-1.13,0-.98,.22-2.43,.67-4.34l.67-3.52,3.69-.36-1.11,5.74c-.21,.9-.31,1.5-.31,1.82,0,.69,.25,1.05,.74,1.07Zm-2.69-10.79c0-.47,.2-.83,.59-1.09,.39-.25,.87-.38,1.44-.38s1.03,.13,1.37,.38c.34,.25,.52,.62,.52,1.09s-.19,.83-.57,1.07-.86,.36-1.43,.36-1.03-.12-1.39-.36-.54-.6-.54-1.07Z"/><path class="c" d="M435.54,351.87c0,.51-.21,.92-.64,1.24s-.98,.47-1.67,.47c-.29,0-.52-.04-.69-.13,.13-.31,.22-.67,.26-1.06,.04-.39,.06-.64,.06-.75,0-.51-.18-.76-.53-.76-.24,0-.5,.15-.77,.45s-.52,.69-.75,1.16c-.51,1.09-.76,2.18-.76,3.29,0,.61,.12,1.04,.34,1.32,.23,.27,.6,.41,1.11,.41,.7,0,1.33-.29,1.89-.87,.16-.18,.28-.38,.36-.58,.46,.24,.69,.7,.69,1.36s-.38,1.24-1.13,1.69c-.78,.46-1.78,.69-3.01,.69-2.46,0-3.69-1.3-3.69-3.9,0-1.9,.54-3.39,1.62-4.48,1.04-1.07,2.52-1.6,4.43-1.6s2.87,.69,2.87,2.07Z"/></g></svg>