<svg width="610" height="720" viewBox="0 0 610 720" fill="none" xmlns="http://www.w3.org/2000/svg">
<g clip-path="url(#clip0_39_303)">
<path d="M176.099 604.211L170.068 720C170.068 720 425.16 477.21 456.939 406.173C488.718 335.136 428.899 159.412 428.899 159.412L296.169 232.318L176.099 604.211Z" fill="#9F616A"/>
<path d="M567.232 110.811L606.49 114.55C606.49 114.55 627.054 159.416 563.49 163.15L567.232 110.811Z" fill="#9F616A"/>
<path d="M567.232 179.975L606.49 183.714C606.49 183.714 627.054 228.58 563.49 232.314L567.232 179.975Z" fill="#9F616A"/>
<path d="M567.232 254.751L606.49 258.49C606.49 258.49 627.054 303.356 563.49 307.09L567.232 254.751Z" fill="#9F616A"/>
<path d="M556.015 329.527L595.272 333.266C595.272 333.266 615.835 378.132 552.272 381.866L556.015 329.527Z" fill="#9F616A"/>
<path d="M586.344 128.832H583.365V47.2319C583.365 34.706 578.389 22.6931 569.532 13.836C560.675 4.97883 548.662 0.00292969 536.136 0.00292969H363.251C350.725 0.00292969 338.712 4.97883 329.855 13.836C320.998 22.6931 316.022 34.706 316.022 47.2319V494.905C316.022 507.431 320.998 519.444 329.855 528.301C338.712 537.158 350.725 542.134 363.251 542.134H536.136C548.662 542.134 560.675 537.158 569.532 528.301C578.389 519.444 583.365 507.431 583.365 494.905V186.917H586.344V128.832Z" fill="#090814"/>
<path d="M573.31 47.5571V494.573C573.311 499.205 572.398 503.792 570.626 508.071C568.854 512.351 566.255 516.239 562.98 519.514C559.705 522.789 555.816 525.387 551.536 527.159C547.257 528.931 542.67 529.842 538.038 529.841H364.322C359.691 529.841 355.104 528.929 350.826 527.157C346.547 525.384 342.659 522.787 339.384 519.512C336.109 516.237 333.511 512.349 331.739 508.07C329.967 503.791 329.055 499.205 329.055 494.573V47.5571C329.055 42.9254 329.967 38.3391 331.739 34.06C333.511 29.7809 336.109 25.8929 339.385 22.6179C342.66 19.3429 346.548 16.7451 350.827 14.9729C355.106 13.2006 359.692 12.2887 364.324 12.2891H385.405C384.367 14.8332 383.971 17.5935 384.251 20.3268C384.531 23.0601 385.479 25.6826 387.012 27.9632C388.544 30.2437 390.614 32.1124 393.039 33.4046C395.464 34.6968 398.169 35.3728 400.917 35.3731H499.965C502.712 35.3703 505.415 34.6926 507.839 33.3996C510.262 32.1066 512.33 30.2379 513.862 27.958C515.394 25.678 516.341 23.0567 516.622 20.3244C516.903 17.5922 516.508 14.8328 515.472 12.2891H538.039C542.671 12.2889 547.257 13.2011 551.536 14.9735C555.815 16.7459 559.703 19.3439 562.978 22.6189C566.252 25.894 568.85 29.7821 570.622 34.0612C572.394 38.3403 573.306 42.9265 573.306 47.5581L573.31 47.5571Z" fill="#F1F1F1"/>
<path opacity="0.2" d="M606.281 113.978L583.158 122.496L583.575 123.628L606.698 115.11L606.281 113.978Z" fill="black"/>
<path opacity="0.2" d="M606.281 183.934L583.158 192.452L583.575 193.584L606.698 185.066L606.281 183.934Z" fill="black"/>
<path opacity="0.2" d="M606.281 258.715L583.158 267.233L583.575 268.365L606.698 259.847L606.281 258.715Z" fill="black"/>
<path opacity="0.2" d="M594.169 333.518L582.911 338.921L583.433 340.008L594.69 334.605L594.169 333.518Z" fill="black"/>
<path d="M368.796 315.007L354.744 346.017L329.053 402.717V302.427L368.796 315.007Z" fill="#9F616A"/>
<path d="M524.926 188.093C524.926 230.554 485.664 224.132 437.226 224.132C388.788 224.132 349.526 230.554 349.526 188.093C349.526 145.632 368.705 70.3647 437.226 70.3647C508.108 70.3647 524.926 145.631 524.926 188.093Z" fill="#090814"/>
<path d="M414.51 214.274C414.51 214.274 435.359 243.542 427.91 251.466C420.461 259.39 483.772 259.588 483.772 259.588C483.772 259.588 474.262 217.012 477.061 207.214L414.51 214.274Z" fill="#9F616A"/>
<path d="M570.114 336.898L573.314 356.872V494.576C573.327 500.664 571.751 506.651 568.743 511.945L536.636 455.654L525.064 337.768L522.179 308.324L565.684 309.241L570.114 336.898Z" fill="#9F616A"/>
<path d="M573.309 332.049C571.765 327.031 569.148 318.549 566.145 309.096C560.862 292.439 554.397 272.719 550.562 263.323C543.241 245.388 505.935 252.576 505.935 252.576L378.12 247.788C378.12 247.788 373.356 247.161 351.92 244.314C342.934 243.12 335.106 255.714 329.052 270.753V318.094L358.832 320.362C356.437 328.717 355.064 337.331 354.743 346.017C354.405 357.897 356.504 371.177 365.562 379.417C385.091 397.215 391.371 477.353 391.371 477.353L377.633 529.844H538.033C542.665 529.844 547.251 528.932 551.531 527.16C555.81 525.387 559.698 522.789 562.973 519.513C566.248 516.238 568.846 512.349 570.618 508.07C572.39 503.79 573.301 499.204 573.3 494.572V475.134C563.18 458.755 554.87 450.517 554.87 450.517L526.185 337.658L570.113 336.898L573.313 336.838L573.309 332.049Z" fill="#090814"/>
<path d="M482.82 202.48C505.865 179.435 505.865 142.072 482.82 119.028C459.775 95.9827 422.412 95.9827 399.367 119.028C376.323 142.072 376.323 179.435 399.367 202.48C422.412 225.525 459.775 225.525 482.82 202.48Z" fill="#9F616A"/>
<path d="M368.757 159.262H392.097L402.397 130.431L404.456 159.262H415.612L421.618 142.444L422.818 159.262H505.708C505.708 142.694 499.127 126.805 487.412 115.09C475.697 103.375 459.808 96.7939 443.24 96.7939H431.225C414.658 96.7939 398.769 103.375 387.054 115.09C375.339 126.805 368.757 142.694 368.757 159.261V159.262Z" fill="#090814"/>
<path d="M0 664.517L209.241 425.797L216.719 272.506L295.233 141.652L317.666 85.5698C317.666 85.5698 370.009 91.1778 327.013 197.734L309.254 254.751C325.263 289.231 321.495 326.789 321.495 364.804V495.457C321.495 526.222 186.95 693.798 169.885 719.396L0 664.517Z" fill="#9F616A"/>
<path opacity="0.2" d="M311.512 152.741L295.902 145.065L296.434 143.982L310.856 151.07L332.627 93.9917L333.754 94.4227L311.512 152.741Z" fill="black"/>
<path d="M452.841 508.195C470.827 508.195 485.407 493.615 485.407 475.629C485.407 457.643 470.827 443.063 452.841 443.063C434.855 443.063 420.275 457.643 420.275 475.629C420.275 493.615 434.855 508.195 452.841 508.195Z" fill="#FB9155"/>
<path d="M376.854 498.796C388.983 498.796 398.816 488.963 398.816 476.834C398.816 464.705 388.983 454.872 376.854 454.872C364.725 454.872 354.892 464.705 354.892 476.834C354.892 488.963 364.725 498.796 376.854 498.796Z" fill="white"/>
<path d="M376.854 499.751C372.321 499.751 367.891 498.407 364.122 495.889C360.353 493.371 357.416 489.792 355.681 485.604C353.947 481.416 353.493 476.809 354.377 472.363C355.262 467.918 357.444 463.834 360.649 460.629C363.854 457.424 367.938 455.242 372.383 454.357C376.829 453.473 381.436 453.927 385.624 455.661C389.811 457.396 393.391 460.333 395.909 464.102C398.427 467.871 399.771 472.301 399.771 476.834C399.771 482.912 397.357 488.741 393.059 493.039C388.761 497.337 382.932 499.751 376.854 499.751ZM376.854 455.827C372.699 455.827 368.638 457.059 365.183 459.367C361.729 461.676 359.036 464.956 357.446 468.795C355.856 472.633 355.44 476.857 356.251 480.932C357.061 485.007 359.062 488.75 362 491.688C364.938 494.626 368.681 496.627 372.756 497.437C376.831 498.248 381.054 497.832 384.893 496.242C388.732 494.652 392.012 491.959 394.321 488.505C396.629 485.05 397.861 480.989 397.861 476.834C397.861 474.075 397.318 471.344 396.262 468.795C395.206 466.246 393.659 463.931 391.708 461.98C389.757 460.029 387.442 458.482 384.893 457.426C382.344 456.37 379.613 455.827 376.854 455.827Z" fill="#CBCBCB"/>
<path d="M381.562 484.473H360.162C360.135 484.473 360.108 484.471 360.082 484.467L370.205 466.933C370.267 466.824 370.357 466.733 370.465 466.67C370.573 466.607 370.697 466.573 370.822 466.573C370.947 466.573 371.071 466.607 371.179 466.67C371.288 466.733 371.377 466.824 371.439 466.933L378.233 478.7L378.559 479.263L381.562 484.473Z" fill="#E5E5E5"/>
<path d="M393.478 484.473H374.966L378.553 479.263L378.811 478.888L383.486 472.098C383.569 471.994 383.672 471.909 383.79 471.848C383.908 471.787 384.037 471.751 384.17 471.743C384.302 471.735 384.435 471.755 384.559 471.802C384.684 471.848 384.797 471.921 384.891 472.014C384.915 472.041 384.938 472.069 384.958 472.098L393.478 484.473Z" fill="#E5E5E5"/>
<path d="M527.621 498.796C539.75 498.796 549.583 488.963 549.583 476.834C549.583 464.705 539.75 454.872 527.621 454.872C515.492 454.872 505.659 464.705 505.659 476.834C505.659 488.963 515.492 498.796 527.621 498.796Z" fill="white"/>
<path d="M527.621 499.751C523.088 499.751 518.658 498.407 514.889 495.889C511.12 493.371 508.183 489.792 506.448 485.604C504.714 481.416 504.26 476.809 505.144 472.363C506.029 467.918 508.211 463.834 511.416 460.629C514.621 457.424 518.705 455.242 523.15 454.357C527.596 453.473 532.203 453.927 536.391 455.661C540.578 457.396 544.158 460.333 546.676 464.102C549.194 467.871 550.538 472.301 550.538 476.834C550.538 482.912 548.123 488.741 543.826 493.039C539.528 497.337 533.699 499.751 527.621 499.751ZM527.621 455.827C523.466 455.827 519.405 457.059 515.95 459.367C512.496 461.676 509.803 464.956 508.213 468.795C506.623 472.633 506.207 476.857 507.018 480.932C507.828 485.007 509.829 488.75 512.767 491.688C515.705 494.626 519.448 496.627 523.523 497.437C527.598 498.248 531.821 497.832 535.66 496.242C539.499 494.652 542.779 491.959 545.088 488.505C547.396 485.05 548.628 480.989 548.628 476.834C548.628 474.075 548.085 471.344 547.029 468.795C545.973 466.246 544.426 463.931 542.475 461.98C540.525 460.029 538.209 458.482 535.66 457.426C533.111 456.37 530.38 455.827 527.621 455.827Z" fill="#CBCBCB"/>
<path d="M536.694 474.5L535.98 475.214V470.044C535.98 469.767 535.87 469.501 535.674 469.305C535.478 469.109 535.212 468.999 534.935 468.999H519.264C518.993 469.007 518.735 469.121 518.546 469.316C518.357 469.511 518.251 469.772 518.251 470.044C518.251 470.315 518.357 470.576 518.546 470.771C518.735 470.966 518.993 471.08 519.264 471.088H533.89V475.214L533.176 474.5C533.03 474.354 532.844 474.254 532.641 474.214C532.438 474.174 532.228 474.194 532.037 474.273C531.846 474.353 531.683 474.487 531.568 474.658C531.453 474.83 531.392 475.032 531.392 475.239V475.291C531.392 475.428 531.419 475.564 531.471 475.691C531.524 475.818 531.601 475.933 531.698 476.03L534.198 478.53C534.394 478.726 534.66 478.836 534.937 478.836C535.213 478.836 535.479 478.726 535.675 478.53L538.175 476.03C538.272 475.933 538.349 475.818 538.401 475.691C538.454 475.564 538.481 475.428 538.481 475.291V475.239C538.481 475.033 538.419 474.831 538.304 474.659C538.189 474.488 538.026 474.354 537.836 474.275C537.645 474.196 537.435 474.176 537.233 474.216C537.03 474.256 536.844 474.355 536.698 474.501L536.694 474.5Z" fill="#E5E5E5"/>
<path d="M535.979 482.579H521.353V478.453L522.067 479.167C522.213 479.313 522.399 479.412 522.602 479.452C522.804 479.492 523.014 479.472 523.205 479.393C523.396 479.314 523.559 479.18 523.674 479.008C523.788 478.836 523.85 478.635 523.85 478.428V478.376C523.85 478.239 523.823 478.103 523.771 477.976C523.718 477.849 523.641 477.734 523.544 477.637L521.044 475.137C520.947 475.04 520.832 474.963 520.705 474.911C520.578 474.858 520.443 474.831 520.305 474.831C520.168 474.831 520.032 474.858 519.906 474.911C519.779 474.963 519.664 475.04 519.567 475.137L517.067 477.637C516.97 477.734 516.893 477.849 516.84 477.976C516.788 478.103 516.761 478.239 516.761 478.376V478.428C516.761 478.635 516.822 478.837 516.937 479.009C517.052 479.181 517.215 479.315 517.406 479.394C517.597 479.473 517.807 479.494 518.01 479.453C518.213 479.413 518.399 479.313 518.545 479.167L519.259 478.453V483.626C519.259 483.903 519.369 484.169 519.565 484.365C519.761 484.561 520.027 484.671 520.304 484.671H535.975C536.252 484.671 536.518 484.561 536.714 484.365C536.91 484.169 537.02 483.903 537.02 483.626C537.02 483.349 536.91 483.083 536.714 482.887C536.518 482.691 536.252 482.581 535.975 482.581L535.979 482.579Z" fill="#E5E5E5"/>
<path d="M396.11 54.96H342.218V57.372H396.11V54.96Z" fill="white"/>
<path d="M478.128 54.96H424.236V57.372H478.128V54.96Z" fill="#FB9155"/>
<path d="M560.145 54.96H506.253V57.372H560.145V54.96Z" fill="white"/>
<path d="M396.11 424.04H342.218V426.452H396.11V424.04Z" fill="white"/>
<path d="M478.128 424.04H424.236V426.452H478.128V424.04Z" fill="white"/>
<path d="M560.145 424.04H506.253V426.452H560.145V424.04Z" fill="white"/>
</g>
<defs>
<clipPath id="clip0_39_303">
<rect width="609.663" height="720" fill="white"/>
</clipPath>
</defs>
</svg>
