<svg width="566" height="513" viewBox="0 0 566 513" fill="none" xmlns="http://www.w3.org/2000/svg">
<g clip-path="url(#clip0_39_158)">
<path d="M390.927 511.006H230.614C206.57 511.006 187.008 491.444 187.008 467.399V43.6069C187.008 19.5621 206.57 0 230.614 0H390.927C414.971 0 434.533 19.5621 434.533 43.6069C437.517 213.789 442.606 404.365 434.533 467.399C434.533 491.444 414.971 511.006 390.927 511.006Z" fill="#3F3D56"/>
<path d="M436.769 155.884C435.751 155.884 434.924 156.712 434.924 157.729V216.762C434.924 217.78 435.751 218.607 436.769 218.607C437.786 218.607 438.614 217.78 438.614 216.762V157.729C438.614 156.712 437.786 155.884 436.769 155.884Z" fill="#3F3D56"/>
<path d="M430.383 43.6074V467.391C430.383 488.321 414.093 505.44 393.496 506.768H393.487C393.183 506.787 392.878 506.805 392.565 506.815C392.02 506.842 391.476 506.851 390.923 506.851C390.923 506.851 388.894 506.704 385.186 506.427C381.441 506.15 375.989 505.735 369.191 505.191C367.153 505.034 365.004 504.859 362.734 504.675C358.215 504.306 353.252 503.9 347.93 503.439C345.809 503.263 343.613 503.07 341.372 502.876C329.916 501.889 317.085 500.736 303.554 499.426C301.266 499.214 298.96 498.993 296.636 498.762C296.027 498.698 191.159 472.336 191.159 467.392V43.6074C191.159 21.8113 208.823 4.14746 230.619 4.14746H254.177C257.94 4.14746 260.965 7.08066 261.288 10.8348C261.316 11.0839 261.344 11.3329 261.39 11.582C262.072 15.3546 265.531 17.9834 269.368 17.9834H352.173C356.01 17.9834 359.469 15.3546 360.152 11.582C360.198 11.3329 360.226 11.0839 360.253 10.8348C360.576 7.08067 363.602 4.14746 367.365 4.14746H390.923C412.719 4.14746 430.383 21.8113 430.383 43.6074Z" fill="white"/>
<path d="M186.085 111.61C185.068 111.61 184.24 112.437 184.24 113.455V128.213C184.24 129.23 185.068 130.058 186.085 130.058C187.103 130.058 187.93 129.23 187.93 128.213V113.455C187.93 112.437 187.103 111.61 186.085 111.61Z" fill="#3F3D56"/>
<path d="M186.085 155.884C185.068 155.884 184.24 156.712 184.24 157.729V186.323C184.24 187.341 185.068 188.168 186.085 188.168C187.103 188.168 187.93 187.341 187.93 186.323V157.729C187.93 156.712 187.103 155.884 186.085 155.884Z" fill="#3F3D56"/>
<path d="M186.085 196.47C185.068 196.47 184.24 197.297 184.24 198.315V226.909C184.24 227.926 185.068 228.753 186.085 228.753C187.103 228.753 187.93 227.926 187.93 226.909V198.315C187.93 197.297 187.103 196.47 186.085 196.47Z" fill="#3F3D56"/>
<path d="M253.571 10.6074H218.218C218.047 10.6074 217.908 10.7463 217.908 10.9176V14.9092C217.908 15.0805 218.047 15.2194 218.218 15.2194H253.571C253.742 15.2194 253.881 15.0805 253.881 14.9092V10.9176C253.881 10.7463 253.742 10.6074 253.571 10.6074Z" fill="#E6E6E6"/>
<path d="M373.194 15.2195C375.232 15.2195 376.884 13.5676 376.884 11.5299C376.884 9.49221 375.232 7.84033 373.194 7.84033C371.157 7.84033 369.505 9.49221 369.505 11.5299C369.505 13.5676 371.157 15.2195 373.194 15.2195Z" fill="#E6E6E6"/>
<path d="M383.341 15.2195C385.378 15.2195 387.03 13.5676 387.03 11.5299C387.03 9.49221 385.378 7.84033 383.341 7.84033C381.303 7.84033 379.651 9.49221 379.651 11.5299C379.651 13.5676 381.303 15.2195 383.341 15.2195Z" fill="#E6E6E6"/>
<path d="M393.487 15.2195C395.524 15.2195 397.176 13.5676 397.176 11.5299C397.176 9.49221 395.524 7.84033 393.487 7.84033C391.449 7.84033 389.797 9.49221 389.797 11.5299C389.797 13.5676 391.449 15.2195 393.487 15.2195Z" fill="#E6E6E6"/>
<path d="M14.8143 511.106C14.8143 511.766 15.3444 512.296 16.0044 512.296H564.294C564.954 512.296 565.484 511.766 565.484 511.106C565.484 510.446 564.954 509.916 564.294 509.916H16.0044C15.3444 509.916 14.8143 510.446 14.8143 511.106Z" fill="#CCCCCC"/>
<path d="M189.633 503.29L178.39 503.289L173.041 459.92L189.636 459.921L189.633 503.29Z" fill="#9F616A"/>
<path d="M151.111 503.035C150.761 503.625 150.576 505.528 150.576 506.214C150.576 508.321 152.285 510.03 154.392 510.03H189.213C190.651 510.03 191.816 508.864 191.816 507.426V505.977C191.816 505.977 193.539 501.62 189.992 496.249C189.992 496.249 185.585 500.454 178.998 493.868L177.056 490.35L162.997 500.632L155.204 501.591C153.5 501.801 151.988 501.558 151.111 503.035Z" fill="#2F2E41"/>
<path d="M127.454 443.053L116.21 443.016L110.999 399.63L127.594 399.684L127.454 443.053Z" fill="#9F616A"/>
<path d="M88.9322 442.676C88.5803 443.264 88.3895 445.166 88.3873 445.852C88.3806 447.96 90.0837 449.674 92.1914 449.68L127.012 449.791C128.45 449.796 129.619 448.634 129.623 447.196L129.628 445.746C129.628 445.746 131.364 441.395 127.835 436.013C127.835 436.013 123.414 440.204 116.849 433.597L114.918 430.072L100.826 440.31L93.0303 441.244C91.3248 441.449 89.8139 441.201 88.9322 442.676Z" fill="#2F2E41"/>
<path d="M173.234 240L159.234 241C159.234 241 111.839 267.947 107.839 273.947C103.839 279.947 98.3389 288.447 103.339 297.447C108.339 306.447 104.533 415.42 104.533 415.42L128.426 410.015L143.734 296L175.734 291.5C175.734 291.5 186.734 315.232 182.734 334.866C178.734 354.5 176.734 366.5 176.734 366.5L171.734 482.5L191.234 482L208.734 374.5L238.734 289.5L199.734 243.5L173.234 240Z" fill="#2F2E41"/>
<path d="M242.234 117L213.234 120L210.234 130L182.234 145L191.234 208L184.234 219L187.234 230C187.234 230 179.234 231 180.234 237L162.234 240C162.234 240 186.109 244.874 191.171 268.937C196.234 293 238.234 296 238.234 296L271.234 193L274.234 132L251.234 126L242.234 117Z" fill="#E6E6E6"/>
<path d="M226.951 113.206C239.402 113.206 249.495 103.112 249.495 90.6617C249.495 78.211 239.402 68.1177 226.951 68.1177C214.5 68.1177 204.407 78.211 204.407 90.6617C204.407 103.112 214.5 113.206 226.951 113.206Z" fill="#9F616A"/>
<path d="M215.234 111C215.234 111 195.234 110 197.234 94C192.284 76.9617 196.666 65.899 212.234 62C212.234 62 216.234 61 217.234 61C230.387 61 237.234 65 237.234 65C237.234 65 236.234 61.0394 237.234 62.0197C238.234 63 239.234 65 239.234 65C239.234 65 249.234 70 249.234 80C249.234 90 249.234 86 249.234 86C249.234 86 247.234 86 245.234 80C243.234 74 230.286 78 230.286 78L231.234 80L228.234 79L225.234 82L223.234 81C223.234 81 215.234 81 216.234 81C217.234 81 216.538 87.7959 216.538 87.7959L209.234 96L217.234 111H215.234Z" fill="#2F2E41"/>
<path d="M108.68 230.354C102.987 233.461 99.9743 238.917 101.952 242.54C103.929 246.163 110.147 246.581 115.841 243.474C118.333 242.114 120.311 240.304 121.582 238.394L145.542 224.925L138.981 213.816L116.059 228.273C113.765 228.309 111.172 228.994 108.68 230.354Z" fill="#9F616A"/>
<path d="M189.478 145.467C189.478 145.467 180.086 141.891 176.85 146.195C173.614 150.5 152.237 202.73 152.237 202.73L120.873 219.11L129.693 234.469L170.081 221.023L196.727 172.289L189.478 145.467Z" fill="#E6E6E6"/>
<path d="M485.649 316.998V422.998C485.649 432.372 478.023 439.998 468.649 439.998H206.649C197.275 439.998 189.649 432.372 189.649 422.998V316.998C189.649 307.624 197.275 299.998 206.649 299.998H468.649C478.023 299.998 485.649 307.624 485.649 316.998Z" fill="white"/>
<path d="M485.649 316.998V422.998C485.649 432.372 478.023 439.998 468.649 439.998H206.649C197.275 439.998 189.649 432.372 189.649 422.998V316.998C189.649 307.624 197.275 299.998 206.649 299.998H468.649C478.023 299.998 485.649 307.624 485.649 316.998ZM468.649 437.998C476.934 437.998 483.649 431.282 483.649 422.998V369.557C483.649 332.245 453.402 301.998 416.09 301.998H206.649C198.365 301.998 191.649 308.714 191.649 316.998V422.998C191.649 431.282 198.365 437.998 206.649 437.998H468.649Z" fill="#3F3D56"/>
<path d="M307.26 364.039H273.039C272.176 364.039 271.474 364.741 271.474 365.603C271.474 366.466 272.176 367.168 273.039 367.168H307.26C308.122 367.168 308.824 366.466 308.824 365.603C308.824 364.741 308.122 364.039 307.26 364.039Z" fill="#FB9155"/>
<path d="M359.26 364.039H325.039C324.176 364.039 323.474 364.741 323.474 365.603C323.474 366.466 324.176 367.168 325.039 367.168H359.26C360.122 367.168 360.824 366.466 360.824 365.603C360.824 364.741 360.122 364.039 359.26 364.039Z" fill="#FB9155"/>
<path d="M307.26 381.146H273.039C272.176 381.146 271.474 381.847 271.474 382.71C271.474 383.573 272.176 384.275 273.039 384.275H307.26C308.122 384.275 308.824 383.573 308.824 382.71C308.824 381.847 308.122 381.146 307.26 381.146Z" fill="#FB9155"/>
<path d="M359.26 381.146H325.039C324.176 381.146 323.474 381.847 323.474 382.71C323.474 383.573 324.176 384.275 325.039 384.275H359.26C360.122 384.275 360.824 383.573 360.824 382.71C360.824 381.847 360.122 381.146 359.26 381.146Z" fill="#FB9155"/>
<path d="M412.824 382.71C412.824 381.847 412.122 381.146 411.26 381.146H377.039C376.176 381.146 375.474 381.847 375.474 382.71C375.474 383.573 376.176 384.275 377.039 384.275H411.26C412.122 384.275 412.824 383.573 412.824 382.71Z" fill="#FB9155"/>
<path d="M287.26 350.381C288.122 350.381 288.824 349.679 288.824 348.816C288.824 347.954 288.122 347.252 287.26 347.252H253.039C252.176 347.252 251.474 347.954 251.474 348.816C251.474 349.679 252.176 350.381 253.039 350.381H287.26Z" fill="#FB9155"/>
<path d="M388.039 349.744H422.26C423.122 349.744 423.824 349.042 423.824 348.18C423.824 347.317 423.122 346.615 422.26 346.615H388.039C387.176 346.615 386.474 347.317 386.474 348.18C386.474 349.042 387.176 349.744 388.039 349.744Z" fill="#FB9155"/>
<path d="M301.676 350.073H372.623C373.486 350.073 374.187 349.371 374.187 348.509C374.187 347.646 373.486 346.944 372.623 346.944H301.676C300.813 346.944 300.111 347.646 300.111 348.509C300.111 349.371 300.813 350.073 301.676 350.073Z" fill="#FB9155"/>
<path d="M329.59 396.688H295.37C294.507 396.688 293.805 397.389 293.805 398.252C293.805 399.115 294.507 399.817 295.37 399.817H329.59C330.453 399.817 331.155 399.115 331.155 398.252C331.155 397.389 330.453 396.688 329.59 396.688Z" fill="#FB9155"/>
<path d="M440.111 316.199V422.199C440.111 431.573 432.485 439.199 423.111 439.199H317.111C307.737 439.199 300.111 431.573 300.111 422.199V316.199C300.111 306.825 307.737 299.199 317.111 299.199H423.111C432.485 299.199 440.111 306.825 440.111 316.199Z" fill="white"/>
<path d="M440.111 316.199V422.199C440.111 431.573 432.485 439.199 423.111 439.199H317.111C307.737 439.199 300.111 431.573 300.111 422.199V316.199C300.111 306.825 307.737 299.199 317.111 299.199H423.111C432.485 299.199 440.111 306.825 440.111 316.199ZM416.535 437.199C428.451 437.199 438.111 427.539 438.111 415.623V368.758C438.111 331.446 407.864 301.199 370.552 301.199H317.111C308.827 301.199 302.111 307.915 302.111 316.199V407.41C302.111 423.862 315.448 437.199 331.901 437.199L416.535 437.199Z" fill="#3F3D56"/>
<path d="M384.222 342.491H350.001C349.138 342.491 348.436 341.789 348.436 340.927C348.436 340.064 349.138 339.362 350.001 339.362H384.222C385.084 339.362 385.786 340.064 385.786 340.927C385.786 341.789 385.084 342.491 384.222 342.491Z" fill="#FB9155"/>
<path d="M384.222 375.855H350.001C349.138 375.855 348.436 375.153 348.436 374.29C348.436 373.427 349.138 372.726 350.001 372.726H384.222C385.084 372.726 385.786 373.427 385.786 374.29C385.786 375.153 385.084 375.855 384.222 375.855Z" fill="#FB9155"/>
<path d="M367.222 421.855H333.001C332.138 421.855 331.436 421.153 331.436 420.29C331.436 419.427 332.138 418.726 333.001 418.726H367.222C368.084 418.726 368.786 419.427 368.786 420.29C368.786 421.153 368.084 421.855 367.222 421.855Z" fill="#FB9155"/>
<path d="M402.585 359.184H331.638C330.775 359.184 330.073 358.482 330.073 357.619C330.073 356.756 330.775 356.055 331.638 356.055H402.585C403.448 356.055 404.149 356.756 404.149 357.619C404.149 358.482 403.448 359.184 402.585 359.184Z" fill="#FB9155"/>
<path d="M420.167 257.462C420.167 224.395 392.218 206.204 360.293 197.588C319.362 186.542 289.385 208.894 300.42 257.462C302.921 268.469 308.902 281.325 316.306 292.322H375.06C394.686 279.545 420.167 283.128 420.167 257.462Z" fill="#FB9155"/>
<path d="M359.414 319.972C362.756 313.601 366.994 309.004 371.662 305.505H316.632C330.796 325.737 349.579 338.721 359.414 319.972Z" fill="#FB9155"/>
<path d="M353.064 222.062C356.597 222.062 359.461 224.926 359.461 228.459V241.253H346.667V228.459C346.667 224.926 349.531 222.062 353.064 222.062ZM362.659 241.253V228.459C362.659 223.16 358.363 218.864 353.064 218.864C347.765 218.864 343.469 223.16 343.469 228.459V241.253C339.936 241.253 337.072 244.117 337.072 247.649V263.641C337.072 267.174 339.936 270.038 343.469 270.038H362.659C366.192 270.038 369.056 267.174 369.056 263.641V247.649C369.056 244.117 366.192 241.253 362.659 241.253ZM343.469 244.451H362.659C364.426 244.451 365.858 245.883 365.858 247.649V263.641C365.858 265.408 364.426 266.84 362.659 266.84H343.469C341.703 266.84 340.271 265.408 340.271 263.641V247.649C340.271 245.883 341.703 244.451 343.469 244.451Z" fill="white"/>
<path d="M261.65 296.543C260.879 302.983 263.576 308.602 267.674 309.093C271.773 309.583 275.72 304.761 276.491 298.32C276.829 295.501 276.502 292.84 275.684 290.697L278.61 263.367L265.755 262.268L264.235 289.326C262.934 291.215 261.988 293.724 261.65 296.543Z" fill="#9F616A"/>
<path d="M264.734 133.5C264.734 133.5 278.734 129.5 281.734 135.5C284.734 141.5 291.734 220.5 291.734 220.5L278.234 283.559L262.734 279.5L270.734 215.5L259.734 167.5L264.734 133.5Z" fill="#E6E6E6"/>
<path d="M59 325.34C91.3086 325.34 117.5 299.148 117.5 266.84C117.5 234.531 91.3086 208.34 59 208.34C26.6913 208.34 0.5 234.531 0.5 266.84C0.5 299.148 26.6913 325.34 59 325.34Z" fill="#FB9155"/>
<path d="M59 240.651C63.1325 240.651 66.4825 244.001 66.4825 248.134V263.099H51.5174V248.134C51.5174 244.001 54.8675 240.651 59 240.651ZM70.2238 263.099V248.134C70.2238 241.935 65.1987 236.91 59 236.91C52.8012 236.91 47.7761 241.935 47.7761 248.134V263.099C43.6436 263.099 40.2936 266.449 40.2936 270.581V289.288C40.2936 293.42 43.6436 296.77 47.7761 296.77H70.2238C74.3563 296.77 77.7064 293.42 77.7064 289.288V270.581C77.7064 266.449 74.3563 263.099 70.2238 263.099ZM47.7762 266.84H70.2238C72.2901 266.84 73.9651 268.515 73.9651 270.581V289.288C73.9651 291.354 72.2901 293.029 70.2238 293.029H47.7762C45.7099 293.029 44.0349 291.354 44.0349 289.288V270.581C44.0349 268.515 45.7099 266.84 47.7762 266.84Z" fill="white"/>
</g>
<defs>
<clipPath id="clip0_39_158">
<rect width="564.984" height="512.296" fill="white" transform="translate(0.5)"/>
</clipPath>
</defs>
</svg>
