<svg width="678" height="800" viewBox="0 0 678 800" fill="none" xmlns="http://www.w3.org/2000/svg">
<g clip-path="url(#clip0_39_137)">
<path d="M482.211 671.305L488.911 799.952C488.911 799.952 205.494 530.202 170.185 451.277C134.876 372.352 201.34 177.114 201.34 177.114L348.806 258.114L482.211 671.305Z" fill="#9F616A"/>
<path d="M47.643 123.115L4.02595 127.269C4.02595 127.269 -18.8211 177.117 51.7969 181.269L47.643 123.115Z" fill="#9F616A"/>
<path d="M47.643 199.96L4.02595 204.117C4.02595 204.117 -18.8211 253.965 51.7969 258.117L47.643 199.96Z" fill="#9F616A"/>
<path d="M47.643 283.04L4.02595 287.194C4.02595 287.194 -18.8211 337.042 51.7969 341.194L47.643 283.04Z" fill="#9F616A"/>
<path d="M60.105 366.119L16.488 370.273C16.488 370.273 -6.35902 420.121 64.259 424.273L60.105 366.119Z" fill="#9F616A"/>
<path d="M26.408 143.137H29.718V52.473C29.718 38.5561 35.2464 25.2091 45.0872 15.3683C54.928 5.52752 68.275 -0.000976562 82.192 -0.000976562H274.274C288.191 -0.000976562 301.538 5.52752 311.379 15.3683C321.219 25.2091 326.748 38.5561 326.748 52.473V549.861C326.748 556.752 325.391 563.576 322.754 569.942C320.117 576.308 316.251 582.093 311.379 586.966C306.506 591.838 300.721 595.704 294.355 598.341C287.988 600.978 281.165 602.335 274.274 602.335H82.192C75.301 602.335 68.4775 600.978 62.111 598.341C55.7446 595.704 49.9599 591.838 45.0872 586.966C40.2146 582.093 36.3494 576.308 33.7123 569.942C31.0752 563.576 29.718 556.752 29.718 549.861V207.673H26.408V143.137Z" fill="#3F3D56"/>
<path d="M80.074 13.6519H105.147C103.994 16.4786 103.554 19.5454 103.865 22.5822C104.177 25.6191 105.23 28.5327 106.933 31.0666C108.636 33.6004 110.935 35.6766 113.629 37.1124C116.323 38.5481 119.329 39.2994 122.382 39.2999H232.426C235.479 39.2995 238.485 38.5484 241.179 37.1126C243.874 35.6769 246.173 33.6006 247.876 31.0667C249.579 28.5327 250.633 25.6189 250.944 22.5819C251.256 19.5448 250.816 16.4778 249.663 13.6509H273.082C283.475 13.6512 293.442 17.7798 300.79 25.1285C308.139 32.4773 312.268 42.4442 312.268 52.8369V549.495C312.268 559.888 308.14 569.855 300.791 577.204C293.442 584.553 283.475 588.682 273.082 588.682H80.074C69.6809 588.682 59.7136 584.553 52.3646 577.204C45.0156 569.855 40.887 559.888 40.887 549.495V52.8369C40.887 42.4439 45.0156 32.4765 52.3646 25.1275C59.7136 17.7785 69.6809 13.6499 80.074 13.6499V13.6519Z" fill="white"/>
<path d="M209.93 152.79H143.227C138.809 152.79 135.227 156.372 135.227 160.79V164.747C135.227 169.165 138.809 172.747 143.227 172.747H209.93C214.348 172.747 217.93 169.165 217.93 164.747V160.79C217.93 156.372 214.348 152.79 209.93 152.79Z" fill="#FB9155"/>
<path d="M213.867 238.544H139.289C134.871 238.544 131.289 242.126 131.289 246.544V250.501C131.289 254.919 134.871 258.501 139.289 258.501H213.867C218.285 258.501 221.867 254.919 221.867 250.501V246.544C221.867 242.126 218.285 238.544 213.867 238.544Z" fill="#E5E5E5"/>
<path d="M269.659 281.416H83.498C79.0797 281.416 75.498 284.998 75.498 289.416V293.373C75.498 297.791 79.0797 301.373 83.498 301.373H269.659C274.077 301.373 277.659 297.791 277.659 293.373V289.416C277.659 284.998 274.077 281.416 269.659 281.416Z" fill="#E5E5E5"/>
<path d="M269.659 324.285H83.498C79.0797 324.285 75.498 327.867 75.498 332.285V336.242C75.498 340.66 79.0797 344.242 83.498 344.242H269.659C274.077 344.242 277.659 340.66 277.659 336.242V332.285C277.659 327.867 274.077 324.285 269.659 324.285Z" fill="#E5E5E5"/>
<path d="M677.862 738.308L665.019 723.655L445.386 473.085L437.078 302.772L349.846 157.382L324.922 95.0723C324.922 95.0723 266.766 101.303 314.537 219.691L334.268 283.039C316.482 321.348 307.268 363.077 307.268 405.313V550.476C307.268 584.657 470.154 770.842 489.114 799.282L677.862 738.308Z" fill="#9F616A"/>
<path opacity="0.2" d="M331.76 169.703L349.102 161.18L348.511 159.98L332.488 167.856L308.3 104.435L307.048 104.913L331.76 169.703Z" fill="black"/>
<path opacity="0.2" d="M4.25817 126.637L3.79498 127.894L29.4854 137.357L29.9486 136.1L4.25817 126.637Z" fill="black"/>
<path opacity="0.2" d="M4.25914 204.361L3.79596 205.618L29.4864 215.082L29.9496 213.824L4.25914 204.361Z" fill="black"/>
<path opacity="0.2" d="M4.25914 287.446L3.79596 288.703L29.4864 298.167L29.9496 296.909L4.25914 287.446Z" fill="black"/>
<path opacity="0.2" d="M17.7188 370.553L17.139 371.761L29.6469 377.764L30.2267 376.556L17.7188 370.553Z" fill="black"/>
<path d="M176.43 516.862C208.424 516.862 234.361 490.925 234.361 458.931C234.361 426.937 208.424 401 176.43 401C144.436 401 118.499 426.937 118.499 458.931C118.499 490.925 144.436 516.862 176.43 516.862Z" fill="#FB9155"/>
<path d="M170.226 483.451C169.522 483.452 168.825 483.314 168.174 483.044C167.524 482.775 166.933 482.38 166.436 481.881L148.07 462.516C147.065 461.511 146.5 460.147 146.5 458.726C146.5 457.304 147.065 455.94 148.07 454.935C149.075 453.93 150.439 453.365 151.86 453.365C153.282 453.365 154.646 453.93 155.651 454.935L170.226 470.51L197.166 434.57C198.171 433.565 199.535 433 200.956 433C202.378 433 203.742 433.565 204.747 434.57C205.752 435.575 206.317 436.939 206.317 438.361C206.317 439.782 205.752 441.146 204.747 442.151L174.016 481.881C173.519 482.38 172.928 482.775 172.278 483.044C171.627 483.314 170.93 483.452 170.226 483.451Z" fill="#F2F2F2"/>
</g>
<defs>
<clipPath id="clip0_39_137">
<rect width="677.362" height="799.951" fill="white" transform="translate(0.5)"/>
</clipPath>
</defs>
</svg>
