<svg width="868" height="444" viewBox="0 0 868 444" fill="none" xmlns="http://www.w3.org/2000/svg">
<g clip-path="url(#clip0_39_215)">
<path d="M828.835 244.952L826.12 266.574L819.381 320.278H683.998C685.055 308.241 686.5 290.916 688.044 272.213C688.196 270.345 688.356 268.465 688.508 266.574C692.38 219.559 696.616 166.357 696.616 166.357L714.415 169.673L748.947 176.094L763.019 178.709L800.7 185.726C819.487 189.217 832.41 216.419 828.835 244.952Z" fill="#F2F2F2"/>
<path d="M726.43 79.3574L743.079 108.491L711.08 131.168L697.43 95.3574L726.43 79.3574Z" fill="#9F616A"/>
<path d="M705.235 106.919C728.014 106.919 746.479 88.4537 746.479 65.6752C746.479 42.8968 728.014 24.4312 705.235 24.4312C682.457 24.4312 663.991 42.8968 663.991 65.6752C663.991 88.4537 682.457 106.919 705.235 106.919Z" fill="#9F616A"/>
<path d="M702.274 74.8957C698.999 69.9115 700.284 67.3045 697.543 65.4728C697.543 65.4728 696.439 64.7357 688.543 64.3155C686.775 51.5916 684.568 50.0486 684.568 50.0486C682.025 48.2702 678.25 48.848 675.902 49.9357C670.936 52.2361 671.511 57.2052 668.167 58.1561C663.548 59.4696 655.143 52.0645 654.315 43.5871C653.64 36.672 658.095 29.9557 659.862 30.311C661.614 30.6633 665.809 25.308 668.074 25.3906C669.621 25.447 675.941 22.7001 677.641 22.9148C679.498 23.1494 685.619 26.3441 685.874 25.6142C687.647 20.5422 687.126 19.1349 688.63 17.6839C691.296 15.1128 695.656 16.9032 702.497 17.8645C716.571 19.8422 719.027 15.2015 726.24 18.347C729.884 19.936 732.932 24.2212 738.881 32.7268C747.2 44.6218 751.36 50.5693 751.387 57.5062C751.414 64.5806 747.988 64.1316 746.483 74.6046C744.808 86.2629 748.367 91.5937 744.479 95.3812C741.474 98.3085 735.366 99.0034 732.157 96.4342C726.663 92.0357 733.853 81.4219 727.773 73.6675C724.041 68.9076 716.535 66.7896 713.097 69.1425C709.209 71.803 711.351 79.6118 708.617 80.3523C706.276 80.9864 702.845 75.7642 702.274 74.8957Z" fill="#2F2E41"/>
<path d="M798.35 237.338C797.2 257.008 792.63 263.218 791.03 286.448C790.68 291.548 790.47 297.468 790.47 304.528C790.47 306.328 790.48 308.068 790.48 309.768C790.48 313.388 790.411 316.808 789.99 320.278C789.67 323.048 789.121 325.838 788.21 328.778H699.38C699.371 328.758 699.371 328.738 699.36 328.718C698.84 326.458 698.51 324.298 698.26 322.228C698.18 321.568 698.11 320.918 698.05 320.278C697.97 319.528 697.9 318.788 697.831 318.058C697.56 315.148 697.291 312.398 696.65 309.768C695.791 306.138 694.23 302.718 691.03 299.418C689.72 298.068 688.411 297.018 687.13 296.098C686.88 295.928 686.64 295.758 686.39 295.588C682.85 293.158 679.5 291.408 676.6 286.448C676.55 286.378 676.51 286.298 676.47 286.228C675.97 285.358 674.67 283.078 673.73 280.038C672.74 276.878 672.14 272.908 673.22 268.848C675.791 259.228 685.31 258.268 693.09 248.548C693.93 247.498 694.76 246.338 695.55 245.048C699.07 239.328 700.02 234.288 701.14 228.298C701.32 227.328 701.48 226.368 701.61 225.438C701.71 224.738 701.8 224.048 701.871 223.368C702.49 217.658 702.19 212.738 701.46 208.338C699.081 193.928 692.06 185.008 697.02 172.078C698.581 168.018 700.791 164.968 703.02 162.358C707.74 156.828 712.59 153.238 711.75 146.098C710.9 138.898 705.44 137.908 704.831 131.618C704.52 128.438 705.56 125.088 707.51 121.798V121.788C713.75 111.198 729.331 101.448 739.23 101.758C741.06 101.808 742.68 102.218 744.03 103.008C748.92 105.888 746.88 112.178 754.371 120.998C759.94 127.548 766.24 130.168 768.63 131.408C778.1 136.348 785.8 150.918 791.03 169.548C791.07 169.688 791.11 169.828 791.15 169.978C794.38 181.648 796.661 194.898 797.791 208.338C798.27 214.028 798.55 219.748 798.61 225.408C798.661 229.928 798.56 233.848 798.35 237.338Z" fill="#FB9155"/>
<path d="M731.831 304.728L730.02 309.768L728.88 312.928L726.24 320.278L723.18 328.778H703.51L706.81 320.278L708.34 316.318L710.88 309.768L715.14 298.768L731.831 304.728Z" fill="#9F616A"/>
<path d="M791.34 167.827C791.291 168.478 791.22 169.198 791.15 169.978C790.371 177.918 788.53 192.128 785.84 208.338C784.42 216.888 782.76 225.998 780.89 235.048C776.871 254.577 771.871 273.808 766.22 286.448C765.21 288.728 764.17 290.788 763.11 292.608C762.3 293.998 761.45 295.368 760.56 296.718C757.68 301.148 754.45 305.348 751.1 309.268C750.97 309.438 750.82 309.598 750.67 309.768C750.13 310.408 749.57 311.038 749.01 311.668C746.27 314.758 743.47 317.638 740.76 320.278C737.46 323.498 734.28 326.348 731.43 328.778H699.49L699.36 328.718L694.76 326.678C694.76 326.678 696.07 325.138 698.26 322.228C698.71 321.638 699.19 320.988 699.71 320.278C700.35 319.408 701.041 318.448 701.78 317.408C703.32 315.228 705.07 312.668 706.95 309.768C710.59 304.158 714.74 297.258 718.93 289.268C719.411 288.338 719.9 287.398 720.39 286.448C720.4 286.418 720.42 286.387 720.43 286.358C721.26 284.738 722.081 283.068 722.9 281.368C729.85 266.908 731.84 254.908 732.411 251.018C733.21 245.518 734.32 237.827 734.02 229.367C733.82 223.788 733.01 217.888 731.081 212.028V212.018C730.68 210.788 730.23 209.558 729.72 208.338C728.81 206.148 727.73 203.988 726.45 201.858C720.8 192.478 716.21 192.088 712.56 181.867C711.48 178.838 709.03 171.998 709.78 164.778V164.768C709.871 163.878 710.02 162.978 710.22 162.077V162.068C710.27 161.818 710.34 161.558 710.411 161.308C710.98 159.098 711.92 156.908 713.35 154.827C716.14 150.788 719.95 148.388 723.36 146.958L723.371 146.948C727.31 145.308 730.71 144.958 731.371 144.898C745.98 143.598 757.31 155.878 763.5 162.588C765.89 165.178 768.081 167.348 770.081 169.117C785.65 183.018 789.92 174.138 791.03 169.548C791.2 168.838 791.291 168.228 791.34 167.827Z" fill="#FB9155"/>
<path d="M791.39 167.308C791.39 167.358 791.38 167.528 791.34 167.808C791.36 167.658 791.371 167.508 791.38 167.368C791.38 167.338 791.38 167.318 791.39 167.308Z" fill="#FB9155"/>
<path d="M711.97 378.317H175.92C170.94 378.317 166.88 382.367 166.88 387.348C166.88 392.337 170.94 396.387 175.92 396.387H711.97C716.95 396.387 721 392.337 721 387.348C721 382.367 716.95 378.317 711.97 378.317Z" fill="#E6E6E6"/>
<path d="M593.01 424.998H294.87C289.89 424.998 285.84 429.048 285.84 434.028C285.84 439.008 289.89 443.068 294.87 443.068H593.01C597.99 443.068 602.05 439.008 602.05 434.028C602.05 429.048 597.99 424.998 593.01 424.998Z" fill="#E6E6E6"/>
<path d="M235.569 81.2749L269.353 67.0571L283.844 96.7626L248.342 111.253L235.569 81.2749Z" fill="#9F616A"/>
<path opacity="0.1" d="M235.569 81.2749L269.353 67.0571L283.844 96.7626L248.342 111.253L235.569 81.2749Z" fill="black"/>
<path d="M240.372 69.9552L273.7 108.355C273.7 108.355 250.516 181.532 227.331 188.053C204.146 194.573 161.399 226.452 161.399 226.452L107.784 191.675L133.867 153.275C133.867 153.275 196.901 67.0571 213.565 67.0571C230.229 67.0571 240.372 69.9552 240.372 69.9552Z" fill="#FB9155"/>
<path d="M195.343 320.278H117.761L112.856 313.721L92.8303 286.95L88.2223 280.791C88.2223 280.791 70.8337 248.912 74.4564 219.931C78.079 190.95 115.754 184.43 115.754 184.43H117.305L163.428 224.959L160.675 262.678L175.281 286.95L195.343 320.278Z" fill="#2F2E41"/>
<path d="M133.65 320.278H112.856V289.486L133.65 320.278Z" fill="#2F2E41"/>
<path d="M582.144 273.532L579.558 286.95L573.138 320.278H444.181C445.188 312.808 446.564 302.056 448.035 290.449C448.18 289.29 448.332 288.124 448.477 286.95C452.165 257.773 456.2 224.757 456.2 224.757L473.154 226.815L506.047 230.799L519.451 232.422L555.344 236.777C573.24 238.943 585.549 255.824 582.144 273.532Z" fill="#F2F2F2"/>
<path d="M764.644 320.278H694.699C695.764 319.024 696.365 318.3 696.365 318.3L717.333 314.836L760.536 307.707C760.536 307.707 762.507 312.8 764.644 320.278Z" fill="#2F2E41"/>
<path d="M467.955 95.7661L498.373 138.784L445.314 140.369L439.619 99.9418L467.955 95.7661Z" fill="#A0616A"/>
<path opacity="0.1" d="M467.955 95.7661L498.373 138.784L445.314 140.369L439.619 99.9418L467.955 95.7661Z" fill="black"/>
<path d="M317.946 184.896C314.043 173.637 305.07 166.525 297.905 169.01C290.74 171.495 288.097 182.635 292.003 193.898C293.502 198.418 296.061 202.514 299.467 205.842L316.607 253.339L338.724 244.821L319.479 198.902C320.094 194.178 319.568 189.375 317.946 184.896Z" fill="#A0616A"/>
<path d="M523.847 162.977L523.806 206.817L519.727 223.011L511.337 256.317L505.229 286.95L500.679 309.772L499.056 317.923C497.831 318.742 496.614 319.524 495.397 320.278H389.421C383.4 316.663 380.031 313.851 380.031 313.851C380.031 313.851 381.698 312.286 383.603 309.772C386.82 305.527 390.711 298.571 388.327 291.927C387.827 290.536 387.697 288.841 387.849 286.95C388.82 274.474 401.905 253.375 401.905 253.375L399.195 222.061L398.007 208.339L406.384 141.429L433.692 125.555L438.406 125.099L484.942 122.584L504.177 123.693L505.053 123.932L523.847 162.977Z" fill="#CCCCCC"/>
<path d="M525.914 320.278H502.729L501.708 309.772L501.686 309.562L508.25 309.113L525.327 307.946L525.624 314.235L525.856 319.061L525.914 320.278Z" fill="#9F616A"/>
<path d="M531.621 173.577L541.361 230.72L533.413 286.95L532.174 295.702L529.986 311.156L529.312 315.909L529.334 316.424L529.5 320.278H501.969L500.954 309.772L500.867 308.831L498.795 287.312L498.759 286.95L494.361 241.319L502.983 208.339L503.621 205.912V205.905L507.372 149.435L504.466 123.773L504.437 123.534C504.495 123.57 504.546 123.606 504.604 123.642C504.756 123.737 504.908 123.831 505.053 123.932C521.978 134.67 532.064 153.507 531.621 173.577Z" fill="#CCCCCC"/>
<path d="M416.248 152.379L405.66 141.428C405.66 141.428 382.996 151.646 381.866 157.314C380.737 162.983 340.72 246.24 340.72 246.24L323.31 199.741L300.648 214.872C300.648 214.872 318.832 287.063 335.838 290.453C352.844 293.842 409.839 205.007 409.839 205.007L416.248 152.379Z" fill="#CCCCCC"/>
<path d="M846.14 286.447H21.6602C9.99024 286.447 0.5 295.947 0.5 307.617C0.5 319.287 9.99023 328.777 21.6602 328.777H846.14C857.81 328.777 867.31 319.288 867.31 307.617C867.31 295.947 857.81 286.447 846.14 286.447Z" fill="#E6E6E6"/>
<path d="M519.022 221.94L517.419 296.742C517.264 303.983 511.35 309.772 504.107 309.772H366.504C359.433 309.772 353.595 304.244 353.209 297.184L349.119 222.381C348.702 214.753 354.775 208.339 362.415 208.339H505.71C513.175 208.339 519.182 214.476 519.022 221.94Z" fill="#3F3D56"/>
<path d="M296.885 99.3314C315.067 99.3314 329.807 84.5918 329.807 66.4096C329.807 48.2274 315.067 33.4878 296.885 33.4878C278.703 33.4878 263.963 48.2274 263.963 66.4096C263.963 84.5918 278.703 99.3314 296.885 99.3314Z" fill="#9F616A"/>
<path d="M241.821 152.551L245.444 191.675L270.078 290.935L248.796 298.394L212.84 190.226L207.874 146.754L241.821 152.551Z" fill="#9F616A"/>
<path d="M232.022 221.94L230.419 296.742C230.264 303.983 224.35 309.772 217.107 309.772H79.5043C72.4328 309.772 66.5947 304.244 66.2087 297.184L62.1194 222.381C61.7024 214.753 67.7754 208.339 75.4149 208.339H218.71C226.175 208.339 232.182 214.476 232.022 221.94Z" fill="#3F3D56"/>
<path d="M274 310.278C288.359 310.278 300 305.129 300 298.778C300 292.427 288.359 287.278 274 287.278C259.641 287.278 248 292.427 248 298.778C248 305.129 259.641 310.278 274 310.278Z" fill="#9F616A"/>
<path d="M190.742 158.532L205.595 79.3739C205.595 79.3739 246.893 73.5777 248.342 87.3436C249.791 101.11 247.306 168.386 247.306 168.386L190.742 158.532Z" fill="#FB9155"/>
<path d="M283.595 71.5859C283.595 71.5859 303.961 64.3176 312.551 60.4068C321.142 56.4961 338.208 83.7732 338.588 69.3673C338.968 54.9613 333.07 48.9201 333.07 48.9201C333.07 48.9201 331.598 17.405 299.847 21.3451C299.847 21.3451 306.831 5.5778 283.906 3.13967C260.982 0.701545 225.317 56.0606 228.511 64.3338C231.705 72.6069 235.534 79.4466 226.472 88.2924C217.41 97.1382 200.442 147.062 213.352 160.496C226.262 173.93 227.11 179.759 218.264 188.117C209.418 196.474 188.51 214.647 211.117 217.802C233.724 220.957 209.049 218.6 225.902 203.776C242.756 188.951 267.35 189.556 258.167 165.771C248.984 141.986 264.938 107.902 262.942 102.731C260.946 97.5605 267.414 64.7262 267.414 64.7262C267.414 64.7262 282.469 62.5143 283.595 71.5859Z" fill="#2F2E41"/>
<path d="M451.691 111.337C471.484 111.337 487.529 95.2916 487.529 75.4989C487.529 55.7062 471.484 39.6611 451.691 39.6611C431.898 39.6611 415.853 55.7062 415.853 75.4989C415.853 95.2916 431.898 111.337 451.691 111.337Z" fill="#A0616A"/>
<path d="M454.551 27.3174C453.514 27.9228 452.125 27.0069 451.793 25.8531C451.46 24.6993 451.847 23.4743 452.232 22.3366L454.165 16.6095C455.537 12.5476 456.992 8.34387 459.962 5.25229C464.445 0.586053 471.569 -0.601016 477.982 0.258974C486.218 1.36337 494.344 5.82302 498.174 13.1976C502.003 20.5723 500.373 30.8625 493.453 35.4635C503.315 46.7669 506.753 59.3641 506.21 74.355C505.667 89.346 489.331 103.143 478.677 113.703C476.298 112.261 474.135 105.502 475.444 103.047C476.752 100.592 474.877 97.747 476.498 95.4854C478.118 93.2238 479.474 96.8249 477.835 94.5762C476.802 93.1572 480.836 89.8926 479.3 89.0433C471.868 84.9354 469.396 75.6722 464.729 68.5787C459.099 60.0226 449.463 54.2283 439.266 53.267C433.649 52.7375 427.716 53.6966 423.112 56.9576C418.508 60.2187 415.527 66.0462 416.595 71.5863C413.83 68.7788 412.453 64.6643 412.972 60.7581C413.492 56.8518 415.895 53.2397 419.297 51.2518C417.228 44.4104 419.001 36.5407 423.803 31.2466C428.604 25.9525 448.083 26.8542 455.093 28.2475L454.551 27.3174Z" fill="#2F2E41"/>
<path d="M455.64 53.4746C464.925 54.4769 471.629 62.5197 477.289 69.9471C480.552 74.2282 483.97 78.9559 483.888 84.3379C483.805 89.7793 480.167 94.4465 478.428 99.6033C475.587 108.032 478.356 118.061 485.122 123.836C478.437 125.105 471.21 120.092 470.056 113.387C468.713 105.581 474.63 98.0469 473.929 90.1572C473.312 83.2062 467.834 77.8566 463.178 72.6594C458.521 67.4622 454.147 60.5657 456.29 53.9244L455.64 53.4746Z" fill="#2F2E41"/>
<path d="M594.447 290.977C585.251 296.208 580.495 305.193 583.825 311.046C587.155 316.898 597.308 317.401 606.507 312.167C610.211 310.126 613.372 307.229 615.726 303.716L654.413 281.06L643.394 263.132L606.425 287.37C602.202 287.599 598.095 288.836 594.447 290.977Z" fill="#9F616A"/>
<path d="M725.435 124.841C724.279 124.383 714.134 120.541 704.873 125.613C694.235 131.439 692.592 144.739 692.016 149.404C690.684 160.18 694.606 162.596 695.434 173.505C696.983 193.915 701.068 170.631 694.545 179.947C692.287 183.172 669.228 233.146 656.51 242.934C631.777 261.971 616.071 275.378 616.071 275.378L634.001 294.856C634.001 294.856 662.335 287.306 687.378 271.045C713.066 254.365 725.91 246.026 735.847 229.71C736.703 228.305 757.178 193.534 746.182 155.086C743.674 146.316 739.078 130.247 725.435 124.841Z" fill="#FB9155"/>
<path d="M818.022 221.94L816.419 296.742C816.264 303.983 810.35 309.772 803.107 309.772H665.504C658.433 309.772 652.595 304.244 652.209 297.184L648.119 222.381C647.702 214.753 653.775 208.339 661.415 208.339H804.71C812.175 208.339 818.182 214.476 818.022 221.94Z" fill="#3F3D56"/>
</g>
<defs>
<clipPath id="clip0_39_215">
<rect width="866.81" height="443.068" fill="white" transform="translate(0.5)"/>
</clipPath>
</defs>
</svg>
