<svg width="452" height="377" viewBox="0 0 452 377" fill="none" xmlns="http://www.w3.org/2000/svg">
<g clip-path="url(#clip0_205_69)">
<path d="M21.003 359.241C27.2726 370.859 40.5792 375.846 40.5792 375.846C40.5792 375.846 43.7205 361.997 37.4509 350.38C31.1812 338.763 17.8746 333.775 17.8746 333.775C17.8746 333.775 14.7333 347.624 21.003 359.241Z" fill="#2F2E41"/>
<path d="M25.3123 355.419C36.6316 362.223 40.9911 375.739 40.9911 375.739C40.9911 375.739 26.9982 378.222 15.6788 371.418C4.35945 364.613 0 351.098 0 351.098C0 351.098 13.9929 348.615 25.3123 355.419Z" fill="#B07B5E"/>
<path d="M295.237 57.4129H294.228V66.7375H295.237V57.4129Z" fill="#B07B5E"/>
<path d="M358.295 80.0943H357.286V89.4189H358.295V80.0943Z" fill="#B07B5E"/>
<path d="M351.233 313.964H350.224V323.289H351.233V313.964Z" fill="#B07B5E"/>
<path d="M365.862 236.848H364.853V246.172H365.862V236.848Z" fill="#B07B5E"/>
<path d="M182.646 353.922H63.1963V353.063H181.787V311.42H73.2382L67.965 300.444L68.7398 300.073L73.7789 310.562H182.646V353.922Z" fill="#2F2E41"/>
<path d="M79.0943 374.958C84.0776 374.958 88.1175 370.921 88.1175 365.942C88.1175 360.963 84.0776 356.927 79.0943 356.927C74.1109 356.927 70.071 360.963 70.071 365.942C70.071 370.921 74.1109 374.958 79.0943 374.958Z" fill="#3F3D56"/>
<path d="M168.037 374.958C173.021 374.958 177.061 370.921 177.061 365.942C177.061 360.963 173.021 356.927 168.037 356.927C163.054 356.927 159.014 360.963 159.014 365.942C159.014 370.921 163.054 374.958 168.037 374.958Z" fill="#3F3D56"/>
<path d="M272.879 180.052C275.963 180.052 278.464 177.554 278.464 174.472C278.464 171.389 275.963 168.891 272.879 168.891C269.794 168.891 267.293 171.389 267.293 174.472C267.293 177.554 269.794 180.052 272.879 180.052Z" fill="#3F3D56"/>
<path d="M195.422 297.253H61.1596L32.1084 202.376H225.34L225.165 202.935L195.422 297.253ZM61.7953 296.395H194.792L224.169 203.235H33.2699L61.7953 296.395Z" fill="#2F2E41"/>
<path d="M184.942 292.316H67.0141L41.4973 208.172H211.22L211.065 208.667L184.942 292.316Z" fill="#B07B5E"/>
<path d="M227.748 193.9L226.917 193.68L232.588 172.325H265.574V173.184H233.249L227.748 193.9Z" fill="#2F2E41"/>
<path d="M215.684 231.14H41.4963V231.999H215.684V231.14Z" fill="#2F2E41"/>
<path d="M205.709 262.773H51.1824V263.631H205.709V262.773Z" fill="#2F2E41"/>
<path d="M129.152 202.806H128.292V296.824H129.152V202.806Z" fill="#2F2E41"/>
<path d="M167.626 202.779L161.458 296.795L162.315 296.851L168.484 202.835L167.626 202.779Z" fill="#2F2E41"/>
<path d="M89.8352 202.778L88.9775 202.834L95.1105 296.852L95.9682 296.796L89.8352 202.778Z" fill="#2F2E41"/>
<path d="M452 375.502H0V376.51H452V375.502Z" fill="#2F2E41"/>
<path d="M300.363 31.1873C300.363 31.1873 307.738 52.1581 303.2 55.3844C298.662 58.6107 318.516 84.9586 318.516 84.9586L342.341 78.5061L329.294 56.4598C329.294 56.4598 327.592 34.4136 327.592 31.1873C327.592 27.961 300.363 31.1873 300.363 31.1873Z" fill="#A0616A"/>
<path opacity="0.1" d="M300.363 31.1873C300.363 31.1873 307.738 52.1581 303.2 55.3844C298.662 58.6107 318.516 84.9586 318.516 84.9586L342.341 78.5061L329.294 56.4598C329.294 56.4598 327.592 34.4136 327.592 31.1873C327.592 27.961 300.363 31.1873 300.363 31.1873Z" fill="#022D13"/>
<path d="M287.985 180.672C287.985 180.672 285.833 207.557 287.985 221.538C290.138 235.518 293.367 274.234 293.367 274.234C293.367 274.234 293.367 347.363 305.207 348.438C317.047 349.513 325.658 350.589 326.734 346.287C327.81 341.985 321.352 339.835 324.581 337.684C327.81 335.533 328.887 328.005 324.581 319.402C320.276 310.798 324.581 223.689 324.581 223.689L345.032 278.535C345.032 278.535 347.185 323.703 349.337 330.156C351.49 336.608 347.185 348.438 354.719 349.513C362.254 350.589 370.864 344.136 375.17 341.985C379.475 339.835 368.712 339.835 370.864 338.759C373.017 337.684 379.475 334.457 377.323 333.382C375.17 332.307 373.017 280.686 373.017 280.686C373.017 280.686 367.097 170.455 359.563 166.153C352.028 161.852 347.185 169.261 347.185 169.261L287.985 180.672Z" fill="#2F2E41"/>
<path d="M307.36 344.136V352.74C307.36 352.74 297.673 376.126 307.36 376.126C317.047 376.126 324.581 378.55 324.581 375.324V346.287L307.36 344.136Z" fill="#2F2E41"/>
<path d="M370.864 344.121V352.724C370.864 352.724 380.552 376.111 370.864 376.111C361.177 376.111 353.643 378.535 353.643 375.308V346.272L370.864 344.121Z" fill="#2F2E41"/>
<path d="M315.432 46.781C326.133 46.781 334.807 38.1143 334.807 27.4233C334.807 16.7324 326.133 8.06567 315.432 8.06567C304.732 8.06567 296.058 16.7324 296.058 27.4233C296.058 38.1143 304.732 46.781 315.432 46.781Z" fill="#A0616A"/>
<path d="M309.512 63.4501C309.512 63.4501 314.894 79.5815 323.505 76.3552L332.116 73.1289L347.185 176.37C347.185 176.37 335.345 193.577 318.123 182.822C300.902 172.068 309.512 63.4501 309.512 63.4501Z" fill="#B07B5E"/>
<path d="M324.581 60.2239L329.425 50.0073C329.425 50.0073 357.948 63.4501 362.254 67.7519C366.559 72.0536 366.559 78.5061 366.559 78.5061L359.025 105.392C359.025 105.392 361.177 164.54 361.177 166.691C361.177 168.842 368.712 180.672 363.33 176.37C357.948 172.068 356.872 167.766 352.566 174.219C348.261 180.672 338.574 188.2 338.574 188.2L324.581 60.2239Z" fill="#3F3D56"/>
<path d="M362.254 137.655L359.025 167.766C359.025 167.766 339.65 184.973 343.956 186.049C348.261 187.124 350.414 182.822 350.414 182.822C350.414 182.822 357.948 190.35 362.254 186.049C366.559 181.747 377.323 140.881 377.323 140.881L362.254 137.655Z" fill="#A0616A"/>
<path d="M315.845 0.0654589C311.55 -0.0879527 306.954 -0.16384 303.332 2.14872C301.666 3.30929 300.205 4.73866 299.008 6.3783C295.481 10.8332 292.433 16.4384 293.744 21.9656L295.265 21.3727C295.265 22.8481 294.937 24.305 294.304 25.6381C294.518 25.0156 295.236 26.0219 295.044 26.6516L293.368 32.1459C296.123 31.1366 299.551 33.1801 299.97 36.0822C300.162 29.7006 300.824 22.3828 306.006 18.6461C308.618 16.7617 311.925 16.1865 315.107 15.6756C318.042 15.2044 321.119 14.755 323.93 15.7204C326.742 16.6859 329.136 19.5586 328.498 22.4598C329.795 22.0136 331.245 22.9162 331.885 24.1274C332.526 25.3385 332.559 26.7672 332.579 28.137C333.961 29.1127 335.533 27.1752 336.096 25.581C337.418 21.8389 338.593 17.8555 337.881 13.9515C337.169 10.0475 333.985 6.31658 330.013 6.30334C330.495 5.77428 330.752 5.0786 330.73 4.36346L327.457 4.0871C328.288 3.96953 329.052 3.56692 329.619 2.94822C328.304 4.39324 317.97 0.141371 315.845 0.0654589Z" fill="#2F2E41"/>
<path d="M314.894 56.9976C314.894 56.9976 306.132 48.4185 302.979 48.9441C299.825 49.4696 295.52 56.9976 295.52 56.9976C295.52 56.9976 269.687 65.601 270.764 74.2044C271.84 82.8078 283.68 124.749 283.68 124.749C283.68 124.749 293.367 175.294 284.756 180.672C276.145 186.049 325.658 200.029 326.734 193.577C327.81 187.124 329.963 122.599 326.734 112.92C323.505 103.241 314.894 56.9976 314.894 56.9976Z" fill="#3F3D56"/>
<path d="M352.567 74.2044H365.876C365.876 74.2044 375.17 115.071 376.246 119.372C377.323 123.674 379.475 144.107 378.399 144.107C377.323 144.107 355.796 139.805 355.796 143.032L352.567 74.2044Z" fill="#3F3D56"/>
<path d="M352.116 175.402H301.165C296.193 152.55 295.778 130.47 301.165 109.374H352.116C343.894 130.09 343.38 152.019 352.116 175.402Z" fill="#B07B5E"/>
<path d="M280.451 147.333L295.52 153.786C295.52 153.786 324.581 158.088 324.581 146.258C324.581 134.428 295.52 140.881 295.52 140.881L285.832 137.786L280.451 147.333Z" fill="#A0616A"/>
<path d="M283.68 67.7518L270.764 70.9781L261.077 127.976C261.077 127.976 257.847 143.032 263.229 144.107C268.611 145.182 283.68 153.786 283.68 153.786C283.68 153.786 285.833 137.655 290.138 137.655L279.375 129.051L285.833 91.4112L283.68 67.7518Z" fill="#3F3D56"/>
</g>
<defs>
<clipPath id="clip0_205_69">
<rect width="452" height="377" fill="white"/>
</clipPath>
</defs>
</svg>
