<?xml version="1.0" encoding="UTF-8"?>
<!-- Generated by Pixelmator Pro 3.6.11 -->
<svg width="509" height="469" viewBox="0 0 509 469" xmlns="http://www.w3.org/2000/svg">
    <path id="Trac" fill="#000000" stroke="none" d="M 295.503052 191.557343 C 295.503052 198.737061 289.682739 204.557343 282.503052 204.557343 C 275.323364 204.557343 269.503052 198.737061 269.503052 191.557343 C 269.503052 184.377655 275.323364 178.557343 282.503052 178.557343 C 289.682739 178.557343 295.503052 184.377655 295.503052 191.557343 Z"/>
    <path id="path1" fill="#ffffff" stroke="none" d="M 281.214478 196.516571 L 277.333618 193.897095 L 276.810486 192.642548 L 277.637146 191.563599 L 278.984619 191.74231 L 280.963501 193.259644 L 285.639832 187.161011 L 287.543579 186.9104 C 288.137634 187.366974 288.250061 188.218292 287.7948 188.813385 L 281.214478 196.516571 Z"/>
    <path id="path2" fill="#000000" stroke="none" d="M 295.503052 229.557343 C 295.503052 236.737045 289.682739 242.557343 282.503052 242.557343 C 275.323364 242.557343 269.503052 236.737045 269.503052 229.557343 C 269.503052 222.37764 275.323364 216.557343 282.503052 216.557343 C 289.682739 216.557343 295.503052 222.37764 295.503052 229.557343 Z"/>
    <path id="path3" fill="#ffffff" stroke="none" d="M 281.214478 234.516571 L 277.333618 231.897095 L 276.810486 230.642548 L 277.637146 229.563599 L 278.984619 229.74231 L 280.963501 231.259644 L 285.639832 225.161011 L 287.543579 224.9104 C 288.137634 225.366974 288.250061 226.218292 287.7948 226.813385 L 281.214478 234.516571 Z"/>
    <path id="path4" fill="#000000" stroke="none" d="M 302.503052 273.557343 C 302.503052 280.73703 296.682739 286.557343 289.503052 286.557343 C 282.323364 286.557343 276.503052 280.73703 276.503052 273.557343 C 276.503052 266.377655 282.323364 260.557343 289.503052 260.557343 C 296.682739 260.557343 302.503052 266.377655 302.503052 273.557343 Z"/>
    <path id="path5" fill="#ffffff" stroke="none" d="M 288.214478 278.516571 L 284.333618 275.897095 L 283.810486 274.642548 L 284.637146 273.563599 L 285.984619 273.74231 L 287.963501 275.259644 L 292.639832 269.161011 L 294.543579 268.9104 C 295.137634 269.366974 295.250061 270.218292 294.7948 270.813385 L 288.214478 278.516571 Z"/>
    <path id="path6" fill="#e6e6e6" stroke="none" d="M 414.859131 382.096802 L 398.470215 382.093323 L 398.470215 379.713623 L 414.668213 379.713623 C 415.043213 379.72699 422.694763 379.943115 429.74469 371.388733 C 440.250549 358.639709 448.878113 327.079041 430.317505 249.124756 C 405.360291 144.304138 426.17572 51.700989 436.283325 16.752625 C 437.292969 13.247131 436.595398 9.470917 434.399963 6.557526 C 432.204529 3.644104 428.766907 1.932709 425.118896 1.937042 L 184.084686 1.937042 C 180.36795 1.942017 176.876434 3.719238 174.685272 6.721405 C 170.403473 12.61142 164.527435 23.926575 160.850372 44.386414 L 158.508453 43.96579 C 162.265045 23.061493 168.332245 11.413422 172.760468 5.322388 C 175.399933 1.704895 179.606598 -0.436676 184.084686 -0.442688 L 425.118958 -0.442688 C 429.515015 -0.446899 433.657166 1.616272 436.302124 5.127625 C 438.947021 8.638947 439.786865 13.189636 438.569519 17.413788 C 428.513916 52.180847 407.806274 144.303558 432.632751 248.573975 C 451.454224 327.624573 442.406067 359.869019 431.501587 372.998596 C 424.309082 381.658203 416.384216 382.096802 414.859131 382.096802 Z"/>
    <path id="path7" fill="#cccccc" stroke="none" d="M 371.429626 425.526306 L 355.04071 425.522827 L 355.04071 423.143127 L 371.238708 423.143127 C 371.615784 423.154724 379.265259 423.37262 386.315186 414.818237 C 396.821045 402.069214 405.448608 370.508545 386.888 292.55426 C 361.930847 187.733643 382.746216 95.130463 392.853821 60.182129 C 393.863464 56.676666 393.165894 52.900421 390.970459 49.98703 C 388.775085 47.073608 385.337402 45.362213 381.689392 45.366547 L 140.655182 45.366547 C 136.938446 45.371521 133.44693 47.148743 131.255768 50.150909 C 126.973907 56.040924 121.09787 67.35611 117.42099 87.815918 L 115.078766 87.395294 C 118.835541 66.490997 124.90274 54.842896 129.330963 48.751892 C 131.970428 45.134399 136.177094 42.992828 140.655182 42.986816 L 381.689453 42.986816 C 386.08551 42.982605 390.227661 45.045776 392.87262 48.557129 C 395.517517 52.068451 396.357361 56.619171 395.140015 60.843292 C 385.084412 95.610352 364.37677 187.733032 389.203247 292.003479 C 408.024719 371.054077 398.976563 403.298523 388.072083 416.428101 C 380.879578 425.087708 372.954712 425.526306 371.429626 425.526306 Z"/>
    <path id="path8" fill="#045b27" stroke="none" d="M 345.773071 335.437378 C 320.942993 231.167358 341.652954 139.037354 351.713013 104.277374 C 352.927307 100.053131 352.086426 95.503845 349.442322 91.992828 C 346.798157 88.481812 342.658142 86.417053 338.262817 86.417358 L 97.223236 86.417358 C 92.74704 86.421753 88.541595 88.561584 85.902924 92.177368 C 76.172943 105.557373 55.983002 149.927368 78.533295 272.697357 C 90.592865 338.37738 90.413177 383.157349 86.473236 412.657349 C 84.262787 429.267395 80.853119 441.027344 77.762787 448.957397 L 77.433197 449.797424 C 76.782318 451.402039 76.442963 453.115845 76.433197 454.847412 C 76.387115 458.802185 78.035858 462.587646 80.962982 465.247437 L 84.132904 467.447388 L 90.433197 468.947388 L 328.003052 468.957397 C 329.523071 468.957397 337.453247 468.517395 344.643188 459.857422 C 355.543091 446.727356 364.592896 414.487366 345.773071 335.437378 Z M 342.882935 458.247375 C 335.83313 466.807373 328.183228 466.587341 327.81311 466.577393 L 90.433197 466.577393 C 86.574371 466.576233 82.967072 464.66217 80.802826 461.467346 C 78.905243 458.713867 78.316376 455.264465 79.192963 452.037354 L 79.632904 450.677368 C 83.162689 441.606934 85.778961 432.207092 87.442963 422.617371 C 93.083099 391.867371 94.132904 344.417358 80.873138 272.267365 C 58.493256 150.407379 78.283295 106.707367 87.822845 93.577362 C 90.017853 90.579773 93.507904 88.805115 97.223236 88.797363 L 338.262817 88.797363 C 341.908813 88.7948 345.343933 90.506012 347.538147 93.417786 C 349.732361 96.32959 350.43042 100.103363 349.422974 103.607361 C 339.31311 138.557373 318.503052 231.167358 343.463013 335.987366 C 362.023071 413.937378 353.393188 445.497375 342.882935 458.247375 Z"/>
    <path id="path9" fill="#cccccc" stroke="none" d="M 231.262512 199.957672 L 107.076447 199.957672 C 101.819366 199.957672 97.557709 195.695984 97.557709 190.438904 C 97.557709 185.181824 101.819366 180.920105 107.076447 180.920105 L 231.262512 180.920105 C 236.519592 180.920105 240.781311 185.181824 240.781311 190.438904 C 240.781311 195.695984 236.519592 199.957672 231.262512 199.957672 Z"/>
    <path id="path10" fill="#cccccc" stroke="none" d="M 231.262512 240.957672 L 107.076447 240.957672 C 101.819366 240.957672 97.557709 236.695984 97.557709 231.438904 C 97.557709 226.181824 101.819366 221.920105 107.076447 221.920105 L 231.262512 221.920105 C 236.519592 221.920105 240.781311 226.181824 240.781311 231.438904 C 240.781311 236.695984 236.519592 240.957672 231.262512 240.957672 Z"/>
    <path id="path11" fill="#cccccc" stroke="none" d="M 241.262512 282.957672 L 117.076447 282.957672 C 111.819366 282.957672 107.557709 278.695984 107.557709 273.438904 C 107.557709 268.181824 111.819366 263.920105 117.076447 263.920105 L 241.262512 263.920105 C 246.519592 263.920105 250.781311 268.181824 250.781311 273.438904 C 250.781311 278.695984 246.519592 282.957672 241.262512 282.957672 Z"/>
    <path id="path12" fill="#cccccc" stroke="none" d="M 248.262512 326.957703 L 124.076447 326.957703 C 118.819366 326.957703 114.557709 322.695984 114.557709 317.438904 C 114.557709 312.181824 118.819366 307.920105 124.076447 307.920105 L 248.262512 307.920105 C 253.519592 307.920105 257.781311 312.181824 257.781311 317.438904 C 257.781311 322.695984 253.519592 326.957703 248.262512 326.957703 Z"/>
    <path id="path13" fill="#000000" stroke="none" d="M 248.315186 126.047913 L 159.076447 126.047913 C 155.67337 126.051392 152.527313 124.237885 150.824799 121.291351 C 149.122223 118.344788 149.122223 114.71347 150.824799 111.766907 C 152.527313 108.820343 155.67337 107.006836 159.076447 107.010315 L 248.315186 107.010315 C 253.572266 107.010315 257.833984 111.272034 257.833984 116.529114 C 257.833984 121.786194 253.572266 126.047913 248.315186 126.047913 Z"/>
    <path id="path14" fill="#cccccc" stroke="none" d="M 310.503052 317.438873 C 310.503052 324.618561 304.682739 330.438873 297.503052 330.438873 C 290.323364 330.438873 284.503052 324.618561 284.503052 317.438873 C 284.503052 310.259155 290.323364 304.438873 297.503052 304.438873 C 304.682739 304.438873 310.503052 310.259155 310.503052 317.438873 Z"/>
    <path id="path15" fill="#cccccc" stroke="none" d="M 254.262512 369.957703 L 130.076447 369.957703 C 124.819366 369.957703 120.557709 365.695984 120.557709 360.438904 C 120.557709 355.181824 124.819366 350.920105 130.076447 350.920105 L 254.262512 350.920105 C 259.519592 350.920105 263.781311 355.181824 263.781311 360.438904 C 263.781311 365.695984 259.519592 369.957703 254.262512 369.957703 Z"/>
    <path id="path16" fill="#cccccc" stroke="none" d="M 316.503052 360.438873 C 316.503052 367.618561 310.682739 373.438873 303.503052 373.438873 C 296.323364 373.438873 290.503052 367.618561 290.503052 360.438873 C 290.503052 353.259155 296.323364 347.438873 303.503052 347.438873 C 310.682739 347.438873 316.503052 353.259155 316.503052 360.438873 Z"/>
</svg>
