<?xml version="1.0" encoding="UTF-8"?><svg id="a" xmlns="http://www.w3.org/2000/svg" viewBox="0 0 500 500"><defs><style>.b{fill:#b07b5e;}.c{fill:#045d28;}</style></defs><path class="c" d="M279.73,406.39c-2.1,.57-5.38,1.14-9.86,1.72-4.48,.57-8.91,.86-13.29,.86s-8.24-.34-11.57-1c-3.34-.66-6.14-1.86-8.43-3.57-2.29-1.71-4-4.09-5.14-7.14-1.14-3.04-1.71-7.05-1.71-12V250.67c0-4,1.09-7.09,3.29-9.29,2.19-2.19,5.19-3.95,9-5.29,6.47-2.29,13.86-3.95,22.14-5,8.29-1.04,16.62-1.57,25-1.57,26.28,0,46.38,5.62,60.28,16.86,13.9,11.24,20.86,26.48,20.86,45.71,0,9.33-1.48,17.76-4.43,25.28-2.96,7.53-7.33,14-13.14,19.43-5.81,5.43-13.14,9.62-22,12.57-8.86,2.96-19.1,4.43-30.71,4.43h-20.29v52.57Zm14.86-91.71c8,0,14.14-1.86,18.43-5.57,4.29-3.71,6.43-9.38,6.43-17s-2.24-12.81-6.71-16.71c-4.48-3.9-11-5.86-19.57-5.86-3.05,0-5.57,.05-7.57,.14-2,.1-4.05,.34-6.14,.72v44.28h15.14Z"/><g><path class="c" d="M227.64,190.34s-7.6-27.66-.33-43.23c0,0-61.27-61.21-154.92,10.16,0,0,23.33,1.17,39.88,26.57,0,0,49.64,66.89,130.89,36.91,0,0-35.84-50.6-80.05-51.37,0,0,25.36-10.44,64.53,20.96Z"/><path class="b" d="M300.94,88.66s-3.3,20.8,5.56,39.27c0,0,15.66,54.67-43.23,85.52,0,0-12.32-31.27,8.44-63.65,0,0-29.94,14.87-14.66,66.5,0,0-79.63-62.95,43.88-127.65Z"/></g></svg>