<?xml version="1.0" encoding="UTF-8"?><svg id="a" xmlns="http://www.w3.org/2000/svg" viewBox="0 0 500 500"><defs><style>.b{fill:#055e2c;}.c{fill:#b07b5e;}.d{fill:#045d28;}</style></defs><path class="d" d="M241.46,326.48c-1.72,.47-4.41,.94-8.08,1.41-3.67,.47-7.3,.7-10.9,.7s-6.76-.27-9.49-.82c-2.74-.55-5.04-1.52-6.91-2.93-1.87-1.41-3.28-3.36-4.22-5.86-.94-2.5-1.41-5.78-1.41-9.84v-110.37c0-3.28,.9-5.82,2.7-7.62,1.79-1.79,4.25-3.24,7.38-4.34,5.31-1.87,11.36-3.24,18.16-4.1,6.8-.86,13.63-1.29,20.5-1.29,21.56,0,38.04,4.61,49.44,13.83,11.4,9.22,17.11,21.72,17.11,37.49,0,7.66-1.21,14.57-3.63,20.74-2.42,6.17-6.02,11.48-10.78,15.94-4.77,4.45-10.78,7.89-18.04,10.31-7.26,2.42-15.66,3.63-25.19,3.63h-16.64v43.12Zm12.19-75.22c6.56,0,11.6-1.52,15.11-4.57,3.52-3.05,5.27-7.69,5.27-13.94s-1.84-10.5-5.51-13.71c-3.67-3.2-9.02-4.8-16.05-4.8-2.5,0-4.57,.04-6.21,.12-1.64,.08-3.32,.27-5.04,.59v36.32h12.42Z"/><g><path class="d" d="M191.18,141.91s-3.9-14.22-.17-22.23c0,0-31.5-31.47-79.64,5.22,0,0,11.99,.6,20.5,13.66,0,0,25.52,34.39,67.29,18.97,0,0-18.42-26.01-41.16-26.41,0,0,13.04-5.37,33.18,10.78Z"/><path class="c" d="M228.87,89.64s-1.7,10.69,2.86,20.19c0,0,8.05,28.11-22.22,43.97,0,0-6.34-16.08,4.34-32.72,0,0-15.39,7.65-7.53,34.19,0,0-40.94-32.36,22.56-65.63Z"/></g><path class="b" d="M247.23,342.53c-54.09,0-98.1-41.65-98.1-92.84s44.01-92.84,98.1-92.84,98.1,41.65,98.1,92.84-44.01,92.84-98.1,92.84Zm0-182.83c-52.5,0-95.2,40.37-95.2,89.99s42.71,89.99,95.2,89.99,95.2-40.37,95.2-89.99-42.71-89.99-95.2-89.99Z"/></svg>