<?xml version="1.0" encoding="UTF-8"?><svg id="a" xmlns="http://www.w3.org/2000/svg" xmlns:xlink="http://www.w3.org/1999/xlink" viewBox="0 0 500 500"><defs><style>.c{fill:#b07b5e;}.d{fill:#045d28;}.e{fill:url(#b);}</style><linearGradient id="b" x1="310.5" y1="-626.26" x2="430.42" y2="-626.26" gradientTransform="translate(72.01 894.4) rotate(-27.65)" gradientUnits="userSpaceOnUse"><stop offset="0" stop-color="#045d28"/><stop offset="1" stop-color="#045d28"/></linearGradient></defs><path class="c" d="M458.76,254.55c-1.67,86.2-88.61,154.41-194.17,152.36-98.92-1.92-179.09-64.82-187.45-143.65,14.69,73.2,91.72,129.98,185.63,131.8,105.58,2.04,192.52-66.15,194.19-152.34,.1-5.39-.14-10.72-.68-15.97,1.81,9.03,2.66,18.32,2.48,27.79Z"/><path class="d" d="M205.68,356.49c-1.77,.48-4.55,.97-8.33,1.45-3.78,.48-7.52,.72-11.22,.72s-6.96-.28-9.78-.84c-2.82-.56-5.19-1.57-7.12-3.02-1.93-1.45-3.38-3.46-4.34-6.03-.97-2.57-1.45-5.95-1.45-10.14v-113.69c0-3.38,.92-5.99,2.78-7.84,1.85-1.85,4.38-3.34,7.6-4.47,5.47-1.93,11.71-3.34,18.71-4.22,7-.88,14.04-1.33,21.12-1.33,22.21,0,39.18,4.75,50.93,14.24,11.75,9.5,17.62,22.37,17.62,38.62,0,7.89-1.25,15.01-3.74,21.36-2.5,6.36-6.2,11.83-11.1,16.41-4.91,4.59-11.1,8.13-18.59,10.62-7.48,2.5-16.13,3.74-25.95,3.74h-17.14v44.41Zm12.55-77.48c6.76,0,11.95-1.57,15.57-4.71,3.62-3.14,5.43-7.92,5.43-14.36s-1.89-10.82-5.67-14.12c-3.78-3.3-9.29-4.95-16.53-4.95-2.58,0-4.71,.04-6.4,.12-1.69,.08-3.42,.28-5.19,.6v37.41h12.79Z"/><g><path class="e" d="M161.67,173.97s-6.42-23.37-.28-36.52c0,0-51.76-51.71-130.88,8.58,0,0,19.71,.99,33.69,22.45,0,0,41.94,56.51,110.58,31.18,0,0-30.27-42.75-67.63-43.4,0,0,21.42-8.82,54.52,17.71Z"/><path class="c" d="M223.6,88.07s-2.79,17.57,4.7,33.18c0,0,13.23,46.19-36.52,72.25,0,0-10.41-26.42,7.13-53.77,0,0-25.29,12.56-12.38,56.18,0,0-67.27-53.18,37.07-107.84Z"/></g><g><path class="c" d="M231.45,351.32c-2.57,0-4.95-.36-7.14-1.08-2.2-.72-4.11-1.79-5.74-3.23s-2.91-3.24-3.85-5.41c-.94-2.17-1.4-4.72-1.4-7.63s.47-5.34,1.4-7.4c.93-2.07,2.16-3.76,3.69-5.09,1.52-1.33,3.26-2.3,5.22-2.94,1.96-.63,3.96-.95,6-.95,2.3,0,4.4,.35,6.29,1.04,1.89,.7,3.52,1.65,4.89,2.87,1.37,1.22,2.44,2.67,3.2,4.37s1.14,3.54,1.14,5.54c0,1.48-.41,2.61-1.24,3.39-.83,.78-1.98,1.28-3.46,1.5l-16.11,2.41c.48,1.43,1.46,2.51,2.94,3.23,1.48,.72,3.17,1.08,5.09,1.08,1.78,0,3.47-.23,5.06-.68,1.59-.46,2.88-.99,3.88-1.6,.7,.44,1.28,1.04,1.76,1.83,.48,.78,.72,1.61,.72,2.48,0,1.96-.91,3.41-2.74,4.37-1.39,.74-2.96,1.24-4.7,1.5-1.74,.26-3.37,.39-4.89,.39Zm-1.83-25.63c-1.04,0-1.95,.17-2.71,.52-.76,.35-1.38,.79-1.86,1.34-.48,.54-.84,1.15-1.08,1.83-.24,.67-.38,1.36-.42,2.05l11.15-1.83c-.13-.87-.61-1.74-1.44-2.61-.83-.87-2.04-1.3-3.65-1.3Z"/><path class="c" d="M283.3,334.43c0,2.7-.41,5.1-1.24,7.21-.83,2.11-1.99,3.88-3.49,5.32-1.5,1.43-3.29,2.52-5.38,3.26-2.09,.74-4.41,1.11-6.98,1.11s-4.89-.39-6.98-1.17c-2.09-.78-3.88-1.9-5.38-3.36s-2.66-3.23-3.49-5.32c-.83-2.09-1.24-4.44-1.24-7.05s.41-4.89,1.24-6.98c.83-2.09,1.99-3.86,3.49-5.32,1.5-1.46,3.29-2.58,5.38-3.36,2.09-.78,4.41-1.17,6.98-1.17s4.89,.4,6.98,1.21c2.09,.81,3.88,1.94,5.38,3.39s2.66,3.23,3.49,5.32c.83,2.09,1.24,4.39,1.24,6.91Zm-22.83,0c0,2.65,.51,4.69,1.53,6.1,1.02,1.41,2.45,2.12,4.27,2.12s3.23-.72,4.21-2.15,1.47-3.46,1.47-6.07-.5-4.62-1.5-6.03c-1-1.41-2.41-2.12-4.24-2.12s-3.24,.71-4.24,2.12c-1,1.41-1.5,3.43-1.5,6.03Z"/><path class="c" d="M321.53,334.43c0,2.7-.41,5.1-1.24,7.21-.83,2.11-1.99,3.88-3.49,5.32-1.5,1.43-3.29,2.52-5.38,3.26-2.09,.74-4.41,1.11-6.98,1.11s-4.89-.39-6.98-1.17c-2.09-.78-3.88-1.9-5.38-3.36s-2.66-3.23-3.49-5.32c-.83-2.09-1.24-4.44-1.24-7.05s.41-4.89,1.24-6.98c.83-2.09,1.99-3.86,3.49-5.32,1.5-1.46,3.29-2.58,5.38-3.36,2.09-.78,4.41-1.17,6.98-1.17s4.89,.4,6.98,1.21c2.09,.81,3.88,1.94,5.38,3.39s2.66,3.23,3.49,5.32c.83,2.09,1.24,4.39,1.24,6.91Zm-22.83,0c0,2.65,.51,4.69,1.53,6.1,1.02,1.41,2.45,2.12,4.27,2.12s3.23-.72,4.21-2.15,1.47-3.46,1.47-6.07-.5-4.62-1.5-6.03c-1-1.41-2.41-2.12-4.24-2.12s-3.24,.71-4.24,2.12c-1,1.41-1.5,3.43-1.5,6.03Z"/><path class="c" d="M342.4,317.6c2.48,0,4.73,.32,6.75,.95,2.02,.63,3.73,1.45,5.12,2.45,.87,.61,1.55,1.28,2.05,2.02,.5,.74,.75,1.7,.75,2.87v22.83c0,2.3-.44,4.29-1.3,5.97-.87,1.67-2.05,3.07-3.55,4.18-1.5,1.11-3.26,1.92-5.28,2.45-2.02,.52-4.19,.78-6.49,.78-3.96,0-7.07-.53-9.33-1.6-2.26-1.07-3.39-2.79-3.39-5.19,0-1,.21-1.88,.62-2.64,.41-.76,.88-1.34,1.4-1.73,1.26,.69,2.68,1.28,4.27,1.76s3.23,.72,4.93,.72c2.35,0,4.22-.39,5.61-1.17,1.39-.78,2.09-2.04,2.09-3.78v-1.04c-1.78,.78-3.96,1.17-6.52,1.17-1.96,0-3.82-.29-5.58-.88-1.76-.59-3.31-1.5-4.63-2.74-1.33-1.24-2.39-2.84-3.2-4.79-.81-1.96-1.21-4.28-1.21-6.98s.42-4.96,1.27-6.91c.85-1.96,2.02-3.58,3.52-4.86,1.5-1.28,3.28-2.24,5.35-2.87,2.07-.63,4.32-.95,6.75-.95Zm4.04,9.46c-.3-.17-.75-.35-1.34-.52-.59-.17-1.32-.26-2.18-.26-2.13,0-3.73,.6-4.79,1.79-1.07,1.2-1.6,2.9-1.6,5.12,0,2.52,.53,4.34,1.6,5.45,1.07,1.11,2.42,1.66,4.08,1.66,1.78,0,3.2-.41,4.24-1.24v-12Z"/><path class="c" d="M396.74,334.43c0,2.7-.41,5.1-1.24,7.21-.83,2.11-1.99,3.88-3.49,5.32-1.5,1.43-3.29,2.52-5.38,3.26-2.09,.74-4.41,1.11-6.98,1.11s-4.89-.39-6.98-1.17c-2.09-.78-3.88-1.9-5.38-3.36s-2.66-3.23-3.49-5.32c-.83-2.09-1.24-4.44-1.24-7.05s.41-4.89,1.24-6.98c.83-2.09,1.99-3.86,3.49-5.32,1.5-1.46,3.29-2.58,5.38-3.36,2.09-.78,4.41-1.17,6.98-1.17s4.89,.4,6.98,1.21c2.09,.81,3.88,1.94,5.38,3.39s2.66,3.23,3.49,5.32c.83,2.09,1.24,4.39,1.24,6.91Zm-22.83,0c0,2.65,.51,4.69,1.53,6.1,1.02,1.41,2.45,2.12,4.27,2.12s3.23-.72,4.21-2.15,1.47-3.46,1.47-6.07-.5-4.62-1.5-6.03c-1-1.41-2.41-2.12-4.24-2.12s-3.24,.71-4.24,2.12c-1,1.41-1.5,3.43-1.5,6.03Z"/></g></svg>